<svg width="19" height="18" viewBox="0 0 19 18" fill="none" xmlns="http://www.w3.org/2000/svg">
<path d="M13.997 2.00387V0.650609C13.997 0.294943 13.6509 0 13.2336 0C12.8162 0 12.4701 0.294943 12.4701 0.650609V1.95183H5.85347V0.650609C5.85347 0.294943 5.50737 0 5.09001 0C4.67265 0 4.32654 0.294943 4.32654 0.650609V2.00387C1.57808 2.22074 0.244572 3.61738 0.0409825 5.69066C0.0206236 5.94223 0.264931 6.15042 0.549957 6.15042H17.7736C18.0688 6.15042 18.3131 5.93355 18.2826 5.69066C18.079 3.61738 16.7455 2.22074 13.997 2.00387Z" fill="#292D32"/>
<path d="M17.3051 7.45117H1.01795C0.458077 7.45117 0 7.8415 0 8.31862V13.6623C0 16.2647 1.52692 17.9997 5.08974 17.9997H13.2333C16.7962 17.9997 18.3231 16.2647 18.3231 13.6623V8.31862C18.3231 7.8415 17.865 7.45117 17.3051 7.45117ZM6.32146 14.7119C6.27056 14.7466 6.21967 14.79 6.16877 14.816C6.10769 14.8507 6.04662 14.8768 5.98554 14.8941C5.92446 14.9201 5.86338 14.9375 5.80231 14.9461C5.73105 14.9548 5.66997 14.9635 5.59872 14.9635C5.46638 14.9635 5.33405 14.9375 5.2119 14.8941C5.07956 14.8507 4.97777 14.79 4.87597 14.7119C4.69274 14.5471 4.58077 14.3216 4.58077 14.096C4.58077 13.8705 4.69274 13.6449 4.87597 13.4801C4.97777 13.402 5.07956 13.3413 5.2119 13.2979C5.39513 13.2285 5.59872 13.2112 5.80231 13.2459C5.86338 13.2546 5.92446 13.2719 5.98554 13.2979C6.04662 13.3153 6.10769 13.3413 6.16877 13.376C6.21967 13.4107 6.27056 13.4454 6.32146 13.4801C6.50469 13.6449 6.61667 13.8705 6.61667 14.096C6.61667 14.3216 6.50469 14.5471 6.32146 14.7119ZM6.32146 11.6758C6.12805 11.8319 5.86338 11.9273 5.59872 11.9273C5.33405 11.9273 5.06938 11.8319 4.87597 11.6758C4.69274 11.5109 4.58077 11.2854 4.58077 11.0598C4.58077 10.8343 4.69274 10.6088 4.87597 10.4439C5.161 10.201 5.6089 10.123 5.98554 10.2618C6.11787 10.3051 6.22985 10.3659 6.32146 10.4439C6.50469 10.6088 6.61667 10.8343 6.61667 11.0598C6.61667 11.2854 6.50469 11.5109 6.32146 11.6758ZM9.88428 14.7119C9.69087 14.8681 9.4262 14.9635 9.16154 14.9635C8.89687 14.9635 8.6322 14.8681 8.43879 14.7119C8.25556 14.5471 8.14359 14.3216 8.14359 14.096C8.14359 13.8705 8.25556 13.6449 8.43879 13.4801C8.81544 13.1591 9.50764 13.1591 9.88428 13.4801C10.0675 13.6449 10.1795 13.8705 10.1795 14.096C10.1795 14.3216 10.0675 14.5471 9.88428 14.7119ZM9.88428 11.6758C9.83338 11.7105 9.78249 11.7452 9.73159 11.7799C9.67051 11.8146 9.60944 11.8406 9.54836 11.8579C9.48728 11.884 9.4262 11.9013 9.36513 11.91C9.29387 11.9187 9.23279 11.9273 9.16154 11.9273C8.89687 11.9273 8.6322 11.8319 8.43879 11.6758C8.25556 11.5109 8.14359 11.2854 8.14359 11.0598C8.14359 10.8343 8.25556 10.6088 8.43879 10.4439C8.53041 10.3659 8.64238 10.3051 8.77472 10.2618C9.15136 10.123 9.59926 10.201 9.88428 10.4439C10.0675 10.6088 10.1795 10.8343 10.1795 11.0598C10.1795 11.2854 10.0675 11.5109 9.88428 11.6758ZM13.4471 14.7119C13.2537 14.8681 12.989 14.9635 12.7244 14.9635C12.4597 14.9635 12.195 14.8681 12.0016 14.7119C11.8184 14.5471 11.7064 14.3216 11.7064 14.096C11.7064 13.8705 11.8184 13.6449 12.0016 13.4801C12.3783 13.1591 13.0705 13.1591 13.4471 13.4801C13.6303 13.6449 13.7423 13.8705 13.7423 14.096C13.7423 14.3216 13.6303 14.5471 13.4471 14.7119ZM13.4471 11.6758C13.3962 11.7105 13.3453 11.7452 13.2944 11.7799C13.2333 11.8146 13.1723 11.8406 13.1112 11.8579C13.0501 11.884 12.989 11.9013 12.9279 11.91C12.8567 11.9187 12.7854 11.9273 12.7244 11.9273C12.4597 11.9273 12.195 11.8319 12.0016 11.6758C11.8184 11.5109 11.7064 11.2854 11.7064 11.0598C11.7064 10.8343 11.8184 10.6088 12.0016 10.4439C12.1034 10.3659 12.2052 10.3051 12.3375 10.2618C12.5208 10.1924 12.7244 10.175 12.9279 10.2097C12.989 10.2184 13.0501 10.2357 13.1112 10.2618C13.1723 10.2791 13.2333 10.3051 13.2944 10.3398L13.4471 10.4439C13.6303 10.6088 13.7423 10.8343 13.7423 11.0598C13.7423 11.2854 13.6303 11.5109 13.4471 11.6758Z" fill="#292D32"/>
</svg>
