<svg width="36" height="36" viewBox="0 0 36 36" fill="none" xmlns="http://www.w3.org/2000/svg">
<g clip-path="url(#clip0_325_1224)">
<path d="M6.18947 0.45565C5.57603 0.676331 5.10047 1.15189 4.86611 1.75813C4.76963 2.02021 4.76279 3.62581 4.77647 18.141L4.79699 34.2345L4.98311 34.5513C5.22431 34.9649 5.69987 35.3922 6.07895 35.5369C6.36155 35.6403 7.26443 35.6471 18.099 35.6334C29.2507 35.6129 29.8296 35.6057 30.0434 35.4887C30.4502 35.268 30.8361 34.8616 31.0359 34.4411L31.2289 34.0275V20.4083C31.2289 8.20213 31.2152 6.75457 31.1187 6.45145C31.0223 6.14833 30.7533 5.85889 28.2791 3.39829C26.177 1.31677 25.4603 0.648251 25.1982 0.524048L24.8537 0.35881L15.6524 0.36565C8.09171 0.366009 6.40295 0.379688 6.18947 0.45565ZM23.8543 4.42573C23.8543 7.31365 23.868 7.42381 24.2611 7.62361C24.4404 7.72009 24.8468 7.73377 27.1281 7.73377H29.7817V20.8155C29.7817 32.4705 29.768 33.9177 29.6715 34.0487L29.5682 34.2003H17.9957C7.56755 34.2003 6.41663 34.1866 6.32015 34.0901C6.22367 33.9936 6.20999 32.4427 6.20999 18.0449C6.20999 1.40677 6.20315 1.95829 6.48575 1.85497C6.54083 1.83445 10.4763 1.81357 15.2251 1.81357L23.8543 1.80673V4.42573ZM27.2315 4.41169C28.2171 5.37649 29.0235 6.19009 29.0235 6.22429C29.0235 6.26569 28.2931 6.27937 27.1832 6.27253L25.3361 6.25201L25.3155 4.43941C25.3087 3.24709 25.3224 2.62681 25.3706 2.64733C25.4048 2.65417 26.2458 3.45373 27.2315 4.41169Z" fill="#00AAAD" stroke="#00AAAD"/>
<path d="M12.7768 11.3583C10.2817 12.2068 8.8674 15.049 9.71429 17.5039C9.96648 18.2439 10.2907 18.776 10.8675 19.3808C11.7953 20.3556 12.7772 20.8066 13.993 20.8066C15.1551 20.8066 16.4523 20.2382 17.1726 19.4171C17.677 18.8307 17.4968 18.0634 16.7943 17.8291C16.4161 17.7028 16.0825 17.8201 15.6595 18.2349C14.488 19.3718 12.4432 19.0292 11.7045 17.567C11.2989 16.7817 11.2542 15.6538 11.5695 14.7153C11.7948 14.0747 12.5062 13.38 13.1367 13.1905C14.1097 12.9015 14.8841 13.0642 15.6496 13.7226C15.9827 14.0116 16.2081 14.1289 16.3883 14.1289C16.9736 14.1289 17.3613 13.741 17.3702 13.1542C17.3702 12.6847 17.055 12.3057 16.2443 11.8278C15.0916 11.142 13.8848 10.9793 12.7768 11.3583Z" fill="#00AAAD"/>
<path d="M19.0681 11.5886C18.7875 11.806 18.5967 12.2413 18.6602 12.5047C18.6876 12.6046 19.4121 14.4273 20.2819 16.5493C21.2421 18.9162 21.9306 20.485 22.0669 20.6209C22.3476 20.9023 22.9457 20.9203 23.2808 20.6574C23.453 20.5214 23.8969 19.4964 25.1107 16.4678C26.8683 12.0699 26.8593 12.0879 26.3251 11.6436C25.999 11.3627 25.5911 11.3352 25.2016 11.5711C24.9659 11.7161 24.7937 12.0789 23.8515 14.4548C23.2628 15.9421 22.746 17.1935 22.719 17.2295C22.6831 17.2745 22.1483 16.0505 21.5322 14.5268C20.5446 12.0784 20.3818 11.7246 20.1371 11.5796C19.7746 11.3618 19.3492 11.3618 19.0681 11.5886Z" fill="#00AAAD"/>
<path d="M9.82155 23.9302C9.36651 24.1163 9.23583 24.7571 9.58035 25.1088L9.78015 25.3086H17.9889H26.1976L26.4111 25.1156C26.5904 24.9572 26.6318 24.8676 26.6318 24.6469C26.6318 24.3024 26.4593 24.0335 26.1839 23.937C25.9218 23.8474 10.0422 23.8405 9.82155 23.9302Z" fill="#00AAAD"/>
<path d="M9.61488 28.5759C9.2772 28.9135 9.30492 29.3614 9.68364 29.6649C9.82152 29.775 10.359 29.7891 18.0025 29.7891C26.0939 29.7891 26.1835 29.7891 26.356 29.6512C26.6177 29.4445 26.7145 29.0997 26.5835 28.8034C26.3837 28.3073 26.9626 28.3415 17.9543 28.3415H9.84924L9.61488 28.5759Z" fill="#00AAAD"/>
</g>
<defs>
<clipPath id="clip0_325_1224">
<rect width="36" height="36" fill="white"/>
</clipPath>
</defs>
</svg>
