<svg width="126" height="126" viewBox="0 0 126 126" fill="none" xmlns="http://www.w3.org/2000/svg">
<path opacity="0.2" d="M110.25 31.5L63 47.25L15.75 31.5L63 15.75L110.25 31.5Z" fill="#00AAAD"/>
<path d="M111.48 27.7593L64.2305 12.0093C63.4287 11.7625 62.5713 11.7625 61.7695 12.0093L14.5688 27.7593H14.4703L13.9781 28.0054H13.9289L13.4367 28.3007C13.4367 28.3499 13.3875 28.3499 13.3383 28.3991L12.9445 28.7436L12.6 29.1374C12.6 29.1866 12.5508 29.1866 12.5508 29.2358L12.2555 29.6788C12.2555 29.728 12.2555 29.728 12.2063 29.7772L12.0094 30.2202L11.8617 30.7616V30.9093C11.8132 31.1021 11.7966 31.3016 11.8125 31.4999V70.8749C11.8125 71.9192 12.2274 72.9207 12.9658 73.6591C13.7042 74.3975 14.7057 74.8124 15.75 74.8124C16.7943 74.8124 17.7958 74.3975 18.5342 73.6591C19.2727 72.9207 19.6875 71.9192 19.6875 70.8749V36.9632L36.225 42.4757C33.1181 47.4487 31.4802 53.1986 31.5 59.0624C31.5018 64.3953 32.8575 69.6404 35.4401 74.3062C38.0227 78.9721 41.7475 82.9059 46.2656 85.739C36.8767 89.2908 28.8612 95.7377 23.3789 104.147C22.8201 105.03 22.6308 106.098 22.8518 107.12C23.0727 108.142 23.6862 109.036 24.5602 109.61C24.989 109.894 25.47 110.09 25.9753 110.187C26.4806 110.284 27 110.28 27.5036 110.175C28.0072 110.069 28.4849 109.865 28.909 109.574C29.3331 109.283 29.6951 108.91 29.9742 108.478C33.5481 102.973 38.4415 98.4485 44.2094 95.3163C49.9772 92.1841 56.4366 90.5434 63 90.5434C69.5635 90.5434 76.0228 92.1841 81.7907 95.3163C87.5585 98.4485 92.4519 102.973 96.0258 108.478C96.3852 109.024 96.8749 109.472 97.4506 109.781C98.0263 110.09 98.6699 110.251 99.3234 110.25C100.078 110.258 100.816 110.035 101.44 109.61C102.314 109.036 102.927 108.142 103.148 107.12C103.369 106.098 103.18 105.03 102.621 104.147C97.1388 95.7377 89.1234 89.2908 79.7344 85.739C84.2525 82.9059 87.9774 78.9721 90.5599 74.3062C93.1425 69.6404 94.4982 64.3953 94.5 59.0624C94.5199 53.1986 92.8819 47.4487 89.775 42.4757L111.48 35.2405C112.268 34.9816 112.954 34.4806 113.44 33.8089C113.927 33.1372 114.188 32.3291 114.188 31.4999C114.188 30.6707 113.927 29.8626 113.44 29.1909C112.954 28.5192 112.268 28.0182 111.48 27.7593ZM86.625 59.0624C86.625 65.3281 84.136 71.3372 79.7054 75.7678C75.2749 80.1983 69.2657 82.6874 63 82.6874C56.7343 82.6874 50.7252 80.1983 46.2946 75.7678C41.8641 71.3372 39.375 65.3281 39.375 59.0624C39.3845 54.0211 40.9865 49.1117 43.9524 45.035L61.7695 50.9905C62.5688 51.2534 63.4312 51.2534 64.2305 50.9905L82.0477 45.035C85.0135 49.1117 86.6155 54.0211 86.625 59.0624ZM82.0477 36.7663H81.9985L63 43.1155L44.0016 36.7663H43.9524L28.2024 31.4999L63 19.8843L97.7977 31.4999L82.0477 36.7663Z" fill="#00AAAD"/>
</svg>
