<svg width="28" height="28" viewBox="0 0 28 28" fill="none" xmlns="http://www.w3.org/2000/svg">
<path opacity="0.2" d="M24.5 7L14 10.5L3.5 7L14 3.5L24.5 7Z" fill="white"/>
<path d="M24.7733 6.16906L14.2735 2.66906C14.0953 2.61422 13.9047 2.61422 13.7266 2.66906L3.23753 6.16906H3.21564L3.10626 6.22375H3.09533L2.98595 6.28937C2.98595 6.30031 2.97502 6.30031 2.96408 6.31124L2.87657 6.3878L2.80002 6.47531C2.80002 6.48624 2.78908 6.48624 2.78908 6.49717L2.72346 6.59562C2.72346 6.60655 2.72346 6.60655 2.71253 6.61749L2.66877 6.71593L2.63595 6.83624V6.86906C2.62517 6.91191 2.62148 6.95624 2.62502 7.00031V15.7503C2.62502 15.9824 2.71722 16.2049 2.88131 16.369C3.04539 16.5331 3.26795 16.6253 3.50002 16.6253C3.73208 16.6253 3.95464 16.5331 4.11873 16.369C4.28284 16.2049 4.37502 15.9824 4.37502 15.7503V8.21437L8.05002 9.43937C7.35959 10.5445 6.99562 11.8222 7.00002 13.1253C7.00042 14.3104 7.30168 15.476 7.87559 16.5128C8.44951 17.5497 9.27724 18.4239 10.2813 19.0534C8.19484 19.8427 6.41362 21.2754 5.19533 23.1441C5.07115 23.3403 5.02908 23.5777 5.07819 23.8048C5.12728 24.0319 5.26362 24.2305 5.45784 24.3581C5.55313 24.4212 5.66002 24.4648 5.77231 24.4863C5.88459 24.5079 6.00002 24.507 6.11193 24.4837C6.22384 24.4601 6.32999 24.4148 6.42424 24.3501C6.51848 24.2854 6.59893 24.2025 6.66095 24.1065C7.45515 22.8832 8.54257 21.8778 9.82433 21.1817C11.1061 20.4857 12.5415 20.1211 14 20.1211C15.4586 20.1211 16.894 20.4857 18.1757 21.1817C19.4575 21.8778 20.5449 22.8832 21.3391 24.1065C21.4189 24.2279 21.5278 24.3274 21.6557 24.3961C21.7836 24.4648 21.9267 24.5005 22.0719 24.5003C22.2396 24.5021 22.4036 24.4525 22.5422 24.3581C22.7365 24.2305 22.8727 24.0319 22.9218 23.8048C22.9709 23.5777 22.9289 23.3403 22.8047 23.1441C21.5864 21.2754 19.8052 19.8427 17.7188 19.0534C18.7228 18.4239 19.5505 17.5497 20.1244 16.5128C20.6983 15.476 20.9996 14.3104 21 13.1253C21.0044 11.8222 20.6404 10.5445 19.95 9.43937L24.7733 7.83155C24.9485 7.77402 25.1009 7.66268 25.2089 7.51342C25.3171 7.36415 25.3751 7.18457 25.3751 7.00031C25.3751 6.81604 25.3171 6.63646 25.2089 6.4872C25.1009 6.33793 24.9485 6.2266 24.7733 6.16906ZM19.25 13.1253C19.25 14.5177 18.6969 15.853 17.7123 16.8376C16.7278 17.8222 15.3924 18.3753 14 18.3753C12.6076 18.3753 11.2723 17.8222 10.2877 16.8376C9.30315 15.853 8.75002 14.5177 8.75002 13.1253C8.75213 12.005 9.10813 10.914 9.76722 10.0081L13.7266 11.3316C13.9042 11.39 14.0958 11.39 14.2735 11.3316L18.2328 10.0081C18.8919 10.914 19.2479 12.005 19.25 13.1253ZM18.2328 8.17062H18.2219L14 9.58155L9.77815 8.17062H9.76722L6.26722 7.00031L14 4.41906L21.7328 7.00031L18.2328 8.17062Z" fill="white"/>
</svg>
