<svg width="64" height="64" viewBox="0 0 64 64" fill="none" xmlns="http://www.w3.org/2000/svg">
<g clip-path="url(#clip0_70_62)">
<path d="M40.4895 36.5273C40.4895 41.2189 36.6916 45.0168 32 45.0168C27.3084 45.0168 23.5105 41.2189 23.5105 36.5273C23.5105 31.8357 27.3084 28.0377 32 28.0377C36.6916 28.0377 40.4895 31.8357 40.4895 36.5273ZM57.8628 15.2509C61.2534 15.2509 64 17.9975 64 21.388V37.4735V51.1145C64 54.7285 61.0694 57.6591 57.4554 57.6591H6.54456C2.9306 57.6591 0 54.7285 0 51.1145V37.4603V21.388C0 17.9975 2.74661 15.2509 6.13717 15.2509H18.4115L18.9897 12.8065C19.8702 9.02172 23.2476 6.34082 27.1376 6.34082H36.8756C40.7655 6.34082 44.1429 9.02172 45.0234 12.8065L45.5885 15.2509H57.8628ZM12.8 24.1084C12.8 22.4131 11.4201 21.0332 9.72485 21.0332C8.01643 21.0332 6.63655 22.4131 6.63655 24.1084C6.63655 25.8037 8.01643 27.1835 9.7117 27.1835C11.4201 27.1967 12.8 25.8168 12.8 24.1084ZM47.1392 36.5273C47.1392 28.1692 40.3581 21.388 32 21.388C23.6419 21.388 16.8608 28.1692 16.8608 36.5273C16.8608 44.8854 23.6419 51.6665 32 51.6665C40.3581 51.6665 47.1392 44.8854 47.1392 36.5273Z" fill="#808080"/>
</g>
<defs>
<clipPath id="clip0_70_62">
<rect width="64" height="64" fill="white"/>
</clipPath>
</defs>
</svg>
