<svg width="28" height="28" viewBox="0 0 28 28" fill="none" xmlns="http://www.w3.org/2000/svg">
<mask id="mask0_250_641" style="mask-type:luminance" maskUnits="userSpaceOnUse" x="3" y="3" width="22" height="22">
<path d="M24.6667 3.33301H3.55554V24.4441H24.6667V3.33301Z" fill="white"/>
</mask>
<g mask="url(#mask0_250_641)">
<path d="M17.1829 5.06435V22.7944H5.28731V5.06435H17.1829ZM17.787 3.41504H4.68324C4.106 3.41504 3.638 3.96962 3.638 4.65202V23.2068C3.638 23.889 4.106 24.4437 4.68324 24.4437H17.787C18.3642 24.4437 18.8322 23.889 18.8322 23.2068V4.65202C18.8322 3.96962 18.3642 3.41504 17.787 3.41504Z" fill="white"/>
<path d="M13.9667 18.6295V22.7733H8.50342V18.6295H13.9667ZM15.2243 16.9801H7.22726C6.88093 16.9801 6.85413 17.176 6.85413 17.4172V23.9835C6.85413 24.2248 6.88297 24.4206 7.22726 24.4206H15.2243C15.5707 24.4206 15.6161 24.2248 15.6161 23.9835V17.4172C15.6161 17.176 15.5707 16.9801 15.2243 16.9801ZM22.9762 11.4756V22.7733H18.8549V11.4756H22.9762ZM24.2935 9.82627H17.5231C17.2303 9.82627 17.2076 10.2097 17.2076 10.6839V23.563C17.2076 24.037 17.2303 24.4206 17.5231 24.4206H24.2935C24.5862 24.4206 24.6253 24.037 24.6253 23.563V10.6839C24.6253 10.2097 24.5862 9.82627 24.2935 9.82627ZM9.55486 7.92958H7.36953C6.91391 7.92958 6.54486 7.56054 6.54486 7.10492C6.54486 6.6493 6.91391 6.28027 7.36953 6.28027H9.55486C10.0105 6.28027 10.3795 6.6493 10.3795 7.10492C10.3795 7.56054 10.0105 7.92958 9.55486 7.92958ZM15.1213 7.92958H12.9359C12.4803 7.92958 12.1113 7.56054 12.1113 7.10492C12.1113 6.6493 12.4803 6.28027 12.9359 6.28027H15.1213C15.5769 6.28027 15.9459 6.6493 15.9459 7.10492C15.9459 7.56054 15.5769 7.92958 15.1213 7.92958ZM9.55486 11.1663H7.36953C6.91391 11.1663 6.54486 10.7973 6.54486 10.3417C6.54486 9.88607 6.91391 9.51703 7.36953 9.51703H9.55486C10.0105 9.51703 10.3795 9.88607 10.3795 10.3417C10.3795 10.7973 10.0105 11.1663 9.55486 11.1663ZM15.1213 11.1663H12.9359C12.4803 11.1663 12.1113 10.7973 12.1113 10.3417C12.1113 9.88607 12.4803 9.51703 12.9359 9.51703H15.1213C15.5769 9.51703 15.9459 9.88607 15.9459 10.3417C15.9459 10.7973 15.5769 11.1663 15.1213 11.1663ZM9.55486 14.4031H7.36953C6.91391 14.4031 6.54486 14.0341 6.54486 13.5785C6.54486 13.1228 6.91391 12.7538 7.36953 12.7538H9.55486C10.0105 12.7538 10.3795 13.1228 10.3795 13.5785C10.3795 14.0341 10.0105 14.4031 9.55486 14.4031ZM15.1213 14.4031H12.9359C12.4803 14.4031 12.1113 14.0341 12.1113 13.5785C12.1113 13.1228 12.4803 12.7538 12.9359 12.7538H15.1213C15.5769 12.7538 15.9459 13.1228 15.9459 13.5785C15.9459 14.0341 15.5769 14.4031 15.1213 14.4031Z" fill="white"/>
<path d="M19.3476 14.8163H18.5291C18.0735 14.8163 17.7045 14.4473 17.7045 13.9917C17.7045 13.536 18.0735 13.167 18.5291 13.167H19.3476C19.8032 13.167 20.1723 13.536 20.1723 13.9917C20.1723 14.4473 19.8032 14.8163 19.3476 14.8163ZM19.3476 18.5066H18.4611C18.0055 18.5066 17.6365 18.1376 17.6365 17.682C17.6365 17.2263 18.0055 16.8573 18.4611 16.8573H19.3476C19.8032 16.8573 20.1723 17.2263 20.1723 17.682C20.1723 18.1376 19.8032 18.5066 19.3476 18.5066ZM19.3476 22.1969H18.5972C18.1416 22.1969 17.7725 21.8279 17.7725 21.3723C17.7725 20.9167 18.1416 20.5476 18.5972 20.5476H19.3476C19.8032 20.5476 20.1723 20.9167 20.1723 21.3723C20.1723 21.8279 19.8032 22.1969 19.3476 22.1969Z" fill="white"/>
</g>
</svg>
