<svg width="126" height="126" viewBox="0 0 126 126" fill="none" xmlns="http://www.w3.org/2000/svg">
<g clip-path="url(#clip0_203_3)">
<path d="M77.3232 22.793V102.578H23.793V22.793H77.3232ZM80.0415 15.3711H21.0747C18.4771 15.3711 16.3711 17.8667 16.3711 20.9375V104.434C16.3711 107.504 18.4771 110 21.0747 110H80.0415C82.6392 110 84.7451 107.504 84.7451 104.434V20.9375C84.7451 17.8667 82.6392 15.3711 80.0415 15.3711Z" fill="#00AAAD"/>
<path d="M62.8506 83.8379V102.485H38.2656V83.8379H62.8506ZM68.5098 76.416H32.5229C30.9644 76.416 30.8438 77.2974 30.8438 78.3828V107.931C30.8438 109.017 30.9736 109.898 32.5229 109.898H68.5098C70.0684 109.898 70.2725 109.017 70.2725 107.931V78.3828C70.2725 77.2974 70.0684 76.416 68.5098 76.416ZM103.393 51.6455V102.485H84.8472V51.6455H103.393ZM109.321 44.2236H78.854C77.5366 44.2236 77.4346 45.9492 77.4346 48.083V106.039C77.4346 108.172 77.5366 109.898 78.854 109.898H109.321C110.638 109.898 110.814 108.172 110.814 106.039V48.083C110.814 45.9492 110.638 44.2236 109.321 44.2236ZM42.9971 35.6885H33.1631C31.1128 35.6885 29.4521 34.0278 29.4521 31.9775C29.4521 29.9272 31.1128 28.2666 33.1631 28.2666H42.9971C45.0474 28.2666 46.708 29.9272 46.708 31.9775C46.708 34.0278 45.0474 35.6885 42.9971 35.6885ZM68.0459 35.6885H58.2119C56.1616 35.6885 54.501 34.0278 54.501 31.9775C54.501 29.9272 56.1616 28.2666 58.2119 28.2666H68.0459C70.0962 28.2666 71.7568 29.9272 71.7568 31.9775C71.7568 34.0278 70.0962 35.6885 68.0459 35.6885ZM42.9971 50.2539H33.1631C31.1128 50.2539 29.4521 48.5933 29.4521 46.543C29.4521 44.4927 31.1128 42.832 33.1631 42.832H42.9971C45.0474 42.832 46.708 44.4927 46.708 46.543C46.708 48.5933 45.0474 50.2539 42.9971 50.2539ZM68.0459 50.2539H58.2119C56.1616 50.2539 54.501 48.5933 54.501 46.543C54.501 44.4927 56.1616 42.832 58.2119 42.832H68.0459C70.0962 42.832 71.7568 44.4927 71.7568 46.543C71.7568 48.5933 70.0962 50.2539 68.0459 50.2539ZM42.9971 64.8193H33.1631C31.1128 64.8193 29.4521 63.1587 29.4521 61.1084C29.4521 59.0581 31.1128 57.3975 33.1631 57.3975H42.9971C45.0474 57.3975 46.708 59.0581 46.708 61.1084C46.708 63.1587 45.0474 64.8193 42.9971 64.8193ZM68.0459 64.8193H58.2119C56.1616 64.8193 54.501 63.1587 54.501 61.1084C54.501 59.0581 56.1616 57.3975 58.2119 57.3975H68.0459C70.0962 57.3975 71.7568 59.0581 71.7568 61.1084C71.7568 63.1587 70.0962 64.8193 68.0459 64.8193Z" fill="#00AAAD"/>
<path d="M87.0645 66.6748H83.3813C81.3311 66.6748 79.6704 65.0142 79.6704 62.9639C79.6704 60.9136 81.3311 59.2529 83.3813 59.2529H87.0645C89.1147 59.2529 90.7754 60.9136 90.7754 62.9639C90.7754 65.0142 89.1147 66.6748 87.0645 66.6748ZM87.0645 83.2812H83.0752C81.0249 83.2812 79.3643 81.6206 79.3643 79.5703C79.3643 77.52 81.0249 75.8594 83.0752 75.8594H87.0645C89.1147 75.8594 90.7754 77.52 90.7754 79.5703C90.7754 81.6206 89.1147 83.2812 87.0645 83.2812ZM87.0645 99.8877H83.6875C81.6372 99.8877 79.9766 98.2271 79.9766 96.1768C79.9766 94.1265 81.6372 92.4658 83.6875 92.4658H87.0645C89.1147 92.4658 90.7754 94.1265 90.7754 96.1768C90.7754 98.2271 89.1147 99.8877 87.0645 99.8877Z" fill="#00AAAD"/>
</g>
<defs>
<clipPath id="clip0_203_3">
<rect width="95" height="95" fill="white" transform="translate(16 15)"/>
</clipPath>
</defs>
</svg>
