<svg width="36" height="36" viewBox="0 0 36 36" fill="none" xmlns="http://www.w3.org/2000/svg">
<path fill-rule="evenodd" clip-rule="evenodd" d="M32.7312 18.0294C32.7312 26.1692 26.1326 32.7678 17.9928 32.7678C9.853 32.7678 3.25439 26.1692 3.25439 18.0294C3.25439 9.88962 9.853 3.29102 17.9928 3.29102C26.1326 3.29102 32.7312 9.88962 32.7312 18.0294ZM31.0824 17.8123C31.0824 25.0414 25.222 30.9019 17.9928 30.9019C10.7636 30.9019 4.9032 25.0414 4.9032 17.8123C4.9032 10.5831 10.7636 4.72266 17.9928 4.72266C25.222 4.72266 31.0824 10.5831 31.0824 17.8123Z" fill="#008080"/>
<path d="M17.9928 33.2678C26.4087 33.2678 33.2312 26.4454 33.2312 18.0294H32.2312C32.2312 25.8931 25.8564 32.2678 17.9928 32.2678V33.2678ZM2.75439 18.0294C2.75439 26.4454 9.57686 33.2678 17.9928 33.2678V32.2678C10.1291 32.2678 3.75439 25.8931 3.75439 18.0294H2.75439ZM17.9928 2.79102C9.57686 2.79102 2.75439 9.61348 2.75439 18.0294H3.75439C3.75439 10.1658 10.1291 3.79102 17.9928 3.79102V2.79102ZM33.2312 18.0294C33.2312 9.61348 26.4087 2.79102 17.9928 2.79102V3.79102C25.8564 3.79102 32.2312 10.1658 32.2312 18.0294H33.2312ZM17.9928 31.4019C25.4981 31.4019 31.5824 25.3176 31.5824 17.8123H30.5824C30.5824 24.7653 24.9458 30.4019 17.9928 30.4019V31.4019ZM4.4032 17.8123C4.4032 25.3176 10.4875 31.4019 17.9928 31.4019V30.4019C11.0398 30.4019 5.4032 24.7653 5.4032 17.8123H4.4032ZM17.9928 4.22266C10.4875 4.22266 4.4032 10.3069 4.4032 17.8123H5.4032C5.4032 10.8592 11.0398 5.22266 17.9928 5.22266V4.22266ZM31.5824 17.8123C31.5824 10.3069 25.4981 4.22266 17.9928 4.22266V5.22266C24.9458 5.22266 30.5824 10.8592 30.5824 17.8123H31.5824Z" fill="#008080"/>
<path d="M10.692 20.0887C11.9445 20.0887 12.96 19.0733 12.96 17.8207C12.96 16.5682 11.9445 15.5527 10.692 15.5527C9.43937 15.5527 8.42395 16.5682 8.42395 17.8207C8.42395 19.0733 9.43937 20.0887 10.692 20.0887Z" fill="#008080"/>
<path d="M18.0359 20.3036C19.2885 20.3036 20.3039 19.2882 20.3039 18.0356C20.3039 16.783 19.2885 15.7676 18.0359 15.7676C16.7834 15.7676 15.7679 16.783 15.7679 18.0356C15.7679 19.2882 16.7834 20.3036 18.0359 20.3036Z" fill="#008080"/>
<path d="M25.308 20.2313C26.5606 20.2313 27.576 19.2159 27.576 17.9633C27.576 16.7107 26.5606 15.6953 25.308 15.6953C24.0555 15.6953 23.04 16.7107 23.04 17.9633C23.04 19.2159 24.0555 20.2313 25.308 20.2313Z" fill="#008080"/>
</svg>
