<svg id="Layer_1" data-name="Layer 1" xmlns="http://www.w3.org/2000/svg" viewBox="0 0 122.88 86.11"><title>internship</title><path d="M5.3,11.83H29.2V3.75A3.76,3.76,0,0,1,32.94,0H60.31a3.78,3.78,0,0,1,3.75,3.75v8.08H88a5.34,5.34,0,0,1,5.3,5.3v2.48A119.42,119.42,0,0,1,74.37,30.33,104,104,0,0,1,54.49,37V31.68a4,4,0,0,0-4.06-4.06H42.82a4.06,4.06,0,0,0-4.06,4.06v5.15a104.53,104.53,0,0,1-19.37-6.5A119.54,119.54,0,0,1,0,19.26V17.13a5.32,5.32,0,0,1,5.3-5.3Zm108.15,67-.28-10.13L96.52,73.49a21,21,0,0,1-9,0L71.58,68.63V78.9c.46,5.34,15.77,7,20.47,7.2,3.77.18,18.65-1.78,20.6-4.85a5.63,5.63,0,0,0,.8-2.44Zm6.75-17.43V73.76h.39a.49.49,0,0,1,.48.49v3.33a.49.49,0,0,1-.48.48h-.39v1.17a1.08,1.08,0,0,1,.87,1.06h0A1.08,1.08,0,0,1,120,81.36h-1.93A1.08,1.08,0,0,1,117,80.29h0a1.08,1.08,0,0,1,.88-1.06V78.06h-.39a.49.49,0,0,1-.49-.48V74.25a.49.49,0,0,1,.49-.49h.39V62.1L97.61,68.41a22.79,22.79,0,0,1-11,0L64.23,61.73l-2-.6c-2.52-1-1.89-3.45.46-4L88,49.57a12.92,12.92,0,0,1,7.83,0L120.64,57c2.69.66,3.23,3.16.09,4.19l-.53.16ZM50.07,32.06H43.18a.38.38,0,0,0-.39.39V47a.44.44,0,0,0,.11.28.38.38,0,0,0,.28.11h6.89a.44.44,0,0,0,.28-.11.36.36,0,0,0,.12-.28V32.45a.39.39,0,0,0-.4-.39ZM57.46,5.12H35.81a.47.47,0,0,0-.47.46v6.1H57.92V5.58a.47.47,0,0,0-.47-.46Zm35.8,22.69V43.64c-.48,0-1,0-1.43,0a20.1,20.1,0,0,0-5.34.79L61.24,51.93a8.33,8.33,0,0,0-4.33,2.68v0a7.15,7.15,0,0,0-1.66,3.82,6.8,6.8,0,0,0,1,4.41,7.83,7.83,0,0,0,3.3,2.94,5.33,5.33,0,0,0,1.12.48L66.26,68l0,.68h0v3.6H5.3A5.31,5.31,0,0,1,0,66.94V27.49A123.26,123.26,0,0,0,15.79,36a112.17,112.17,0,0,0,22.82,7.44l.15,0v4.25a4.06,4.06,0,0,0,4.06,4.07h7.61a4,4,0,0,0,4.06-4.07v-4.2l.66-.08A112.08,112.08,0,0,0,78,36a123.46,123.46,0,0,0,15.3-8.21Z"/></svg>