<svg width="28" height="28" viewBox="0 0 28 28" fill="none" xmlns="http://www.w3.org/2000/svg">
<path d="M3.94891 8.19812H8.22788V6.69678C8.22835 6.51246 8.29899 6.33579 8.42441 6.20528C8.54983 6.07476 8.71987 6.00098 8.89748 6H13.7977C13.9753 6.00146 14.1453 6.07534 14.2709 6.20569C14.3965 6.33605 14.4677 6.51244 14.4691 6.69678V8.19812H18.7552C19.0063 8.20006 19.2466 8.30444 19.4241 8.48871C19.6017 8.67297 19.7022 8.92232 19.7041 9.18291V9.64371C18.6351 10.4133 17.5007 11.08 16.315 11.6356C15.1718 12.1721 13.9793 12.5873 12.7557 12.8749V11.8864C12.7572 11.7869 12.7393 11.6882 12.7033 11.596C12.6673 11.5038 12.6138 11.42 12.546 11.3496C12.4783 11.2793 12.3975 11.2238 12.3087 11.1864C12.2199 11.149 12.1247 11.1305 12.0288 11.132H10.6664C10.4736 11.132 10.2887 11.2115 10.1524 11.353C10.0161 11.4945 9.93947 11.6863 9.93947 11.8864V12.8433C8.74826 12.5592 7.58674 12.1547 6.47153 11.6356C5.25506 11.0639 4.09282 10.3752 3.00002 9.57868V9.18291C3.00096 8.92203 3.10123 8.67211 3.27898 8.48764C3.45673 8.30317 3.69754 8.1991 3.94891 8.19812ZM23.3117 20.6473L23.2616 18.7651L20.2806 19.6551C19.7498 19.7759 19.2001 19.7759 18.6693 19.6551L15.8154 18.7521V20.6603C15.8978 21.6525 18.6388 21.961 19.4803 21.9981C20.1553 22.0316 22.8194 21.6674 23.1685 21.097C23.2492 20.9593 23.2982 20.8042 23.3117 20.6436V20.6473ZM24.5202 17.4087V19.7053H24.59C24.613 19.7057 24.6348 19.7156 24.6509 19.7326C24.667 19.7496 24.676 19.7725 24.676 19.7963V20.4151C24.6755 20.4386 24.6663 20.461 24.6503 20.4776C24.6343 20.4942 24.6127 20.5038 24.59 20.5042H24.5202V20.7216C24.5641 20.7307 24.6037 20.7552 24.6321 20.7912C24.6605 20.8271 24.676 20.8721 24.676 20.9186C24.6755 20.9712 24.6552 21.0215 24.6193 21.0586C24.5835 21.0958 24.5351 21.1169 24.4844 21.1174H24.1388C24.0882 21.1169 24.0397 21.0958 24.0039 21.0586C23.9681 21.0215 23.9477 20.9712 23.9473 20.9186C23.9473 20.8719 23.9631 20.8266 23.9919 20.7907C24.0206 20.7547 24.0606 20.7303 24.1048 20.7216V20.5042H24.035C24.012 20.5042 23.99 20.4949 23.9736 20.4782C23.9572 20.4616 23.9477 20.4389 23.9473 20.4151V19.7963C23.9473 19.7722 23.9565 19.749 23.973 19.7319C23.9894 19.7149 24.0117 19.7053 24.035 19.7053H24.1048V17.5387L20.4758 18.7112C19.8291 18.8781 19.153 18.8781 18.5064 18.7112L14.4995 17.47L14.1415 17.3585C13.6903 17.1727 13.8031 16.7175 14.2238 16.6153L18.7552 15.2105C19.2113 15.0601 19.701 15.0601 20.1571 15.2105L24.599 16.5911C25.0806 16.7137 25.1773 17.1783 24.6151 17.3696L24.5202 17.3994V17.4087ZM11.9644 11.957H10.7308C10.7216 11.9568 10.7124 11.9585 10.7038 11.962C10.6952 11.9656 10.6874 11.9709 10.6809 11.9777C10.6744 11.9845 10.6692 11.9926 10.6658 12.0015C10.6624 12.0104 10.6607 12.0199 10.661 12.0295V14.733C10.6615 14.7522 10.6684 14.7706 10.6807 14.785C10.6873 14.7918 10.6951 14.7971 10.7037 14.8006C10.7123 14.8041 10.7216 14.8058 10.7308 14.8055H11.9644C11.9829 14.805 12.0006 14.7978 12.0145 14.785C12.0215 14.7785 12.0271 14.7705 12.0308 14.7615C12.0345 14.7525 12.0363 14.7428 12.036 14.733V12.0295C12.036 12.0198 12.0341 12.0102 12.0305 12.0013C12.0269 11.9924 12.0216 11.9843 12.0149 11.9776C12.0082 11.9708 12.0003 11.9655 11.9916 11.962C11.983 11.9585 11.9737 11.9568 11.9644 11.957ZM13.2874 6.95134H9.41131C9.3893 6.95134 9.36816 6.96028 9.35243 6.97626C9.3367 6.99224 9.32763 7.01398 9.32716 7.03681V8.17025H13.3698V7.03681C13.3693 7.01398 13.3603 6.99224 13.3445 6.97626C13.3288 6.96028 13.3077 6.95134 13.2857 6.95134H13.2874ZM19.697 11.1673V14.1087C19.611 14.1087 19.5179 14.1087 19.4409 14.1087C19.1173 14.1128 18.7958 14.1622 18.4849 14.2555L13.9642 15.6491C13.662 15.727 13.391 15.9011 13.189 16.147C13.0242 16.3478 12.9208 16.5948 12.8918 16.8568C12.8596 17.1431 12.9228 17.4323 13.0708 17.6762C13.2131 17.9134 13.4182 18.1031 13.6616 18.2225C13.725 18.2601 13.7923 18.29 13.8622 18.3117L14.863 18.635V18.7614V19.4303H3.94891C3.82376 19.43 3.69989 19.4041 3.5844 19.3541C3.46892 19.3041 3.36409 19.2308 3.27593 19.1387C3.18777 19.0465 3.11801 18.9371 3.07066 18.8169C3.02332 18.6967 2.99931 18.5679 3.00002 18.438V11.1079C3.90409 11.7055 4.84892 12.234 5.827 12.6891C7.13731 13.3003 8.50702 13.7637 9.91261 14.0715H9.93947V14.8612C9.93923 14.9604 9.95786 15.0587 9.99428 15.1505C10.0307 15.2422 10.0842 15.3256 10.1517 15.3959C10.2193 15.4661 10.2995 15.5218 10.3878 15.5599C10.4761 15.5979 10.5707 15.6175 10.6664 15.6175H12.0288C12.1248 15.619 12.2202 15.6004 12.3091 15.5629C12.3981 15.5254 12.4789 15.4698 12.5467 15.3992C12.6145 15.3287 12.668 15.2447 12.7039 15.1523C12.7398 15.0598 12.7574 14.9609 12.7557 14.8612V14.0808L12.8739 14.066C14.2811 13.7604 15.6527 13.2988 16.9649 12.6891C17.9113 12.248 18.8267 11.7382 19.7041 11.1636L19.697 11.1673Z" fill="white"/>
</svg>
