<svg width="16" height="18" viewBox="0 0 16 18" fill="none" xmlns="http://www.w3.org/2000/svg">
<path d="M15.0542 5.88293C14.1509 1.82634 10.6842 0 7.63893 0C7.63893 0 7.63893 0 7.63033 0C4.59366 0 1.11829 1.81756 0.215041 5.87415C-0.791439 10.4049 1.92692 14.242 4.3872 16.6566C5.29905 17.5522 6.46901 18 7.63893 18C8.80886 18 9.97878 17.5522 10.882 16.6566C13.3423 14.242 16.0607 10.4137 15.0542 5.88293ZM7.63893 10.282C6.14211 10.282 4.92915 9.0439 4.92915 7.5161C4.92915 5.98829 6.14211 4.75024 7.63893 4.75024C9.13575 4.75024 10.3487 5.98829 10.3487 7.5161C10.3487 9.0439 9.13575 10.282 7.63893 10.282Z" fill="#292D32"/>
</svg>
