<?xml version="1.0" encoding="UTF-8" standalone="no"?><!DOCTYPE svg PUBLIC "-//W3C//DTD SVG 1.1//EN" "http://www.w3.org/Graphics/SVG/1.1/DTD/svg11.dtd"><svg width="100%" height="100%" viewBox="0 0 2054 462" version="1.1" xmlns="http://www.w3.org/2000/svg" xmlns:xlink="http://www.w3.org/1999/xlink" xml:space="preserve" xmlns:serif="http://www.serif.com/" style="fill-rule:evenodd;clip-rule:evenodd;stroke-linejoin:round;stroke-miterlimit:2;"><path d="M534.021,115.5l-5.142,-0l0,26.112c0,7.334 -2.604,12.063 -8.296,15.146c-2.875,1.509 -6.166,2.329 -9.525,2.329c-9.937,0 -17.27,-6.579 -17.27,-15.554l-0,-28.033l-5.142,-0l-0,-2.538l16.312,0l0,2.538l-5.137,-0l-0,25.908c-0,8.292 4.862,13.704 12.471,13.704c7.812,0 13.091,-5.55 13.091,-13.775l0,-25.837l-5.141,-0l-0,-2.538l13.779,0l-0,2.538Z" style="fill:#00427a;fill-rule:nonzero;"/><path d="M586.225,158.954l-2.125,0l-26.317,-36.191l0,32.9l5.209,-0l-0,2.537l-13.846,-0l-0,-2.537l5.208,-0l0,-37.559l-1.85,-2.604l-4.729,-0l0,-2.538l9.937,0l25.088,34.405l-0,-31.867l-5.208,-0l-0,-2.538l13.775,0l-0,2.538l-5.142,-0l0,43.454Z" style="fill:#00427a;fill-rule:nonzero;"/><path d="M622.596,158.2l-16.317,-0l0,-2.537l5.146,-0l0,-40.163l-5.146,-0l0,-2.538l16.317,0l-0,2.538l-5.142,-0l0,40.163l5.142,-0l-0,2.537Z" style="fill:#00427a;fill-rule:nonzero;"/><path d="M658.225,159.363l-2.329,-0l-17.275,-43.863l-4.046,-0l0,-2.538l17,0l-0,2.538l-6.446,-0l13.3,33.65l13.163,-33.65l-4.525,-0l-0,-2.538l11.72,0l0,2.538l-3.429,-0l-17.133,43.863Z" style="fill:#00427a;fill-rule:nonzero;"/><path d="M721.942,158.2l-31.188,-0l0,-2.537l5.142,-0l-0,-40.163l-5.142,-0l0,-2.538l27.35,0l0,-1.92l3.154,-0l0,10.895l-3.087,0l-0,-5.824l-16.242,-0l0,17.545l12.95,0l0,-5.137l3.158,-0.071l0,13.504l-3.158,0.067l0,-5.275l-12.95,-0l0,18.366l16.859,0l-0,-6.029l3.154,0l-0,9.117Z" style="fill:#00427a;fill-rule:nonzero;"/><path d="M748.583,134.758l6.584,0c5.208,0 8.837,-3.837 8.837,-9.458c0,-5.896 -3.216,-9.187 -8.975,-9.187l-6.446,-0l0,18.645Zm28.446,23.442l-5.829,-0c-4.042,-0 -4.792,-0.413 -7.058,-4.046l-10.213,-16.242l-5.346,0l0,17.751l5.142,-0l-0,2.537l-16.312,-0l-0,-2.537l5.141,-0l0,-40.163l-5.141,-0l-0,-2.538l19.054,0c6.65,0 10.42,1.85 12.475,6.101c0.887,1.849 1.366,3.908 1.366,6.1c0,6.65 -3.696,10.899 -10.279,11.858l9.875,15.212c1.642,2.538 2.738,3.359 4.454,3.359l2.671,-0l0,2.608Z" style="fill:#00427a;fill-rule:nonzero;"/><path d="M793.667,158.812l-3.225,0l-0,-12.337l3.225,-0l-0,5.421c4.175,2.808 6.025,3.491 9.041,3.491c5.488,0 9.188,-2.879 9.188,-7.195c-0,-3.909 -2.675,-6.784 -10.075,-10.625c-8.638,-4.521 -11.584,-7.95 -11.584,-13.571c0,-6.784 5.755,-11.859 13.505,-11.859c3.421,0 5.958,0.617 8.154,1.921l-0,-2.466l3.154,-0l-0,11.716l-3.154,0l-0,-4.866c-3.496,-2.329 -5.209,-3.013 -7.954,-3.013c-4.663,0 -7.671,2.808 -7.671,7.063c-0,3.495 1.983,5.479 10.55,10.412c8.567,4.938 11.037,7.95 11.037,13.571c0,7.133 -5.891,12.612 -13.641,12.612c-4.317,0 -7.129,-0.887 -10.55,-3.083l-0,2.808Z" style="fill:#00427a;fill-rule:nonzero;"/><path d="M850.742,158.2l-16.317,-0l0,-2.537l5.142,-0l-0,-40.163l-5.142,-0l0,-2.538l16.317,0l-0,2.538l-5.142,-0l-0,40.163l5.142,-0l-0,2.537Z" style="fill:#00427a;fill-rule:nonzero;"/><path d="M877.938,154.771l8.225,-0c9.387,-0 16.516,-8.296 16.445,-19.192c0,-10.554 -7.262,-19.121 -16.308,-19.121l-8.362,0l-0,38.313Zm-11.176,3.429l0,-2.537l5.142,-0l0,-40.163l-5.142,-0l0,-2.538l20.221,0c12.338,0 22.413,10.142 22.413,22.551c-0,12.679 -9.871,22.687 -22.484,22.687l-20.15,-0Z" style="fill:#00427a;fill-rule:nonzero;"/><path d="M949.058,140.038l-7.333,-19.263l-7.746,19.263l15.079,-0Zm16.109,18.162l-15.63,-0l0,-2.537l5.484,-0l-4.796,-12.338l-17.546,-0.067l-5.004,12.334l5.688,-0l-0,2.608l-13.092,-0l-0,-2.608l3.562,-0l17.825,-44.067l2.467,-0l17.133,44.067l3.909,-0l-0,2.608Z" style="fill:#00427a;fill-rule:nonzero;"/><path d="M989.683,154.771l8.225,-0c9.392,-0 16.517,-8.296 16.45,-19.192c0,-10.554 -7.262,-19.121 -16.312,-19.121l-8.363,0l0,38.313Zm-11.175,3.429l0,-2.537l5.142,-0l0,-40.163l-5.142,-0l0,-2.538l20.225,0c12.338,0 22.413,10.142 22.413,22.551c-0,12.679 -9.871,22.687 -22.483,22.687l-20.155,-0Z" style="fill:#00427a;fill-rule:nonzero;"/><path d="M499.629,340.033l7.675,0c5.758,0 9.254,-3.429 9.254,-9.05c0,-5.691 -3.904,-9.8 -9.254,-9.8l-7.675,0l0,18.85Zm0,-21.933l6.992,-0c4.454,-0 7.608,-3.633 7.608,-8.708c0,-4.796 -2.946,-8.359 -6.992,-8.359l-7.608,0l0,17.067Zm-11.175,25.017l0,-2.538l5.142,0l-0,-40.162l-5.142,-0l0,-2.538l20.838,0c6.237,0 11.312,5 11.312,11.238c0,5.141 -4.525,9.67 -10.075,10.15c2.809,0.337 3.838,0.612 5.55,1.437c4.25,1.983 6.717,5.958 6.717,10.621c-0,6.717 -5.209,11.792 -12.2,11.792l-22.142,-0Z" style="fill:#00427a;fill-rule:nonzero;"/><path d="M558.342,320.496c-0,11.583 6.441,19.946 15.35,19.946c8.775,-0 15.15,-8.43 15.15,-19.946c-0,-11.513 -6.375,-19.875 -15.079,-19.875c-8.98,-0 -15.421,8.225 -15.421,19.875Zm-6.784,0.071c0,-12.888 10.004,-23.513 22.134,-23.513c11.929,0 21.933,10.692 21.933,23.442c-0,12.75 -10.004,23.512 -21.933,23.512c-12.059,0 -22.134,-10.691 -22.134,-23.441Z" style="fill:#00427a;fill-rule:nonzero;"/><path d="M655.571,343.117l-31.188,-0l0,-2.538l5.142,0l-0,-40.162l-5.142,-0l0,-2.538l16.317,0l0,2.538l-5.142,-0l0,39.616l16.859,0l-0,-6.033l3.154,-0l-0,9.117Z" style="fill:#00427a;fill-rule:nonzero;"/><path d="M697.838,343.117l-16.317,-0l-0,-2.538l5.141,0l0,-40.162l-5.141,-0l-0,-2.538l16.317,0l-0,2.538l-5.142,-0l-0,40.162l5.142,0l-0,2.538Z" style="fill:#00427a;fill-rule:nonzero;"/><path d="M747.371,344.283l-2.329,0l-17.275,-43.866l-4.042,-0l0,-2.538l17,0l0,2.538l-6.446,-0l13.3,33.65l13.158,-33.65l-4.525,-0l0,-2.538l11.721,0l0,2.538l-3.425,-0l-17.137,43.866Z" style="fill:#00427a;fill-rule:nonzero;"/><path d="M810.129,343.117l-16.317,-0l0,-2.538l5.142,0l0,-40.162l-5.142,-0l0,-2.538l16.317,0l0,2.538l-5.141,-0l-0,40.162l5.141,0l0,2.538Z" style="fill:#00427a;fill-rule:nonzero;"/><path d="M864.804,324.954l-7.333,-19.262l-7.746,19.262l15.079,0Zm16.108,18.163l-15.629,-0l0,-2.538l5.484,0l-4.796,-12.337l-17.546,-0.067l-5.004,12.337l5.687,0l0,2.605l-13.091,-0l-0,-2.605l3.562,0l17.825,-44.07l2.467,-0l17.133,44.07l3.908,0l0,2.605Z" style="fill:#00427a;fill-rule:nonzero;"/><path d="M945.45,343.871l-2.121,-0l-26.321,-36.192l0,32.9l5.205,0l-0,2.538l-13.842,-0l-0,-2.538l5.208,0l0,-37.558l-1.85,-2.604l-4.729,-0l0,-2.538l9.937,0l25.088,34.404l-0,-31.866l-5.208,-0l-0,-2.538l13.775,0l-0,2.538l-5.142,-0l0,43.454Z" style="fill:#00427a;fill-rule:nonzero;"/><path d="M1004.16,324.954l-7.333,-19.262l-7.746,19.262l15.079,0Zm16.109,18.163l-15.625,-0l-0,-2.538l5.479,0l-4.796,-12.337l-17.546,-0.067l-5.004,12.337l5.688,0l-0,2.605l-13.092,-0l-0,-2.605l3.566,0l17.821,-44.07l2.467,-0l17.137,44.07l3.905,0l-0,2.605Z" style="fill:#00427a;fill-rule:nonzero;"/><rect x="413.813" y="112.896" width="3.458" height="230.238" style="fill:#00427a;fill-rule:nonzero;"/><rect x="1091.64" y="112.896" width="3.458" height="230.238" style="fill:#00427a;fill-rule:nonzero;"/><path d="M547.675,260.146c-9.058,3.304 -14.708,4.475 -22.804,4.475c-22.484,-0 -38.467,-15.129 -38.467,-36.334c0,-20.991 15.983,-36.658 37.4,-36.658c6.929,0 11.725,0.963 17.9,3.625l0,-4.475l5.863,0l-0,19.075l-5.863,0l0,-6.821c-6.071,-4.262 -9.479,-5.433 -15.129,-5.433c-14.808,-0 -25.146,12.358 -25.146,30.046c0,17.266 11.404,30.687 26.104,30.687c5.329,0 9.167,-1.171 14.171,-4.258l0,-8.1l5.971,-0l0,14.171Z" style="fill:#00427a;fill-rule:nonzero;"/><path d="M599.9,235l-10.125,-26.638l-10.763,26.638l20.888,-0Zm27.596,28.237l-26,0l-0,-4.475l7.458,0l-6.604,-17.262l-25.896,-0l-6.925,17.262l8.525,0l0,4.475l-22.058,0l-0,-4.475l6.604,0l27.496,-68.091l6.5,-0l26.425,68.091l4.475,0l-0,4.475Z" style="fill:#00427a;fill-rule:nonzero;"/><path d="M672.258,263.237l-34.308,0l0,-4.475l10.333,0l0,-59.566l-18.433,-0l0,8.841l-5.862,0l-0,-18.112l5.862,-0l0,2.983l50.513,0l-0,-2.983l5.854,-0l-0,18.112l-5.854,0l-0,-8.841l-18.334,-0l0,59.566l10.229,0l0,4.475Z" style="fill:#00427a;fill-rule:nonzero;"/><path d="M724.483,190.033l-7.454,0l12.679,-17.154l11.721,0l-16.946,17.154Zm5.225,68.517c10.763,-0 20.242,-14.279 20.242,-30.479c-0,-16.088 -9.479,-30.363 -20.242,-30.363c-10.658,0 -20.141,14.275 -20.141,30.363c-0,16.2 9.483,30.479 20.141,30.479Zm0,6.071c-19.608,-0 -35.166,-16.196 -35.166,-36.55c-0,-20.35 15.558,-36.442 35.166,-36.442c19.604,0 35.267,16.092 35.267,36.442c-0,20.354 -15.663,36.55 -35.267,36.55Z" style="fill:#00427a;fill-rule:nonzero;"/><path d="M827.858,263.237l-50.295,0l-0,-4.475l8.095,0l0,-61.379l-8.095,0l-0,-4.475l29.833,0l-0,4.475l-7.992,0l0,59.567l22.7,-0l0,-7.883l5.754,-0l0,14.17Z" style="fill:#00427a;fill-rule:nonzero;"/><path d="M866.546,263.237l-29.834,0l0,-4.475l8.096,0l0,-61.379l-8.096,0l0,-4.475l29.834,0l-0,4.475l-7.992,0l0,61.379l7.992,0l-0,4.475Z" style="fill:#00427a;fill-rule:nonzero;"/><path d="M940.183,260.146c-9.058,3.304 -14.708,4.475 -22.804,4.475c-22.483,-0 -38.466,-15.129 -38.466,-36.334c-0,-20.991 15.983,-36.658 37.399,-36.658c6.93,0 11.725,0.963 17.905,3.625l-0,-4.475l5.858,0l-0,19.075l-5.858,0l-0,-6.821c-6.075,-4.262 -9.484,-5.433 -15.134,-5.433c-14.808,-0 -25.146,12.358 -25.146,30.046c0,17.266 11.405,30.687 26.105,30.687c5.329,0 9.166,-1.171 14.175,-4.258l-0,-8.1l5.966,-0l0,14.171Z" style="fill:#00427a;fill-rule:nonzero;"/><path d="M992.408,235l-10.125,-26.638l-10.762,26.638l20.887,-0Zm27.596,28.237l-26,0l0,-4.475l7.458,0l-6.604,-17.262l-25.895,-0l-6.926,17.262l8.526,0l-0,4.475l-22.059,0l0,-4.475l6.604,0l27.496,-68.091l6.5,-0l26.425,68.091l4.475,0l0,4.475Z" style="fill:#00427a;fill-rule:nonzero;"/><path d="M256.592,94.875c-23.613,-31.892 -53.792,-49.45 -84.975,-49.45c-31.188,-0 -61.367,17.558 -84.98,49.45c-26.462,35.733 -41.033,83.921 -41.033,135.692c0,51.762 14.571,99.954 41.033,135.687c23.613,31.892 53.792,49.45 84.98,49.45c31.183,0 61.362,-17.558 84.975,-49.45c26.466,-35.733 41.037,-83.925 41.037,-135.687c0,-51.767 -14.571,-99.959 -41.037,-135.692Z" style="fill:#fff;fill-rule:nonzero;"/><path d="M257.267,367.171c-23.938,32.325 -54.596,50.129 -86.325,50.129c-31.73,-0 -62.392,-17.804 -86.33,-50.129c-26.67,-36.021 -41.362,-84.563 -41.362,-136.688c-0,-52.121 14.692,-100.666 41.362,-136.687c23.938,-32.321 54.6,-50.125 86.33,-50.125c31.729,-0 62.387,17.804 86.325,50.125c26.675,36.021 41.362,84.566 41.362,136.687c0,52.125 -14.687,100.667 -41.362,136.688Zm-21.263,-344.03c-20.404,-11.649 -42.067,-17.558 -64.387,-17.558c-22.325,0 -43.988,5.909 -64.388,17.558c-19.771,11.292 -37.533,27.471 -52.8,48.088c-15.304,20.662 -27.325,44.742 -35.721,71.558c-8.708,27.8 -13.121,57.33 -13.121,87.78c0,30.445 4.413,59.975 13.121,87.775c8.396,26.812 20.417,50.895 35.721,71.558c15.267,20.621 33.029,36.796 52.8,48.087c20.4,11.655 42.063,17.559 64.388,17.559c22.32,-0 43.983,-5.904 64.387,-17.559c19.767,-11.291 37.529,-27.466 52.8,-48.087c15.304,-20.663 27.321,-44.746 35.721,-71.558c8.708,-27.8 13.121,-57.33 13.121,-87.775c-0,-30.45 -4.413,-59.98 -13.121,-87.78c-8.4,-26.816 -20.417,-50.896 -35.721,-71.558c-15.271,-20.617 -33.033,-36.796 -52.8,-48.088Z" style="fill:#ffcb03;fill-rule:nonzero;"/><path d="M170.942,47.021c-30.642,-0 -60.346,17.32 -83.638,48.771c-26.246,35.446 -40.7,83.283 -40.7,134.691c0,51.413 14.454,99.246 40.7,134.692c23.292,31.454 52.996,48.771 83.638,48.771c30.641,-0 60.341,-17.317 83.629,-48.771c26.254,-35.446 40.708,-83.279 40.708,-134.692c0,-51.412 -14.454,-99.245 -40.708,-134.691c-23.288,-31.451 -52.988,-48.771 -83.629,-48.771Zm-0,370.279c-31.73,-0 -62.392,-17.8 -86.33,-50.129c-26.67,-36.021 -41.362,-84.563 -41.362,-136.688c-0,-52.121 14.692,-100.662 41.362,-136.687c23.938,-32.321 54.6,-50.125 86.33,-50.125c31.729,-0 62.387,17.804 86.325,50.125c26.675,36.021 41.362,84.566 41.362,136.687c0,52.125 -14.687,100.667 -41.362,136.688c-23.938,32.329 -54.596,50.129 -86.325,50.129Z" style="fill:#00427a;fill-rule:nonzero;"/><path d="M32.692,287.379c5.029,-1.208 8.195,1.175 9.391,6.15c1.2,5.008 -0.521,8.508 -5.579,9.721l-11.575,2.783l-0.983,-4.096l11.575,-2.775c2.033,-0.491 3.912,-1.491 3.121,-4.804c-0.705,-2.921 -2.209,-3.554 -4.971,-2.887l-11.571,2.779l-0.983,-4.092l11.575,-2.779Z" style="fill:#00427a;fill-rule:nonzero;"/><path d="M20,284.512l-0.65,-4.129l11.437,-9.896l-0.004,-0.054l-12.687,2.004l-0.617,-3.895l18.909,-2.984l0.658,4.159l-11.417,9.862l0.013,0.054l12.654,-2l0.616,3.892l-18.912,2.987Z" style="fill:#00427a;fill-rule:nonzero;"/><path d="M16.942,263.108l-0.434,-4.183l19.042,-1.958l0.433,4.187l-19.041,1.954Z" style="fill:#00427a;fill-rule:nonzero;"/><path d="M34.608,243.642l0.263,4.741l-18.779,7.259l-0.234,-4.342l13.209,-4.992l-0.009,-0.05l-13.675,-3.575l-0.233,-4.337l19.458,5.296Z" style="fill:#00427a;fill-rule:nonzero;"/><path d="M15.129,234.821l0.117,-14.313l3.541,0.029l-0.083,10.105l4.1,0.033l0.075,-9.275l3.271,0.029l-0.075,9.271l4.687,0.042l0.088,-10.321l3.537,0.029l-0.116,14.529l-19.142,-0.158Z" style="fill:#00427a;fill-rule:nonzero;"/><path d="M24.396,211.946l0.346,-4.596c0.145,-1.871 -0.58,-2.95 -2.505,-3.096c-1.845,-0.137 -2.725,0.813 -2.866,2.683l-0.346,4.6l5.371,0.409Zm-8.954,3.537l0.783,-10.291c0.258,-3.421 2.804,-5.4 5.692,-5.184c2.241,0.171 3.858,1.209 4.554,3.384l0.054,0.004c0.692,-2.017 2.737,-2.454 4.671,-2.438c1.212,0.009 3.458,0.209 4.583,-0.458l-0.321,4.196c-1.241,0.416 -3.083,0.221 -4.62,0.321c-2.03,0.137 -2.967,0.845 -3.134,2.962l-0.317,4.196l7.459,0.567l-0.317,4.195l-19.087,-1.454Z" style="fill:#00427a;fill-rule:nonzero;"/><path d="M30.358,193.242c2.521,0.37 3.788,-1.446 4.117,-3.675c0.212,-1.459 0.117,-3.75 -1.821,-4.034c-2.037,-0.3 -2.804,2.488 -3.954,5.163c-1.158,2.704 -2.662,5.379 -6.217,4.858c-3.866,-0.571 -5.191,-4.5 -4.687,-7.925c0.583,-3.95 2.841,-7.329 7.216,-6.687l-0.591,4.033c-2.3,-0.204 -3.121,1.329 -3.413,3.317c-0.196,1.325 0.134,2.945 1.725,3.183c1.459,0.212 1.779,-0.663 3.696,-5.229c0.546,-1.329 2.046,-5.446 6.342,-4.817c3.475,0.513 5.671,3.629 4.916,8.775c-0.616,4.192 -3.262,7.808 -7.92,7.071l0.591,-4.033Z" style="fill:#00427a;fill-rule:nonzero;"/><path d="M20.321,175.35l0.825,-4.125l18.775,3.746l-0.829,4.125l-18.771,-3.746Z" style="fill:#00427a;fill-rule:nonzero;"/><path d="M38.367,165.671l0.945,-3.63c0.613,-2.362 -0.249,-4.999 -4.354,-6.066c-3.733,-0.971 -6.458,-0.296 -7.512,3.754l-0.759,2.904l11.68,3.038Zm-16.163,0.145l2.083,-7.991c1.246,-4.8 5.196,-7.625 11.346,-6.025c5.371,1.4 8.65,5.188 7.18,10.846l-2.08,7.992l-18.529,-4.822Z" style="fill:#00427a;fill-rule:nonzero;"/><path d="M40.375,144.804l1.617,-4.687l-7.425,-0.009l-0.021,0.05l5.829,4.646Zm-10.971,-4.208l1.408,-4.075l20.43,-0.534l-1.425,4.134l-4.505,-0.021l-2.333,6.767l3.542,2.808l-1.392,4.029l-15.725,-13.108Z" style="fill:#00427a;fill-rule:nonzero;"/><path d="M50.587,128.625l1.53,-3.425c0.991,-2.233 0.566,-4.975 -3.3,-6.696c-3.53,-1.571 -6.33,-1.35 -8.029,2.471l-1.221,2.746l11.02,4.904Zm-15.966,-2.5l3.358,-7.546c2.017,-4.529 6.375,-6.666 12.179,-4.083c5.071,2.254 7.684,6.533 5.313,11.875l-3.363,7.541l-17.487,-7.787Z" style="fill:#00427a;fill-rule:nonzero;"/><path d="M60.267,90.829c-1.759,-0.775 -3.95,0.013 -5.05,1.792c-1.996,3.212 -0.005,6.112 2.841,7.879c2.713,1.679 6.196,2.166 8.188,-1.046c1.354,-2.187 0.616,-4.35 -1.359,-5.95l2.146,-3.462c3.829,2.875 4.692,7.287 2.217,11.275c-3.121,5.037 -8.717,5.671 -13.412,2.758c-4.83,-2.992 -6.751,-8.288 -3.634,-13.321c2.221,-3.579 6.179,-5.287 10.208,-3.388l-2.145,3.463Z" style="fill:#00427a;fill-rule:nonzero;"/><path d="M71.9,83.487l3.021,-3.933l-7.042,-2.362l-0.033,0.045l4.054,6.25Zm-9.071,-7.466l2.629,-3.421l19.546,5.975l-2.662,3.467l-4.263,-1.45l-4.362,5.679l2.47,3.783l-2.595,3.388l-10.763,-17.421Z" style="fill:#00427a;fill-rule:nonzero;"/><path d="M76.133,65.387l-3.887,4.221l-2.604,-2.4l10.633,-11.529l2.6,2.396l-3.887,4.221l11.474,10.575l-2.854,3.087l-11.475,-10.571Z" style="fill:#00427a;fill-rule:nonzero;"/><path d="M99.808,59.742c2.879,-2.45 1.871,-5.821 -0.2,-8.25c-2.175,-2.546 -5.341,-4.075 -8.221,-1.617c-2.87,2.45 -1.862,5.817 0.309,8.367c2.071,2.429 5.237,3.954 8.112,1.5Zm-11.041,-13.942l-2.021,1.725l-0.513,-4.567l3.2,-2.729l-0.666,5.571Zm0.325,1.379c4.508,-3.841 10.033,-2.742 13.72,1.584c3.584,4.204 3.8,9.829 -0.708,13.674c-4.504,3.846 -10.025,2.738 -13.612,-1.462c-3.688,-4.325 -3.905,-9.95 0.6,-13.796Z" style="fill:#00427a;fill-rule:nonzero;"/><path d="M100.308,38.871l3.542,-2.275l8.437,13.121l7.851,-5.046l1.912,2.975l-11.388,7.32l-10.354,-16.095Z" style="fill:#00427a;fill-rule:nonzero;"/><path d="M115.662,29.583l3.755,-1.896l8.637,17.084l-3.758,1.9l-8.634,-17.088Z" style="fill:#00427a;fill-rule:nonzero;"/><path d="M138.717,26.858c-0.888,-1.7 -3.088,-2.458 -5.063,-1.754c-3.562,1.263 -3.821,4.771 -2.704,7.929c1.071,3.004 3.492,5.559 7.05,4.296c2.429,-0.863 3.196,-3.017 2.658,-5.496l3.838,-1.366c1.196,4.641 -0.888,8.624 -5.309,10.195c-5.587,1.988 -10.35,-1.016 -12.204,-6.22c-1.896,-5.355 -0.096,-10.692 5.488,-12.671c3.966,-1.413 8.129,-0.271 10.087,3.725l-3.841,1.362Z" style="fill:#00427a;fill-rule:nonzero;"/><path d="M152.792,28.938l4.9,-0.763l-3.463,-6.571l-0.054,0.009l-1.383,7.325Zm-1.404,-11.663l4.262,-0.667l10.017,17.817l-4.321,0.667l-2.084,-3.988l-7.074,1.1l-0.83,4.442l-4.208,0.654l4.238,-20.025Z" style="fill:#00427a;fill-rule:nonzero;"/><path d="M181.512,23.817l4.225,0.562c1.463,0.192 2.642,-0.325 2.855,-1.925c0.237,-1.804 -1.092,-2.358 -2.584,-2.558l-3.904,-0.517l-0.592,4.438Zm-1.066,8.054l4.466,0.591c1.646,0.217 3.15,-0.12 3.413,-2.087c0.254,-1.942 -0.863,-2.875 -2.646,-3.108l-4.546,-0.609l-0.687,5.213Zm-2.088,-16.292l8.934,1.188c3.612,0.479 5.9,1.975 5.437,5.508c-0.25,1.862 -1.35,3.038 -3.108,3.621c2.225,0.966 3.158,2.908 2.842,5.271c-0.509,3.854 -3.996,5.066 -7.426,4.612l-9.195,-1.221l2.516,-18.979Z" style="fill:#00427a;fill-rule:nonzero;"/><path d="M202.933,37.004c3.579,1.213 5.959,-1.375 6.988,-4.396c1.075,-3.17 0.762,-6.679 -2.817,-7.891c-3.579,-1.217 -5.958,1.375 -7.037,4.546c-1.025,3.02 -0.713,6.524 2.866,7.741Zm5.309,-15.637c5.612,1.9 7.491,7.212 5.662,12.591c-1.775,5.234 -6.5,8.3 -12.108,6.396c-5.613,-1.908 -7.488,-7.212 -5.713,-12.446c1.825,-5.379 6.55,-8.45 12.159,-6.541Z" style="fill:#00427a;fill-rule:nonzero;"/><path d="M221.771,27.213l3.708,1.987l-7.375,13.754l8.225,4.409l-1.675,3.12l-11.933,-6.4l9.05,-16.87Z" style="fill:#00427a;fill-rule:nonzero;"/><path d="M236.946,35.875l3.492,2.342l-10.655,15.904l-3.496,-2.346l10.659,-15.9Z" style="fill:#00427a;fill-rule:nonzero;"/><path d="M239.921,61.933l-3.667,-3.008l7.35,-18.733l3.354,2.754l-5.25,13.104l0.038,0.033l11.879,-7.654l3.358,2.754l-17.062,10.75Z" style="fill:#00427a;fill-rule:nonzero;"/><path d="M259.454,53.804l3,2.95l-13.417,13.654l-3,-2.946l13.417,-13.658Z" style="fill:#00427a;fill-rule:nonzero;"/><path d="M260.663,72.008l3.229,3.763l3.762,-6.404l-0.037,-0.046l-6.954,2.687Zm9.175,-7.342l2.808,3.271l-9.867,17.9l-2.846,-3.316l2.296,-3.871l-4.662,-5.433l-4.217,1.633l-2.771,-3.233l19.259,-6.951Z" style="fill:#00427a;fill-rule:nonzero;"/><path d="M279.604,76.521l2.367,3.445l-6.071,13.855l0.033,0.045l10.588,-7.262l2.229,3.246l-15.787,10.825l-2.38,-3.467l6.067,-13.816l-0.033,-0.046l-10.567,7.25l-2.233,-3.25l15.787,-10.825Z" style="fill:#00427a;fill-rule:nonzero;"/><path d="M283.792,104.704l2.391,4.342l4.988,-5.5l-0.025,-0.046l-7.354,1.204Zm10.479,-5.312l2.083,3.783l-13.316,15.5l-2.109,-3.825l3.038,-3.325l-3.455,-6.271l-4.458,0.738l-2.058,-3.734l20.275,-2.866Z" style="fill:#00427a;fill-rule:nonzero;"/><path d="M300.079,131.587l-1.467,-3.512l3.784,-1.579c2.171,-0.992 4.496,-0.159 5.625,1.779l-1.633,0.679c-0.946,-1.083 -1.967,-1.096 -3.18,-0.587l0.679,1.629l-3.808,1.591Zm-2.196,-5.27l-1.471,-3.509l3.788,-1.579c2.171,-0.996 4.492,-0.167 5.621,1.775l-1.633,0.683c-0.946,-1.087 -1.967,-1.095 -3.18,-0.591l0.684,1.633l-3.809,1.588Z" style="fill:#00427a;fill-rule:nonzero;"/><path d="M298.654,139.7c-2.412,0.821 -2.708,3.021 -1.983,5.15c0.479,1.396 1.608,3.387 3.458,2.754c1.958,-0.667 1.358,-3.492 1.163,-6.4c-0.209,-2.929 -0.096,-6 3.304,-7.158c3.704,-1.267 6.675,1.625 7.791,4.896c1.292,3.783 0.83,7.825 -3.354,9.254l-1.316,-3.859c2.133,-0.87 2.166,-2.612 1.516,-4.512c-0.433,-1.267 -1.466,-2.554 -2.991,-2.038c-1.396,0.475 -1.28,1.4 -0.896,6.338c0.125,1.433 0.671,5.779 -3.438,7.183c-3.325,1.134 -6.704,-0.633 -8.383,-5.554c-1.371,-4.008 -0.671,-8.437 3.808,-9.908l1.321,3.854Z" style="fill:#00427a;fill-rule:nonzero;"/><path d="M305.679,158.654l1.246,4.8l6.192,-4.1l-0.013,-0.054l-7.425,-0.646Zm11.467,-2.562l1.087,4.175l-16.729,11.741l-1.1,-4.229l3.763,-2.475l-1.8,-6.925l-4.505,-0.383l-1.07,-4.125l20.354,2.221Z" style="fill:#00427a;fill-rule:nonzero;"/><path d="M320.708,170.558l0.738,4.117l-11.221,10.133l0.008,0.05l12.638,-2.271l0.696,3.88l-18.838,3.387l-0.746,-4.146l11.205,-10.1l-0.009,-0.054l-12.616,2.267l-0.696,-3.879l18.841,-3.384Z" style="fill:#00427a;fill-rule:nonzero;"/><path d="M316.621,205.179l0.25,3.263c0.15,1.95 0.712,3.654 3.146,3.466c2.433,-0.187 2.725,-1.958 2.575,-3.908l-0.25,-3.263l-5.721,0.442Zm8.658,-4.892l0.663,8.609c0.366,4.758 -2.513,6.837 -5.609,7.075c-3.104,0.241 -6.266,-1.371 -6.633,-6.129l-0.342,-4.409l-6.841,0.529l-0.325,-4.2l19.087,-1.475Z" style="fill:#00427a;fill-rule:nonzero;"/><path d="M314.858,222.046l0.096,4.958l6.979,-2.554l0,-0.054l-7.075,-2.35Zm11.746,0.166l0.092,4.313l-18.996,7.546l-0.092,-4.371l4.238,-1.533l-0.146,-7.155l-4.296,-1.416l-0.087,-4.263l19.287,6.879Z" style="fill:#00427a;fill-rule:nonzero;"/><path d="M318.8,240.821l-0.2,4.254c-0.071,1.475 0.55,2.6 2.158,2.679c1.821,0.083 2.259,-1.287 2.33,-2.792l0.183,-3.933l-4.471,-0.208Zm-8.117,-0.379l-0.208,4.495c-0.075,1.663 0.387,3.134 2.371,3.225c1.954,0.092 2.791,-1.104 2.875,-2.9l0.212,-4.579l-5.25,-0.241Zm16.05,-3.467l-0.42,8.996c-0.171,3.646 -1.463,6.054 -5.026,5.887c-1.875,-0.091 -3.141,-1.087 -3.87,-2.783c-0.771,2.3 -2.625,3.387 -5.009,3.283c-3.883,-0.183 -5.387,-3.554 -5.229,-7.008l0.438,-9.267l19.116,0.892Z" style="fill:#00427a;fill-rule:nonzero;"/><path d="M325.571,257.4l-0.467,4.183l-15.508,-1.725l-1.034,9.275l-3.512,-0.391l1.496,-13.463l19.025,2.121Z" style="fill:#00427a;fill-rule:nonzero;"/><path d="M306.246,280.087c-0.671,3.721 2.237,5.692 5.379,6.263c3.3,0.6 6.717,-0.225 7.392,-3.946c0.675,-3.717 -2.238,-5.692 -5.534,-6.292c-3.137,-0.566 -6.558,0.255 -7.237,3.975Zm16.254,2.95c-1.058,5.83 -6.033,8.467 -11.629,7.455c-5.434,-0.988 -9.163,-5.205 -8.1,-11.038c1.054,-5.829 6.029,-8.467 11.466,-7.479c5.592,1.017 9.321,5.233 8.263,11.062Z" style="fill:#00427a;fill-rule:nonzero;"/><path d="M319.433,295.854l-0.925,3.692l-3.979,-0.996c-2.329,-0.5 -3.7,-2.554 -3.446,-4.783l1.717,0.429c0.108,1.437 0.925,2.054 2.196,2.371l0.433,-1.717l4.004,1.004Zm-1.387,5.538l-0.921,3.695l-3.979,-0.995c-2.338,-0.5 -3.704,-2.555 -3.446,-4.784l1.712,0.429c0.113,1.434 0.925,2.055 2.2,2.371l0.43,-1.716l4.004,1Z" style="fill:#00427a;fill-rule:nonzero;"/><path d="M62.85,352.212l-10.296,-1.02l-4.262,9.437l-2.192,-10.133l-10.296,-1.113l8.946,-5.204l-2.117,-10.158l7.742,6.904l8.996,-5.138l-4.179,9.463l7.658,6.962Z" style="fill:#00427a;fill-rule:nonzero;"/><path d="M278.263,352.125l10.32,-1.033l4.242,9.462l2.213,-10.129l10.295,-1.146l-8.975,-5.225l2.121,-10.117l-7.687,6.896l-9.038,-5.162l4.183,9.491l-7.674,6.963Z" style="fill:#00427a;fill-rule:nonzero;"/><path d="M270.792,183.079l8.071,0c-5.9,-30.479 -17.6,-58.162 -33.9,-80.171c-20.98,-28.329 -47.263,-43.925 -74.021,-43.925c-26.759,0 -53.046,15.596 -74.025,43.925c-16.3,22.009 -27.996,49.692 -33.896,80.171l7.4,0l-0.467,6.038l-1.375,20.712l14.663,-17.367l12.204,15.192l9.266,-34.792l-5.879,0c5.454,-19.112 13.725,-36.429 24.217,-50.604c14.692,-19.833 31.7,-30.758 47.892,-30.758c16.187,-0 33.195,10.925 47.887,30.758c10.463,14.138 18.721,31.4 24.175,50.459l-5.704,-0l9.271,34.787l12.2,-15.192l14.666,17.371l-1.604,-24.141l-1.041,-2.463Z" style="fill:#ffcb03;fill-rule:nonzero;"/><path d="M271.425,204.704l-10.062,-11.921l-2.625,-3.108l-2.55,3.171l-8.85,11.033l-7.855,-29.492l2.263,0c0.946,3.4 1.8,6.855 2.571,10.363l25.783,-0l1.325,19.954Zm-51.25,-83.442c-15.013,-20.27 -32.5,-31.437 -49.233,-31.437c-16.738,-0 -34.221,11.167 -49.238,31.437c-6.4,8.646 -11.987,18.409 -16.604,29.013c-4.229,9.712 -7.658,20.175 -10.217,31.125l-29.821,-0c2.838,-14.013 6.905,-27.438 12.117,-39.95c5.729,-13.754 12.821,-26.383 21.084,-37.546c20.654,-27.888 46.466,-43.25 72.679,-43.25c26.208,0 52.021,15.362 72.675,43.25c8.266,11.163 15.354,23.792 21.087,37.546c5.208,12.512 9.275,25.937 12.117,39.95l-29.829,-0c-2.55,-10.95 -5.984,-21.413 -10.209,-31.125c-4.62,-10.604 -10.204,-20.367 -16.608,-29.013Zm-117.642,53.279l-7.858,29.484l-8.85,-11.029l-2.55,-3.171l-2.625,3.108l-10.062,11.917l1.337,-20.1l25.642,-0c0.754,-3.458 1.6,-6.863 2.525,-10.209l2.441,0Zm178.346,10.209c-5.792,-31.392 -17.579,-59.896 -34.571,-82.842c-21.3,-28.762 -48.066,-44.604 -75.366,-44.604c-27.305,0 -54.071,15.842 -75.371,44.604c-16.992,22.946 -28.775,51.45 -34.567,82.842l7.563,-0l-1.996,30.058l16.642,-19.712l12.995,16.191l10.684,-40.1l-5.834,0c5.355,-17.991 13.217,-34.258 23.342,-47.929c14.367,-19.395 30.896,-30.083 46.542,-30.083c15.641,-0 32.175,10.688 46.537,30.083c10.1,13.634 17.942,29.846 23.3,47.78l-5.658,-0l10.687,40.104l12.992,-16.196l16.65,19.716l-1.992,-29.912l7.421,-0Z" style="fill:#00427a;fill-rule:nonzero;"/><path d="M96.442,156.312l-1.367,3.763l-16.979,-0.596l1.254,-3.442l11.904,0.505l0.017,-0.046l-9.429,-7.304l1.254,-3.442l13.346,10.562Z" style="fill:#00427a;fill-rule:nonzero;"/><path d="M84.192,143.25l5.045,-10.975l2.713,1.25l-3.563,7.746l3.146,1.45l3.267,-7.113l2.508,1.154l-3.27,7.109l3.595,1.658l3.642,-7.913l2.713,1.246l-5.126,11.138l-14.67,-6.75Z" style="fill:#00427a;fill-rule:nonzero;"/><path d="M99.204,129.233l1.958,-3.362c0.796,-1.367 0.642,-2.45 -0.766,-3.271c-1.346,-0.783 -2.367,-0.383 -3.163,0.988l-1.954,3.358l3.925,2.287Zm-8.1,-0.608l4.383,-7.525c1.455,-2.5 4.117,-3.071 6.225,-1.842c1.646,0.954 2.492,2.338 2.217,4.246l0.038,0.025c1.266,-1.279 2.983,-0.854 4.45,-0.133c0.912,0.45 2.545,1.429 3.645,1.333l-1.787,3.071c-1.096,-0.142 -2.421,-0.963 -3.629,-1.458c-1.592,-0.638 -2.567,-0.446 -3.463,1.1l-1.787,3.066l5.454,3.175l-1.788,3.071l-13.958,-8.129Z" style="fill:#00427a;fill-rule:nonzero;"/><path d="M100.471,113.292l2.029,-2.913l13.254,9.229l-2.025,2.917l-13.258,-9.233Z" style="fill:#00427a;fill-rule:nonzero;"/><path d="M109.833,105.629l-3.075,3.738l-2.308,-1.9l8.417,-10.213l2.304,1.9l-3.079,3.733l10.162,8.376l-2.258,2.741l-10.163,-8.375Z" style="fill:#00427a;fill-rule:nonzero;"/><path d="M123.871,100.275l3.021,-2.9l-5.575,-2.863l-0.034,0.03l2.588,5.733Zm-6.621,-7.379l2.629,-2.525l15.55,7.462l-2.662,2.554l-3.375,-1.745l-4.355,4.187l1.58,3.471l-2.596,2.492l-6.771,-15.896Z" style="fill:#00427a;fill-rule:nonzero;"/><path d="M135.5,91.354c1.192,1.783 3.05,1.55 4.629,0.496c1.038,-0.696 2.413,-2.054 1.496,-3.425c-0.971,-1.45 -3.146,-0.346 -5.471,0.45c-2.35,0.808 -4.875,1.383 -6.558,-1.133c-1.838,-2.75 -0.125,-5.805 2.296,-7.425c2.804,-1.875 6.2,-2.375 8.275,0.72l-2.854,1.917c-1.18,-1.554 -2.605,-1.2 -4.013,-0.254c-0.942,0.629 -1.767,1.754 -1.017,2.879c0.696,1.038 1.425,0.738 5.371,-0.65c1.138,-0.412 4.563,-1.804 6.6,1.242c1.65,2.462 0.946,5.604 -2.7,8.046c-2.971,1.987 -6.733,2.383 -8.916,-0.95l2.862,-1.913Z" style="fill:#00427a;fill-rule:nonzero;"/><path d="M149.446,71.725l3.371,-1.117l5.075,15.338l-3.375,1.116l-5.071,-15.337Z" style="fill:#00427a;fill-rule:nonzero;"/><path d="M158.921,68.725l3.517,-0.308l7.658,10.212l0.042,-0.004l-0.938,-10.8l3.308,-0.292l1.404,16.096l-3.533,0.308l-7.637,-10.191l-0.046,0.004l0.941,10.775l-3.316,0.291l-1.4,-16.091Z" style="fill:#00427a;fill-rule:nonzero;"/><path d="M195.679,78.796c0.367,-1.579 -0.633,-3.275 -2.279,-3.909c-2.975,-1.145 -5.071,0.963 -6.087,3.6c-0.967,2.513 -0.821,5.476 2.154,6.621c2.025,0.779 3.704,-0.17 4.72,-2.058l3.209,1.233c-1.784,3.629 -5.309,5.034 -9.004,3.617c-4.667,-1.8 -6.067,-6.342 -4.392,-10.687c1.721,-4.48 5.808,-6.905 10.475,-5.109c3.317,1.275 5.354,4.292 4.413,7.929l-3.209,-1.237Z" style="fill:#00427a;fill-rule:nonzero;"/><path d="M203.625,88.417l3.433,2.395l1.725,-6.029l-0.041,-0.025l-5.117,3.659Zm5.95,-7.934l2.983,2.084l-4.283,16.708l-3.021,-2.113l1.05,-3.65l-4.954,-3.458l-3.096,2.233l-2.95,-2.062l14.271,-9.742Z" style="fill:#00427a;fill-rule:nonzero;"/><path d="M217.775,96.387l2.746,2.759c1.117,1.121 2.204,1.246 3.358,0.1c1.109,-1.105 0.979,-2.192 -0.137,-3.313l-2.75,-2.754l-3.217,3.208Zm2.662,-7.67l6.155,6.162c2.046,2.054 1.912,4.771 0.183,6.496c-1.346,1.342 -2.9,1.804 -4.675,1.05l-0.033,0.033c0.912,1.55 0.062,3.104 -1.013,4.334c-0.671,0.766 -2.033,2.091 -2.225,3.179l-2.508,-2.513c0.416,-1.025 1.554,-2.096 2.341,-3.133c1.021,-1.375 1.088,-2.367 -0.17,-3.629l-2.509,-2.517l-4.475,4.454l-2.504,-2.512l11.433,-11.404Z" style="fill:#00427a;fill-rule:nonzero;"/><path d="M232.725,101.746l2.237,2.758l-12.537,10.179l-2.237,-2.754l12.537,-10.183Z" style="fill:#00427a;fill-rule:nonzero;"/><path d="M237.287,112.592l-2.749,-3.984l2.458,-1.696l7.516,10.892l-2.458,1.696l-2.75,-3.983l-10.837,7.479l-2.017,-2.925l10.837,-7.479Z" style="fill:#00427a;fill-rule:nonzero;"/><path d="M238.729,127.6l2.063,3.638l4.154,-4.692l-0.029,-0.042l-6.188,1.096Zm8.783,-4.596l1.796,3.171l-11.066,13.221l-1.817,-3.209l2.525,-2.833l-2.983,-5.254l-3.755,0.671l-1.774,-3.129l17.074,-2.638Z" style="fill:#00427a;fill-rule:nonzero;"/><path d="M251.479,136.913l-2.042,-4.388l2.701,-1.263l5.595,12.005l-2.712,1.258l-2.042,-4.392l-11.937,5.563l-1.5,-3.221l11.937,-5.562Z" style="fill:#00427a;fill-rule:nonzero;"/><path d="M258.917,146.217l4.191,11.333l-2.8,1.033l-2.962,-7.996l-3.25,1.2l2.721,7.342l-2.588,0.958l-2.721,-7.341l-3.708,1.375l3.025,8.166l-2.8,1.038l-4.254,-11.5l15.146,-5.608Z" style="fill:#00427a;fill-rule:nonzero;"/><path d="M113.521,408.879l5.191,2.85l-2.404,13.692l0.05,0.025l10.042,-9.504l5.196,2.85l-9.204,16.783l-3.455,-1.896l6.521,-11.892l-0.05,-0.025l-10.637,9.638l-2.842,-1.563l2.346,-14.029l-0.046,-0.029l-6.458,11.779l-3.459,-1.896l9.209,-16.783Z" style="fill:#00427a;fill-rule:nonzero;"/><path d="M144.65,429.742c0.308,-1.896 -1,-3.821 -2.996,-4.446c-3.608,-1.129 -5.921,1.521 -6.925,4.721c-0.95,3.041 -0.554,6.537 3.054,7.666c2.454,0.767 4.367,-0.487 5.429,-2.8l3.888,1.217c-1.838,4.425 -5.892,6.362 -10.371,4.962c-5.658,-1.77 -7.662,-7.033 -6.017,-12.304c1.696,-5.425 6.346,-8.604 12,-6.837c4.017,1.254 6.663,4.662 5.825,9.037l-3.887,-1.216Z" style="fill:#00427a;fill-rule:nonzero;"/><path d="M152.533,425.421l5.9,0.504l3.346,13.496l0.054,0.008l5.338,-12.758l5.904,0.5l-1.625,19.075l-3.929,-0.334l1.154,-13.52l-0.054,-0.005l-5.825,13.121l-3.234,-0.275l-3.533,-13.783l-0.054,-0.004l-1.138,13.383l-3.929,-0.333l1.625,-19.075Z" style="fill:#00427a;fill-rule:nonzero;"/><path d="M175.996,426.704l4.179,-0.487l1.813,15.5l9.266,-1.088l0.413,3.517l-13.446,1.571l-2.225,-19.013Z" style="fill:#00427a;fill-rule:nonzero;"/><path d="M197.75,432.304l-8.442,-7.058l4.688,-1.35l5.296,4.841l2.045,-6.95l4.434,-1.27l-3.375,10.479l9.175,7.766l-4.817,1.388l-5.846,-5.208l-2.271,7.537l-4.558,1.313l3.671,-11.488Z" style="fill:#00427a;fill-rule:nonzero;"/><path d="M225.221,432.392l-4.254,2.091l-14.017,-14.446l3.9,-1.912l9.754,10.204l0.046,-0.025l-2.05,-13.979l3.9,-1.913l2.721,19.98Z" style="fill:#00427a;fill-rule:nonzero;"/><path d="M223.687,411.337l3.563,-2.241l10.2,16.196l-3.563,2.245l-10.2,-16.2Z" style="fill:#00427a;fill-rule:nonzero;"/><path d="M337.646,230.567c-0,30.445 -4.413,59.975 -13.121,87.775c-8.4,26.812 -20.417,50.895 -35.721,71.558c-15.271,20.621 -33.033,36.796 -52.8,48.087c-20.404,11.655 -42.067,17.559 -64.387,17.559c-22.325,-0 -43.988,-5.904 -64.388,-17.559c-19.771,-11.291 -37.533,-27.466 -52.8,-48.087c-15.304,-20.663 -27.325,-44.746 -35.721,-71.558c-8.708,-27.8 -13.121,-57.33 -13.121,-87.775c0,-30.45 4.413,-59.98 13.121,-87.776c8.396,-26.82 20.417,-50.9 35.721,-71.562c15.267,-20.617 33.029,-36.796 52.8,-48.088c20.4,-11.649 42.063,-17.558 64.388,-17.558c22.32,0 43.983,5.909 64.387,17.558c19.767,11.292 37.529,27.471 52.8,48.088c15.304,20.662 27.321,44.742 35.721,71.562c8.708,27.796 13.121,57.326 13.121,87.776Zm-7.788,-89.446c-8.587,-27.417 -20.891,-52.05 -36.566,-73.217c-7.746,-10.454 -16.267,-19.95 -25.338,-28.225c-9.179,-8.375 -18.996,-15.567 -29.179,-21.388c-21.258,-12.137 -43.854,-18.291 -67.158,-18.291c-23.304,-0 -45.905,6.154 -67.159,18.291c-10.187,5.821 -20.004,13.013 -29.179,21.388c-9.071,8.275 -17.596,17.771 -25.341,28.225c-15.671,21.171 -27.976,45.8 -36.559,73.217c-8.879,28.337 -13.379,58.429 -13.379,89.446c-0,31.012 4.5,61.104 13.379,89.441c8.583,27.417 20.888,52.046 36.559,73.217c7.745,10.458 16.27,19.954 25.341,28.225c9.175,8.375 18.992,15.571 29.179,21.387c21.254,12.138 43.855,18.296 67.159,18.296c23.304,0 45.9,-6.158 67.158,-18.296c10.183,-5.816 20,-13.012 29.179,-21.387c9.071,-8.271 17.592,-17.767 25.338,-28.225c15.675,-21.171 27.979,-45.8 36.566,-73.217c8.875,-28.337 13.371,-58.429 13.371,-89.441c0,-31.017 -4.496,-61.109 -13.371,-89.446Z" style="fill:#00427a;fill-rule:nonzero;"/><path d="M164.017,137.35c-0.984,0.146 -1.963,0.321 -2.934,0.525l4.175,23.246c0.017,-0 0.038,-0.009 0.054,-0.013c0.517,-3.021 0.946,-6.27 1.23,-9.7l-2.525,-14.058Z" style="fill:#ffcb03;fill-rule:nonzero;"/><path d="M164.683,161.267l-7.566,-22.363c-0.95,0.288 -1.892,0.608 -2.821,0.954l7.562,22.363c0.917,-0.371 1.863,-0.692 2.825,-0.954Z" style="fill:#ffcb03;fill-rule:nonzero;"/><path d="M161.029,162.583l-11.062,-20.85c-0.896,0.438 -1.775,0.904 -2.634,1.396l11.063,20.85c0.846,-0.521 1.725,-0.983 2.633,-1.396Z" style="fill:#ffcb03;fill-rule:nonzero;"/><path d="M157.521,164.542l-14.392,-18.709c-0.808,0.583 -1.596,1.188 -2.362,1.817l14.395,18.717c0.746,-0.655 1.534,-1.267 2.359,-1.825Z" style="fill:#ffcb03;fill-rule:nonzero;"/><path d="M154.45,167.017l-17.271,-16.117c-0.7,0.704 -1.375,1.433 -2.033,2.179l11.104,10.367c2.408,1.275 5.054,2.554 7.967,3.796c0.079,-0.075 0.154,-0.15 0.233,-0.225Z" style="fill:#ffcb03;fill-rule:nonzero;"/><path d="M187.392,166.95l15.079,-18.192c-0.742,-0.654 -1.504,-1.291 -2.292,-1.9l-9.837,11.871c-1.021,2.579 -2.013,5.317 -2.955,8.221l0.005,-0Z" style="fill:#ffcb03;fill-rule:nonzero;"/><path d="M188.129,167.675c0.696,0.708 1.346,1.462 1.946,2.254l17.892,-15.425c-0.625,-0.771 -1.271,-1.529 -1.946,-2.258l-17.892,15.429Z" style="fill:#ffcb03;fill-rule:nonzero;"/><path d="M192.292,173.433l20.275,-12.116c-0.488,-0.871 -0.996,-1.725 -1.53,-2.559l-20.275,12.117c0.563,0.821 1.071,1.671 1.53,2.558Z" style="fill:#ffcb03;fill-rule:nonzero;"/><path d="M193.842,177.167l22.016,-8.546c-0.329,-0.938 -0.687,-1.863 -1.079,-2.775l-22.021,8.546c0.417,0.895 0.779,1.82 1.084,2.775Z" style="fill:#ffcb03;fill-rule:nonzero;"/><path d="M217.783,175.775c-0.183,-0.979 -0.4,-1.95 -0.641,-2.908l-23.088,5.029c0.05,0.175 0.096,0.35 0.146,0.529c2.483,0.383 4.946,0.675 7.383,0.879l16.2,-3.529Z" style="fill:#ffcb03;fill-rule:nonzero;"/><path d="M173.35,218.654l1.508,13.263c0.996,-0.084 1.984,-0.196 2.963,-0.338l-2.371,-20.8l-1.096,4.1c-0.341,1.267 -0.675,2.521 -1.004,3.775Z" style="fill:#ffcb03;fill-rule:nonzero;"/><path d="M176.279,207.871l6.658,22.671c0.967,-0.25 1.917,-0.534 2.859,-0.842l-6.659,-22.663c-0.925,0.338 -1.883,0.613 -2.858,0.834Z" style="fill:#ffcb03;fill-rule:nonzero;"/><path d="M180.417,206.533l10.629,21.088c0.9,-0.421 1.787,-0.867 2.662,-1.338l-10.633,-21.096c-0.858,0.5 -1.746,0.955 -2.658,1.346Z" style="fill:#ffcb03;fill-rule:nonzero;"/><path d="M184.192,204.492l14.216,18.862c0.813,-0.571 1.609,-1.171 2.379,-1.792l-14.22,-18.866c-0.754,0.646 -1.546,1.246 -2.375,1.796Z" style="fill:#ffcb03;fill-rule:nonzero;"/><path d="M187.321,202.025l17.15,16.258c0.708,-0.696 1.387,-1.416 2.05,-2.158l-13.592,-12.883c-1.458,-0.73 -3.025,-1.442 -4.691,-2.125c-0.301,0.308 -0.605,0.612 -0.917,0.908Z" style="fill:#ffcb03;fill-rule:nonzero;"/><path d="M141.533,221.9c0.779,0.604 1.58,1.196 2.4,1.762l8.109,-11.008l2.112,-7.9l-12.621,17.146Z" style="fill:#ffcb03;fill-rule:nonzero;"/><path d="M137.846,218.671l16.941,-16.446c-0.733,-0.675 -1.42,-1.392 -2.066,-2.146l-16.946,16.454c0.667,0.734 1.358,1.446 2.071,2.138Z" style="fill:#ffcb03;fill-rule:nonzero;"/><path d="M131.067,209.608l1.666,2.467l19.196,-12.967c-0.604,-0.787 -1.162,-1.608 -1.671,-2.462l-19.191,12.962Z" style="fill:#ffcb03;fill-rule:nonzero;"/><path d="M126.858,202.383c0.375,0.921 0.775,1.829 1.205,2.725l21.583,-9.575c-0.458,-0.875 -0.863,-1.783 -1.213,-2.721l-21.575,9.571Z" style="fill:#ffcb03;fill-rule:nonzero;"/><path d="M124.483,194.812c0.217,0.971 0.463,1.938 0.738,2.888l22.879,-5.854c-0.129,-0.404 -0.25,-0.809 -0.354,-1.221c-1.775,-0.2 -3.533,-0.338 -5.283,-0.417l-17.98,4.604Z" style="fill:#ffcb03;fill-rule:nonzero;"/><path d="M164.017,137.35c-0.984,0.146 -1.963,0.321 -2.934,0.525l4.175,23.246c0.017,-0 0.038,-0.009 0.054,-0.013c0.517,-3.021 0.946,-6.27 1.23,-9.7l-2.525,-14.058Z" style="fill:#ffcb03;fill-rule:nonzero;"/><path d="M164.683,161.267l-7.566,-22.363c-0.95,0.288 -1.892,0.608 -2.821,0.954l7.562,22.363c0.917,-0.371 1.863,-0.692 2.825,-0.954Z" style="fill:#ffcb03;fill-rule:nonzero;"/><path d="M161.029,162.583l-11.062,-20.85c-0.896,0.438 -1.775,0.904 -2.634,1.396l11.063,20.85c0.846,-0.521 1.725,-0.983 2.633,-1.396Z" style="fill:#ffcb03;fill-rule:nonzero;"/><path d="M157.521,164.542l-14.392,-18.709c-0.808,0.583 -1.596,1.188 -2.362,1.817l14.395,18.717c0.746,-0.655 1.534,-1.267 2.359,-1.825Z" style="fill:#ffcb03;fill-rule:nonzero;"/><path d="M154.45,167.017l-17.271,-16.117c-0.7,0.704 -1.375,1.433 -2.033,2.179l11.104,10.367c2.408,1.275 5.054,2.554 7.967,3.796c0.079,-0.075 0.154,-0.15 0.233,-0.225Z" style="fill:#ffcb03;fill-rule:nonzero;"/><path d="M187.392,166.95l15.079,-18.192c-0.742,-0.654 -1.504,-1.291 -2.292,-1.9l-9.837,11.871c-1.021,2.579 -2.013,5.317 -2.955,8.221l0.005,-0Z" style="fill:#ffcb03;fill-rule:nonzero;"/><path d="M188.129,167.675c0.696,0.708 1.346,1.462 1.946,2.254l17.892,-15.425c-0.625,-0.771 -1.271,-1.529 -1.946,-2.258l-17.892,15.429Z" style="fill:#ffcb03;fill-rule:nonzero;"/><path d="M192.292,173.433l20.275,-12.116c-0.488,-0.871 -0.996,-1.725 -1.53,-2.559l-20.275,12.117c0.563,0.821 1.071,1.671 1.53,2.558Z" style="fill:#ffcb03;fill-rule:nonzero;"/><path d="M193.842,177.167l22.016,-8.546c-0.329,-0.938 -0.687,-1.863 -1.079,-2.775l-22.021,8.546c0.417,0.895 0.779,1.82 1.084,2.775Z" style="fill:#ffcb03;fill-rule:nonzero;"/><path d="M217.783,175.775c-0.183,-0.979 -0.4,-1.95 -0.641,-2.908l-23.088,5.029c0.05,0.175 0.096,0.35 0.146,0.529c2.483,0.383 4.946,0.675 7.383,0.879l16.2,-3.529Z" style="fill:#ffcb03;fill-rule:nonzero;"/><path d="M173.35,218.654l1.508,13.263c0.996,-0.084 1.984,-0.196 2.963,-0.338l-2.371,-20.8l-1.096,4.1c-0.341,1.267 -0.675,2.521 -1.004,3.775Z" style="fill:#ffcb03;fill-rule:nonzero;"/><path d="M176.279,207.871l6.658,22.671c0.967,-0.25 1.917,-0.534 2.859,-0.842l-6.659,-22.663c-0.925,0.338 -1.883,0.613 -2.858,0.834Z" style="fill:#ffcb03;fill-rule:nonzero;"/><path d="M180.417,206.533l10.629,21.088c0.9,-0.421 1.787,-0.867 2.662,-1.338l-10.633,-21.096c-0.858,0.5 -1.746,0.955 -2.658,1.346Z" style="fill:#ffcb03;fill-rule:nonzero;"/><path d="M184.192,204.492l14.216,18.862c0.813,-0.571 1.609,-1.171 2.379,-1.792l-14.22,-18.866c-0.754,0.646 -1.546,1.246 -2.375,1.796Z" style="fill:#ffcb03;fill-rule:nonzero;"/><path d="M187.321,202.025l17.15,16.258c0.708,-0.696 1.387,-1.416 2.05,-2.158l-13.592,-12.883c-1.458,-0.73 -3.025,-1.442 -4.691,-2.125c-0.301,0.308 -0.605,0.612 -0.917,0.908Z" style="fill:#ffcb03;fill-rule:nonzero;"/><path d="M141.533,221.9c0.779,0.604 1.58,1.196 2.4,1.762l8.109,-11.008l2.112,-7.9l-12.621,17.146Z" style="fill:#ffcb03;fill-rule:nonzero;"/><path d="M137.846,218.671l16.941,-16.446c-0.733,-0.675 -1.42,-1.392 -2.066,-2.146l-16.946,16.454c0.667,0.734 1.358,1.446 2.071,2.138Z" style="fill:#ffcb03;fill-rule:nonzero;"/><path d="M131.067,209.608l1.666,2.467l19.196,-12.967c-0.604,-0.787 -1.162,-1.608 -1.671,-2.462l-19.191,12.962Z" style="fill:#ffcb03;fill-rule:nonzero;"/><path d="M126.858,202.383c0.375,0.921 0.775,1.829 1.205,2.725l21.583,-9.575c-0.458,-0.875 -0.863,-1.783 -1.213,-2.721l-21.575,9.571Z" style="fill:#ffcb03;fill-rule:nonzero;"/><path d="M124.483,194.812c0.217,0.971 0.463,1.938 0.738,2.888l22.879,-5.854c-0.129,-0.404 -0.25,-0.809 -0.354,-1.221c-1.775,-0.2 -3.533,-0.338 -5.283,-0.417l-17.98,4.604Z" style="fill:#ffcb03;fill-rule:nonzero;"/><path d="M268.133,249.892c0.925,-5.605 -0.52,-11.171 -2.241,-15.392c-0.4,1.221 -0.867,2.508 -1.409,3.808c-0.741,1.784 -1.579,3.438 -2.387,5.038c-2.084,4.1 -3.879,7.65 -3.879,12.675c-0,3.991 1.345,7.1 2.641,10.104c0.188,0.433 0.367,0.862 0.554,1.3c0.821,-2.271 1.809,-4.375 2.78,-6.45c1.679,-3.583 3.258,-6.967 3.941,-11.083Z" style="fill:#ffcb03;fill-rule:nonzero;"/><path d="M93.429,289.654c-0.487,-0.625 -0.904,-1.154 -1.233,-0.9c-0.317,0.25 -0.304,0.638 -0.046,1.054c0.254,0.421 0.658,0.917 0.867,1.213c0.671,0.946 2.22,0.175 1.783,-0.321c-0.467,-0.546 -0.796,-0.329 -1.371,-1.046Z" style="fill:#00427a;fill-rule:nonzero;"/><path d="M91.158,285.092c0.155,-0.334 0.713,-0.371 0.029,-2.417c-0.683,-2.046 -1.65,-3.308 -1.829,-4.808c-0.558,-4.592 0.529,-7.696 0.617,-9.346c0.092,-1.642 1.675,-2.446 2.792,-3.938c1.12,-1.487 1.37,-3.596 4.412,-5.646c0.692,-0.462 2.821,-1.083 4.125,-1.583c1.3,-0.492 3.571,-1.15 7.013,-1.15c2.666,0 1.487,-1.333 0.895,-1.208c-0.587,0.125 -0.804,0.158 -1.704,0.437c-0.9,0.279 -3.254,-0.904 -5.429,-0.279c-2.175,0.617 -5.987,1.95 -9.217,4.871c-3.224,2.912 -5.8,8.871 -5.8,14.271c0,5.4 1.8,8.471 2.292,9.437c0.5,0.959 0.129,1.484 0.808,2.909c0.684,1.429 2.146,0.966 1.521,0.062c-0.425,-0.612 -0.683,-1.267 -0.525,-1.612Z" style="fill:#00427a;fill-rule:nonzero;"/><path d="M262.904,281.258c-0.258,0.05 -0.583,0.059 -0.958,0.059c-0.075,-0 -0.138,-0.005 -0.208,-0.005c-1.405,-0.02 -2.163,-0.283 -1.938,-1.395c0.212,-1.105 1.262,-1.93 2.342,-1.93c1.075,0 1.6,0.996 1.6,2.117c-0,0.771 -0.275,1.054 -0.838,1.154Zm-4.687,-25.237c-0,-5.025 1.795,-8.575 3.879,-12.675c0.808,-1.6 1.646,-3.254 2.387,-5.038c0.542,-1.3 1.009,-2.587 1.409,-3.808c1.721,4.221 3.166,9.787 2.241,15.392c-0.683,4.116 -2.262,7.5 -3.941,11.083c-0.971,2.075 -1.959,4.179 -2.78,6.45c-0.187,-0.438 -0.366,-0.867 -0.554,-1.3c-1.296,-3.004 -2.641,-6.113 -2.641,-10.104Zm-12.763,28.896c-0.737,0.229 -1.504,0.316 -1.537,-0.35c-0.038,-0.775 1.333,-1.017 2.662,-0.942c0.696,0.033 0.35,0.842 -1.125,1.292Zm-7.821,3.533c-6.1,3.537 -11.412,7.696 -16.362,10.879c-3.688,2.371 -1.809,-3.658 -4.6,-1.242c-4.288,3.721 -4.434,9.317 -15.729,16.392c-6.788,4.25 -14.45,6.217 -20.884,5.829c-5.712,-0.337 -5.287,-2.333 -7.571,-2.104c-1.862,0.188 -3.145,-0.487 -4.262,-1.421c-1.642,-1.366 -2.5,-3.096 -2.533,-5.096c-0.092,-5.683 5.891,-9.995 11.712,-11.004c4.867,-0.841 3.142,2.234 4.921,2.009c2.525,-0.325 2.358,-2.83 7.942,-3.85c1.879,-0.346 2.079,1.416 4.191,1.02c2.113,-0.395 6.15,-2.92 8.509,-3.462c1.825,-0.421 3.72,-0.9 5.691,-1.45c2.442,-0.683 4.996,-1.483 7.675,-2.442c2.342,-0.833 4.605,-1.629 6.738,-2.375c7.225,-2.5 12.925,-4.3 15.054,-4.437c2.096,-0.138 1.925,1.35 -0.492,2.754Zm-54.425,37.758c-0.187,2.196 -3.491,2.329 -5.212,1.863c-1.721,-0.471 -2.329,-0.884 -3.309,-1.071c-0.974,-0.183 -1.337,-1.238 -0.141,-1.071c6.612,0.933 8.804,-1.35 8.662,0.279Zm-3.929,5.709c-0.062,-1.175 1.308,-1.425 1.404,0.129c0.075,1.362 0.334,4.091 0.371,4.683c0.025,0.588 -1.546,1.7 -1.587,0.183c-0.034,-1.408 -0.079,-3.166 -0.188,-4.995Zm-6.079,1.8c0.029,-0.713 0.683,-1.305 1.146,-1.488c0.467,-0.183 0.846,0.029 0.846,0.838c-0,1.116 0.037,2.587 0.037,3.516c0,0.934 -2.046,1.213 -2.046,-0.371c0,-1.408 -0.012,-1.783 0.017,-2.495Zm9.812,7.758c1.671,-0.942 2.042,-0.046 2.042,0.308c0,1.421 -3.771,3.475 -9.679,3.475c-2.129,0 -3.979,-0.266 -5.471,-0.691c-0.737,-0.209 -0.967,-0.43 -0.908,-0.909c0.062,-0.521 1.012,-0.279 1.391,-0.229c1.4,0.192 3.084,0.229 4.988,0.029c3.317,-0.346 5.979,-1.041 7.637,-1.983Zm-4.149,6.587c-0.021,-1.679 3.07,-2.258 3.166,-0.958c0.079,1.067 0.246,2.771 0.596,5.121c0.087,0.558 0.1,0.775 -0.25,0.883c-0.879,0.254 -1.742,0.488 -2.875,0.65c-0.279,0.042 -0.417,-0.196 -0.433,-0.571c-0.088,-2.85 -0.18,-3.712 -0.204,-5.125Zm5.45,10.03c0.929,1.97 0.508,2.866 -0.659,3.054c-1.158,0.187 -4.65,0.375 -6.233,0.437c-1.35,0.05 -2.279,-0.562 -2.188,-2.004c0.096,-1.442 1.675,-2.65 4.046,-3.212c2.379,-0.555 4.658,0.937 5.034,1.725Zm-12.013,-4.821c0.062,-1.4 0.204,-2.117 0.558,-2.721c0.467,-0.792 0.65,-1.208 0.792,-1.904c0.142,-0.704 1.583,-2.375 1.583,-0.609c0,1.655 0.046,3.796 0.059,5.396c0.004,0.592 -0.263,0.638 -0.4,0.634c-0.763,-0.017 -1.505,-0.059 -2.221,-0.125c-0.134,-0.017 -0.404,-0.038 -0.371,-0.671Zm15.179,11.15c1.438,-0.184 3.95,0.141 3.813,1.441c-0.142,1.305 -0.675,2.005 -2.025,2.63c0.162,0.375 1,1.604 1.233,2.562c0.117,0.488 0.2,1.021 0.217,1.442c0.012,0.4 -0.334,0.762 -0.609,0.762c-0.283,0 -0.604,-0.387 -0.633,-0.625c-0.271,-2.096 -1.608,-3.975 -1.858,-3.929c-0.284,0.042 -0.817,0.042 -1.492,0.138c0.492,0.791 1,3.025 1.071,3.537c0.071,0.517 0.021,1.163 -0.621,1.242c-0.458,0.058 -0.575,-0.271 -0.642,-0.8c-0.137,-1.188 -0.879,-3.85 -1.158,-3.85c-0.275,-0 -4.267,0.262 -4.608,0.246c0.25,0.479 0.579,2.608 0.587,3.72c0.008,0.78 -0.637,1.159 -0.912,1.159c-0.442,-0 -0.934,-0.392 -1.029,-1.746c-0.088,-1.4 -0.234,-2.242 -0.413,-2.771c-0.075,-0.221 -0.138,-0.375 -0.5,-0.342c-0.25,0.025 -0.725,0.009 -0.871,0.009c-0.217,-0 -0.279,0.166 -0.241,0.466c0.024,0.292 0.216,2.18 0.216,3.2c0,0.859 -0.142,1.217 -0.65,1.217c-0.542,0 -0.858,-0.633 -0.887,-1.083c-0.038,-0.588 -0.1,-2.467 -0.196,-3.35c-0.029,-0.288 -0.238,-0.471 -0.479,-0.471c-0.155,-0 -0.325,-0.008 -1.067,-0.008c-0.263,-0 -0.4,0.204 -0.388,0.404c0.096,1.229 0.059,3.304 0.059,3.575c-0,0.471 -0.258,0.954 -0.863,0.954c-0.35,-0 -0.666,-0.396 -0.7,-0.883c-0.012,-0.238 -0.046,-2.421 -0.137,-3.663c-0.025,-0.333 -0.171,-0.45 -0.546,-0.45l-0.492,0c-0.341,0 -0.475,0.2 -0.5,0.529c-0.091,1.304 0.038,4.584 -0.312,4.684c-0.358,0.1 -2.367,-0.05 -4.125,-0.217c-0.959,-0.092 -0.746,-0.813 -1.517,-0.904c-0.562,-0.067 -0.979,-0.121 -0.979,-0.546c-0,-0.417 0.404,-2.508 0.962,-3.904c0.046,-0.929 -0.454,-0.884 -1.195,-2.375c-0.746,-1.484 -0.421,-1.817 0.416,-1.817c0.842,0 5.213,-0.133 8.009,0.375c2.791,0.513 9.17,0.654 12.054,0.654c2.887,0 2.562,-1.029 4.008,-1.212Zm2.858,-6.929c0.563,-0.313 1.121,1.15 0.421,1.233c-1.254,0.146 -1.033,-0.896 -0.421,-1.233Zm3.163,-1.075c0.908,0.158 2.121,1.375 0.887,2.212c-0.425,0.292 -0.92,0.475 -1.212,0.138c-0.375,-0.438 -0.558,-0.871 -0.629,-1.375c-0.121,-0.88 0.396,-1.075 0.954,-0.975Zm2.537,3.925c1.213,0.154 1.475,-0.5 2.563,-0.538c1.396,-0.046 1.7,1.538 0.417,2.304c-1.313,0.788 -1.08,1.446 -2.65,1.709c-1.134,0.183 -2.217,-0.25 -2.78,-1.055c-0.433,-0.62 0.034,-1.241 0.53,-1.583c0.491,-0.342 0.47,-1.021 1.92,-0.837Zm9.576,3.045c2.362,-0.037 3.537,1.946 4.037,3.163c0.217,0.537 0.287,0.946 -0.425,1.321c-0.921,0.496 -2.758,1.341 -5.579,2.291c-0.717,0.238 -0.9,-0.3 -0.917,-0.666c-0.025,-0.596 -0.15,-1.292 -0.525,-2.025c-0.675,-1.329 -1.925,-1.25 -2.358,-1.109c-0.746,0.246 -1.621,0.48 -3.75,0.992c-1.754,0.079 -1.7,-2.062 0.454,-1.679c1.35,0.246 2.479,-0.554 3.771,-1.767c1.533,-1.446 3.621,-2.479 5.292,-0.521Zm8.275,7.317c0.729,0.758 -0.046,1.721 -1.013,2.308c-1.725,1.046 -4.888,2.317 -10.875,3.546c-7.363,1.513 -16.771,2.342 -26.504,2.342c-9.738,-0 -19.15,-0.829 -26.509,-2.342c-0.729,-0.154 -1.42,-0.304 -2.083,-0.462c-0.054,-0.021 -0.112,-0.038 -0.179,-0.05c-2.213,-0.467 -1.296,-3.075 0.462,-2.617c0.096,0.025 0.184,0.042 0.267,0.063c0.667,0.158 1.375,0.316 2.138,0.475c7.166,1.47 16.366,2.279 25.904,2.279c9.537,-0 18.737,-0.809 25.904,-2.279c5.196,-1.071 8.125,-2.334 9.571,-3.063c1.687,-0.85 2.337,-0.808 2.917,-0.2Zm-70.134,-2.792c-0.779,0.217 -2.012,0.175 -2.104,-0.125c-0.013,-0.033 1.087,-3.483 3.121,-3.479c2.083,0 2.116,1.092 0.966,2.021c-1.141,0.929 -1.208,1.363 -1.983,1.583Zm-1.979,6.7c-0.833,-0.295 -1.562,-0.6 -2.188,-0.891c-0.983,-0.454 -1.429,-1.296 -0.775,-1.992c0.5,-0.533 1.626,-0.533 2.717,-0.083c0.338,0.146 0.709,0.291 1.125,0.441c1.721,0.746 0.846,3.038 -0.879,2.525Zm15.6,-18.395c1.179,-0.746 2.154,-0.963 3.258,-0.78c1.304,0.217 0.825,1.367 0.217,2.58c-0.608,1.204 -0.692,2.141 -2.263,1.608c-0.87,-0.292 -1.737,-0.65 -2.3,-1.083c-0.725,-0.563 0.259,-1.805 1.088,-2.325Zm4.538,15.525c-0.35,1.412 -0.626,1.229 -1.109,1.195c-1.258,-0.091 -0.821,-1.175 -0.558,-1.858c0.408,-1.058 0.871,-1.354 1.287,-1.367c1.025,-0.033 0.813,0.292 0.38,2.03Zm4.195,-13.405c0.621,-1.595 2.038,-2.095 2.696,-2.095c0.658,-0 1.613,0.062 1.917,2.516c0.296,2.446 -0.438,2.659 -2.229,2.563c-0.984,-0.05 -1.542,-0.113 -2.475,-0.25c-0.788,-0.121 -0.279,-1.771 0.091,-2.734Zm-13.916,-67.875c-5.213,-1.908 -11.875,-6.716 -8.85,-8.362c0.545,-0.3 1.141,-0.275 2.362,1.442c1.092,1.52 5.096,3.825 8.475,4.995c5.709,1.988 13.683,3.509 22.683,3.509c5.896,-0 12.192,-0.438 18.246,-1.521c1.525,-0.275 4.546,0.717 0.9,1.521c-4.933,1.087 -11.2,1.879 -18.462,1.95c-0.504,0.008 -3.2,0.046 -4.963,-0c-10.616,-0.25 -15.829,-1.863 -20.391,-3.534Zm7.312,30.238c-2.796,-0.913 -4.596,-1.625 -6.425,-2.592c-1.679,-0.883 -2.425,-2.433 -2.746,-3.071c-0.55,-1.07 -0.387,-2.433 -1.258,-3.487c-1.179,-1.429 -1.692,-3.713 -1.508,-6.317c0.179,-2.516 -0.121,-4.283 1.37,-4.904c1.488,-0.621 1.921,-0.187 2.484,-2.917c0.133,-0.675 0.221,-1.291 0.296,-1.829c0.054,-0.404 0.175,-1.091 0.991,-0.712c0.896,0.425 1.113,0.483 1.696,0.641c0.396,0.113 0.371,0.513 0.088,0.884c-0.217,0.275 -0.484,0.571 -0.646,0.816c-2.671,3.909 -4.292,8.08 -2.863,12.984c1.513,5.2 6.3,7.85 9.417,9.387c1.396,0.684 1.254,1.825 -0.896,1.117Zm-16.341,8.425c-0,-3.788 -1.8,-3.6 -1.613,-4.746c0.242,-1.492 3.946,1.058 3.946,5.567c-0,0.954 -0.071,1.871 -0.259,2.725l-0.016,0.083c-0.2,1.1 -0.646,2.15 -1.346,3.154c-1.025,1.529 -2.771,3.071 -4.342,2.709c-2.05,-0.463 -2.237,-2.459 -1.025,-3.163c1.925,-1.112 3.292,1.088 4.779,-0.896c0.675,-0.904 0.505,-1.1 0.705,-1.879c0.2,-0.771 -0.829,-2.679 -0.829,-3.554Zm-12.988,-1.988c1.4,1.009 1.879,3.792 1.258,5.775c-0.621,1.984 -1.983,1.3 -2.358,-0.558c-0.371,-1.862 -1.963,-2.708 -2.067,-4.1c-0.121,-1.675 1.679,-2.187 3.167,-1.117Zm-3.071,-2.095c-0.579,1.75 -2.608,1.608 -2.533,2.958c0.108,2.15 3.171,2.637 2.829,5.375c-0.454,3.637 0.729,4.862 2.796,5.621c1.858,0.679 2.658,-0.738 4.091,-0.567c1.5,0.188 3.105,1.867 1.805,2.054c-1.305,0.188 -1.663,0.188 -2.509,0.188c-3.191,-0 -6.171,-1.063 -8.379,-2.925c-2.092,-1.754 -3.225,-4.038 -3.2,-6.434c0.021,-2.745 1.05,-5.037 2.821,-6.645c1.771,-1.609 2.525,-0.363 2.279,0.375Zm20.017,24.108l-34.254,-9.188c-0,0 4.8,-9.17 12,-26.154c6.537,2.146 10.141,5.117 11.204,7.163c-1.271,-0.767 -2.759,-1.059 -3.817,-1.067c-7.679,-0.067 -12.429,5.033 -12.487,11.388c-0.059,6.354 6.116,11.554 13.8,11.612c3.016,0.029 5.808,-0.742 8.1,-2.071c1.404,-0.771 2.9,-1.962 4.058,-3.666c0.85,-1.221 1.433,-2.571 1.696,-4.021c0.208,-0.975 0.325,-2.05 0.312,-3.229c-0.091,-6.292 -2.391,-12.205 -20.354,-20.071c-0.241,-0.109 -0.479,-0.217 -0.717,-0.325c0.963,-2.321 1.963,-4.767 2.996,-7.342c5.4,8.5 13.446,13.729 20.4,16.879c-2.45,19.204 -2.937,30.092 -2.937,30.092Zm-51.579,-79.338c4.645,-13.108 19.191,-9.62 24.079,-3.354c3.937,5.046 4.354,10.759 4.112,14.521c-0.425,6.6 -2.787,12.433 0.967,16.7c-1.329,3.125 -2.629,6.104 -3.883,8.929c-18.975,-10.433 -29.059,-26.137 -25.275,-36.796Zm33.425,27.371c-0,0.429 -0.35,0.788 -0.784,0.788c-0.437,-0 -1.021,-0.763 -0.591,-0.846c0.141,-0.029 0.42,-0.196 0.537,-0.65c0.1,-0.421 0.838,0.267 0.838,0.708Zm-18.013,8.488c-7.412,-3.134 -17.808,-9.371 -22.804,-18.746c-3.275,-6.133 -3.308,-14.171 -1.492,-20.383c2.234,-7.638 11.542,-14.046 20.775,-14.046c7.246,-0 14.3,3.366 18.4,8.783c3.179,4.196 4.567,9.933 3.779,19.129c-0.291,3.35 -0.637,5.917 1.821,7.754c1.738,1.309 3.009,0.275 4.675,0.275c1.609,0 1.929,-2.354 2.896,-1.608c0.688,0.529 0.188,1.617 -1.646,2.333c-0.329,0.125 0.159,1.471 -0.483,2.65c-2.088,3.805 -3.121,9.067 -1.442,9.88c1.154,0.562 0.517,-1.988 1.554,-4.9c0.688,-1.921 2.505,-5.25 5.388,-6.888c0.379,-0.221 1.162,-0.558 2.017,0.113c0.529,0.412 1.146,0.954 1.775,1.354c1.091,0.7 0.65,1.187 0.416,1.429c-0.291,0.304 -0.625,0.604 -1,0.887c-1.087,0.83 -3.296,3.888 -1.8,4.78c1.6,0.958 2.979,2.425 1.18,2.358c-0.88,-0.025 -2.921,-0.188 -2.855,3.042c0.075,3.933 2.625,6.895 4.196,8.82c0.808,0.984 1.654,1.771 1.163,2.096c-0.313,0.209 -1.567,-0.337 -2.967,-1.187c-2.675,-1.629 -5.854,-3.959 -8.642,-6.734c-3.271,-3.25 -4.108,-6.125 -4.425,-7.558c-1.112,-5.029 1.417,-8.529 0.559,-9.121c-1.705,-1.179 -1.863,3.354 -3.967,3.696c-3.479,0.563 0.213,-9.833 -0.375,-16.446c-0.129,-1.4 -0.342,-2.762 -0.633,-4.071c-0.229,-1.012 -0.063,-2.62 -0.392,-3.566c-0.45,-1.275 -1.433,-1.863 -2.058,-2.988c-0.475,-0.854 -1,-1.658 -1.571,-2.408c-0.8,-1.05 -2.604,-1.963 -3.55,-2.738c-0.034,-0.037 -0.075,-0.079 -0.138,-0.129c-1.475,-1.196 -0.395,-2.254 -0.816,-3.375c-0.417,-1.112 -2.371,-1.904 -3.346,-2.279c-0.984,-0.375 -2.238,-0.933 -2.517,-0.279c-0.279,0.654 0.529,1.417 2.3,1.883c2.508,0.659 1.367,2.142 -0.471,1.367c-2.475,-1.05 -4.366,-1.329 -7.012,-1.329c-6.554,-0 -13.238,4.221 -15.208,10.975c-2.025,6.966 -0.217,15.646 5.991,23.708c1.838,2.383 2.517,3.229 3.508,4.471c1.663,2.079 1.825,3.796 2.788,4.521c0.846,0.633 2.85,0.504 3.742,1.154c2.6,1.879 6.475,4.237 6.4,4.408c-0.159,0.367 -0.617,0.221 -3.713,-1.087Zm44.321,-21.971c-0.558,0.696 -0.863,1.267 -1.8,1.037c-1.608,-0.395 -2.025,-1.629 1.65,-3.07c0.804,-0.317 1.375,0.512 0.15,2.033Zm4.537,-72.721l6.367,-23.754c-31.354,-8.404 -50.037,-1.296 -50.037,-1.296l9.066,-33.808c0,-0 12.863,15.458 43.996,23.8c1.058,-3.946 0.629,-2.325 1.538,-5.729c8.925,-33.3 2.541,-54.688 2.541,-54.688l33.809,9.067c-0,-0 -16.096,15.241 -25.046,48.646c-0.904,3.383 -0.471,1.762 -1.538,5.733c30.763,8.242 49.913,1.383 49.913,1.383l-9.067,33.809c0,-0 -12.408,-15.459 -43.871,-23.888l-6.366,23.754c-6.263,23.363 -10.905,44.534 -14.35,62.834c-1.909,0.154 -3.909,0.479 -3.909,2.758c-2.691,-0.096 -4.583,0.275 -5.508,1.562c-3.546,-3.204 -7.971,-0.645 -7.238,3.534c-1.716,1.162 -3.129,1.571 -4.266,1.496c7.529,-20.155 16.004,-45.496 23.966,-75.213Zm9.359,70.829c0.812,0 1.229,0.675 1.329,3.75c0.075,2.3 -1.279,3.417 -2.862,3.417c-5.213,-0 -0.426,-7.167 1.533,-7.167Zm2.166,-8.816c0.684,-0.667 1.171,-0.242 1.084,0.295c-0.184,1.042 0.137,1.992 -0.879,1.913c-0.917,-0.071 -0.767,-1.663 -0.205,-2.208Zm2.171,12.566c0.271,-3.075 1.013,-4.125 1.83,-4.125c1.954,0 2.95,8.284 -0.026,8.284c-1.579,-0 -2.004,-1.859 -1.804,-4.159Zm3.588,-14.425c0.421,-0.229 0.796,0.442 0.962,0.975c0.217,0.696 -0.016,1.054 -0.421,1.042c-0.4,-0.017 -0.512,-0.296 -0.541,-0.65c-0.029,-0.358 -0.234,-1.242 -0,-1.367Zm3.941,1.671c0.767,0.679 1.046,2.525 0.171,2.7c-1.146,0.217 -0.608,-0.887 -1.016,-2.367c-0.163,-0.583 0.087,-1.02 0.845,-0.333Zm2.155,16.542c-1.584,-0 -2.113,-1.488 -2.484,-3.788c-0.496,-3.075 -0.283,-3.75 0.53,-3.75c1.958,0 7.166,7.538 1.954,7.538Zm0.775,-16.729c0.887,0.75 1.333,2.77 0.391,2.95c-1.233,0.241 -0.733,-0.959 -1.287,-2.575c-0.221,-0.642 0.012,-1.117 0.896,-0.375Zm6.533,8.212c1.179,-0.312 4.05,0.838 5.908,2.742c1.863,1.912 3.588,3.587 1.121,4.237c-2.467,0.654 -3.487,-0.787 -4.517,-2.466c-2.17,-3.55 -4.095,-4.096 -2.512,-4.513Zm6.9,0.508c0.946,-0.729 5.55,0.1 8.179,1.492c2.375,1.254 2.65,1.954 1.446,2.608c-1.213,0.655 -2.146,-0.495 -3.479,-0.495c-2,-0 -2.283,1.179 -3.85,-0.746c-1.608,-1.988 -3.129,-2.204 -2.296,-2.859Zm13.067,5.155c1.02,0.712 -0.321,1.366 -1.675,1.904c-1.18,0.462 -2.259,0.904 -5.35,1.6c-1.317,0.3 -2.563,-0.884 -1.4,-1.204c1.166,-0.33 4.937,-1.634 6.095,-2.192c1.167,-0.558 1.68,-0.563 2.33,-0.108Zm68.095,-5.809c-2.508,-0.037 -5.049,0.188 -8.929,0.188c-0.629,-0 -1.3,0.004 -2.004,0.012c-0.067,-1.8 -1.062,-3.358 -2.517,-4.221c-0.016,-0.012 -0.029,-0.025 -0.049,-0.037c-1.246,-0.717 -2.192,-0.742 -2.034,-2.017c0.117,-0.937 0.246,-1.491 0.442,-2.358c1.804,-7.838 6.571,-13.338 7.967,-21.817c2.129,-12.879 -6.7,-25.225 -6.7,-25.225c-0,0 -0.813,5.7 -3.355,11.821c-2.537,6.121 -6.516,10.988 -6.516,18.992c-0,5.129 1.833,8.887 3.304,12.337c0.779,1.838 3.675,6.325 1.033,8.904c0,0.009 -0.008,0.013 -0.008,0.017c-1.075,0.996 -1.779,2.433 -1.85,3.938c-8.179,0.395 -17.817,1.133 -26.304,2.229c-4.98,0.641 -15.946,3.079 -17.434,2.766c-1.916,-0.4 -4.87,-3.279 -6.783,-4.262c-2.883,-1.75 -9.792,-2.35 -9.792,-2.35c0,-4.367 -7.321,-1.563 -7.321,-4.121c0,-2.562 -5.641,-5.671 -8.541,-7.112c-2.596,-1.3 -2.117,-3.946 -1.992,-4.488c0.008,-0.004 0.008,-0.008 0.008,-0.017c0.242,-0.554 0.371,-1.166 0.371,-1.804c0,-2.546 -2.062,-4.6 -4.6,-4.6c-2.546,0 -4.604,2.054 -4.604,4.6c0,0.609 0.117,1.192 0.338,1.721c-0,0.017 0.008,0.042 0.012,0.05c0.1,0.404 0.713,3.196 -1.975,4.538c-2.9,1.441 -8.542,4.55 -8.542,7.112c0,0.792 -0.704,1.071 -1.67,1.208c3.366,-17.837 7.966,-38.916 14.216,-62.241l4.971,-18.546l1.313,0.354c27.012,7.238 35.629,23.288 35.708,23.446c0.242,0.467 0.683,0.792 1.204,0.883c0.517,0.092 1.046,-0.066 1.429,-0.425l5.142,-4.787c0.225,-0.217 0.396,-0.492 0.475,-0.796l9.062,-33.808c0.163,-0.6 -0.025,-1.242 -0.479,-1.663c-0.458,-0.425 -1.112,-0.554 -1.7,-0.35c-0.075,0.025 -7.412,2.579 -20.016,2.579c-8.754,0 -17.925,-1.204 -27.28,-3.579l1.105,-4.104c4.545,-16.975 10.987,-29.083 15.587,-36.254c4.992,-7.767 8.95,-11.575 8.992,-11.609c0.437,-0.416 0.621,-1.037 0.471,-1.629c-0.15,-0.587 -0.605,-1.05 -1.188,-1.204l-33.812,-9.066c-0.305,-0.08 -0.625,-0.075 -0.921,0.016l-6.721,2.05c-0.446,0.142 -0.813,0.454 -1.017,0.875c-0.204,0.421 -0.225,0.904 -0.058,1.338c0.083,0.216 8.246,21.829 -0.438,54.225l-0.104,0.404c-26.466,-8.3 -37.85,-21.613 -37.962,-21.746c-0.525,-0.629 -1.421,-0.788 -2.125,-0.379l-4.563,2.633c-0.383,0.221 -0.666,0.587 -0.779,1.017l-10.221,38.121c-0.179,0.654 0.059,1.35 0.596,1.766c0.533,0.409 1.267,0.463 1.854,0.125c3.563,-2.037 13.938,-5.883 27.729,-5.883c6.709,-0 13.625,0.875 20.575,2.604l-6.12,22.842c-6.784,25.321 -14.371,47.554 -21.575,66.129c0.416,-8.008 -0.296,-14.871 -4.25,-20.092c-5.33,-7.046 -15.105,-10.816 -24.046,-9.371c-8.404,1.367 -17.579,7.088 -20.638,15.705c-6.162,17.362 2.504,34.966 35.513,45.587c-9.088,19.842 -15.617,30.846 -15.754,31.071c-0.271,0.454 -0.313,1.008 -0.117,1.496c0.2,0.483 0.612,0.85 1.121,0.987l35.696,9.571c0.141,0.038 0.287,0.058 0.433,0.058c0.292,0 0.579,-0.075 0.842,-0.229l7.296,-4.208c0.495,-0.288 0.808,-0.804 0.833,-1.375c0.008,-0.121 0.504,-10.85 2.862,-29.467c6.921,2.896 12.396,3.717 12.396,3.717c0.65,4.371 4.775,6.533 4.775,6.533c-0.408,3.921 -0.562,5.571 -0.821,8.017c-3.312,1.342 -5.854,4.412 -0.737,7.083c-0.409,4.038 -2.042,6.75 -2.042,6.75c0,0 -8.466,0.454 -10.933,4.85c-4.696,0 -8.813,3.521 -9.546,5.342c-3.858,-0 -5.271,5.117 -5.271,5.117c-3.742,1.508 -5.762,2.883 -5.762,4.77c-0,5.567 18.704,10.075 41.779,10.075c23.071,0 41.775,-4.508 41.775,-10.075c-0,-1.908 -2.046,-3.254 -5.863,-4.77c0,-0 -1.416,-5.117 -5.275,-5.117c-0.733,-1.821 -4.854,-5.342 -9.546,-5.342c-2.462,-4.396 -10.937,-4.85 -10.937,-4.85c-0,0 -1.646,-2.841 -2.054,-6.875c6.05,-3.2 0.587,-6.521 -0.721,-6.958c-0.208,-1.95 -0.55,-5.796 -0.821,-8.017c4.813,-2.366 4.271,-6.687 4.271,-6.687c-0,-0 14.121,-0.988 32.7,-17.242c9.9,-8.654 19.242,-14.712 27.433,-17.929c17.421,-6.846 29.621,-3.454 30.8,-3.321c1.58,0.188 3.209,-0.667 3.442,-1.75c0.229,-1.083 -0.417,-2.367 -2.138,-2.396Z" style="fill:#00427a;fill-rule:nonzero;"/><rect x="1219.73" y="145.454" width="15.983" height="114.067" style="fill:#00aaad;fill-rule:nonzero;"/><path d="M1310.58,145.454l15.646,0l-0,114.067l-16.821,-0c-17.612,-44.975 -29.104,-74.809 -34.492,-89.5c0,1.233 0.226,3.812 0.676,7.737c0.895,9.754 1.345,20.579 1.345,32.471l0,49.292l-15.479,-0l0,-114.067l16.996,0c15.583,39.483 25.063,63.929 28.429,73.354c3.363,9.421 5.271,14.75 5.717,15.979c-0,-1.008 -0.304,-5.97 -0.921,-14.887c-0.621,-8.917 -0.983,-17.521 -1.096,-25.825l0,-48.621Z" style="fill:#00aaad;fill-rule:nonzero;"/><path d="M1402.44,145.454l-0,13.967l-21.705,-0l0,100.1l-15.983,-0l-0,-100.1l-21.7,-0l-0,-13.967l59.388,0Z" style="fill:#00aaad;fill-rule:nonzero;"/><path d="M1419.09,145.454l51.983,0l-0,13.967l-36.171,-0l0,35.496l31.463,-0l-0,13.962l-31.463,0l0,36.846l36.171,-0l-0,13.796l-51.983,-0l-0,-114.067Z" style="fill:#00aaad;fill-rule:nonzero;"/><path d="M1507.92,159.25l-0,42.562l13.458,0c4.713,0 8.1,-1.062 10.179,-3.195c2.075,-2.13 3.113,-5.384 3.113,-9.759l-0,-16.987c-0,-8.413 -4.434,-12.621 -13.292,-12.621l-13.458,-0Zm-0,55.854l-0,44.417l-15.813,-0l0,-114.067l30.617,0c8.971,0 15.841,2.246 20.608,6.733c4.767,4.484 7.15,10.709 7.15,18.671l0,18.171c0,12.45 -4.767,20.471 -14.3,24.058l18.171,46.434l-17.496,-0l-16.321,-44.417l-12.616,0Z" style="fill:#00aaad;fill-rule:nonzero;"/><path d="M1624.33,145.454l15.646,0l0,114.067l-16.821,-0c-17.612,-44.975 -29.104,-74.809 -34.491,-89.5c-0,1.233 0.225,3.812 0.675,7.737c0.895,9.754 1.345,20.579 1.345,32.471l0,49.292l-15.479,-0l0,-114.067l16.992,0c15.588,39.483 25.067,63.929 28.433,73.354c3.363,9.421 5.271,14.75 5.721,15.979c0,-1.008 -0.308,-5.97 -0.925,-14.887c-0.621,-8.917 -0.983,-17.521 -1.096,-25.825l0,-48.621Z" style="fill:#00aaad;fill-rule:nonzero;"/><path d="M1660.87,169.683c-0,-7.962 2.608,-14.133 7.821,-18.508c5.216,-4.375 12.645,-6.558 22.291,-6.558c9.646,-0 17.5,1.008 23.554,3.024l0,15.142c-6.054,-2.354 -13.404,-3.533 -22.037,-3.533c-10.429,-0 -15.646,3.871 -15.646,11.608l-0,6.563c-0,3.591 0.7,6.421 2.104,8.496c1.4,2.075 3.892,4.12 7.484,6.141l19.516,10.934c9.083,4.937 13.625,12.395 13.625,22.375l0,9.42c0,8.188 -2.858,14.5 -8.579,18.925c-5.721,4.438 -13.767,6.65 -24.142,6.65c-10.375,0 -18.704,-1.179 -24.983,-3.537l-0,-15.138c7.404,2.692 15.196,4.038 23.383,4.038c12.225,-0 18.342,-4.15 18.342,-12.45l-0,-5.721c-0,-3.362 -0.621,-5.971 -1.85,-7.825c-1.237,-1.85 -3.533,-3.671 -6.9,-5.467l-19.008,-10.429c-9.988,-5.383 -14.975,-13.4 -14.975,-24.058l-0,-10.092Z" style="fill:#00aaad;fill-rule:nonzero;"/><rect x="1827.08" y="144.292" width="15.979" height="114.062" style="fill:#00aaad;fill-rule:nonzero;"/><path d="M1912.65,172.375c0,-8.638 -4.483,-12.954 -13.454,-12.954l-13.292,-0l0,48.954l13.292,-0c8.971,-0 13.454,-4.371 13.454,-13.121l0,-22.879Zm-42.558,-26.921l30.612,0c8.975,0 15.846,2.246 20.613,6.733c4.767,4.484 7.15,10.767 7.15,18.842l-0,25.571c-0,8.075 -2.383,14.358 -7.15,18.842c-4.767,4.487 -11.638,6.729 -20.613,6.729l-14.8,-0l0,37.35l-15.812,-0l-0,-114.067Z" style="fill:#00aaad;fill-rule:nonzero;"/><path d="M1750.68,216.783l4.942,-24.666l32.133,-0l-4.941,24.666l-32.134,0Zm44.355,-60.979l-4.946,24.667l-32.134,-0l4.946,-24.667l32.134,0Zm-29.801,-11.65l4.946,-24.687l32.134,-0l-4.946,24.687l-32.134,0Zm44.359,-61.004l-4.942,24.671l-32.133,-0l4.941,-24.671l32.134,-0Zm8.571,-42.758l-6.238,31.112l-32.133,0l6.237,-31.112l-15.983,-0l-43.913,219.129l15.984,-0l6.229,-31.088l32.133,0l-6.233,31.088l16.15,-0l43.917,-219.129l-16.15,-0Z" style="fill:#00aaad;fill-rule:nonzero;"/><path d="M1225.39,332.896c3.112,3.283 7.908,6.225 12.537,6.225c9.342,-0 12.621,-7.15 12.621,-18.679c0,-12.621 -4.963,-16.321 -11.108,-16.321c-5.634,-0 -10.771,3.029 -14.05,5.383l-0,23.392Zm-6.563,10.096c0.421,-2.863 0.925,-7.909 0.925,-11.946l0,-44.679c0,-0.925 -0.254,-1.517 -1.096,-1.767l-5.133,-1.6l0.675,-3.533l11.192,-0l-0,24.82c4.037,-2.441 8.916,-5.133 14.979,-5.133c9.504,0 15.733,6.142 15.733,20.613c0,17.337 -7.067,24.233 -17.671,24.233c-4.966,-0 -9.341,-1.429 -13.379,-5.046l-0.171,0.088l-0.416,3.95l-5.638,-0Z" style="fill:#4c4c4e;fill-rule:nonzero;"/><path d="M1266.6,360.833l0,-3.787l5.892,-0.671c1.008,-0.088 1.266,-0.592 1.767,-1.767l5.387,-12.454l-14.808,-36.183c-0.421,-1.013 -0.759,-1.175 -1.767,-1.434l-3.45,-0.837l0.838,-3.7l15.991,-0l0,3.7l-5.721,0.671l12.029,31.05l12.542,-31.05l-5.812,-0.671l0.845,-3.7l15.309,-0l-0,3.7l-2.854,0.421c-1.096,0.166 -1.684,0.504 -2.105,1.429l-21.291,50.825l7.912,0.754l0,3.704l-20.704,0Z" style="fill:#4c4c4e;fill-rule:nonzero;"/><path d="M1378.75,339.629c-4.379,3.025 -12.117,4.371 -19.858,4.371c-20.363,-0 -28.442,-13.292 -28.442,-31.971c-0,-17.754 9.846,-31.05 29.787,-31.05c7.571,0 14.305,1.767 18.342,4.463l0,12.283l-4.287,-0.25l-1.434,-7.913c-0.083,-0.67 -0.171,-1.179 -1.091,-1.512c-3.2,-1.183 -7.488,-2.104 -11.955,-2.104c-14.212,-0 -23.475,9.337 -23.475,26.166c0,17.588 8.755,26.93 22.888,26.93c4.296,-0 9.592,-0.425 13.129,-2.025c0.588,-0.25 0.921,-0.588 1.092,-1.425l1.346,-7.492l3.958,-0l0,11.529Z" style="fill:#4c4c4e;fill-rule:nonzero;"/><path d="M1413.99,323.304l-11.021,1.008c-8.075,0.759 -10.267,3.113 -10.267,7.83c0,5.045 2.525,7.15 6.9,7.15c5.804,-0 11.275,-3.788 14.388,-7.909l-0,-8.079Zm1.095,19.688l-0.758,-5.638l-0.254,-0.083c-4.459,4.125 -9.167,6.729 -15.567,6.729c-10.512,-0 -11.691,-7.233 -11.691,-11.188c-0,-8.412 5.216,-11.95 15.141,-12.875l12.034,-1.091l-0,-4.713c-0,-7.071 -1.43,-10.183 -9.592,-10.183c-5.634,-0 -9.929,-0 -10.013,6.817l-5.383,-0.675c0,-9.925 9.254,-10.938 15.479,-10.938c11.529,0 15.146,3.367 15.146,14.808l0,23.055c0,1.35 0.088,1.516 1.346,1.687l4.379,0.588l-0,3.7l-10.267,-0Z" style="fill:#4c4c4e;fill-rule:nonzero;"/><path d="M1457.73,341.646c-3.2,1.262 -6.816,2.354 -10.854,2.354c-7.321,-0 -10.858,-3.7 -10.858,-10.433l-0,-28.017c-0,-0.504 -0,-0.842 -0.671,-0.842l-6.229,0l-0,-3.787c6.229,-0.842 7.658,-3.025 8.754,-11.359l3.787,0l0,9.592c0,0.504 0,0.846 0.671,0.846l12.538,-0l-0,4.708l-13.209,0l0,26.754c0,5.388 1.513,7.492 6.396,7.492c2.775,0 5.633,-0.758 8.075,-1.683l1.6,4.375Z" style="fill:#4c4c4e;fill-rule:nonzero;"/><path d="M1495.08,321.371c0,-11.529 -4.375,-17.25 -13.629,-17.25c-9.338,-0 -14.554,5.804 -14.554,17.329c-0,11.529 4.796,17.925 14.133,17.925c9.254,-0 14.05,-6.146 14.05,-18.004Zm-33.992,-0c0,-13.125 6.567,-22.217 20.529,-22.217c13.884,0 19.271,9.092 19.271,21.625c0,14.054 -6.225,23.221 -20.108,23.221c-13.971,-0 -19.692,-9.425 -19.692,-22.629Z" style="fill:#4c4c4e;fill-rule:nonzero;"/><path d="M1866.46,44.375l-3.388,16.879l-3.029,0l3.358,-16.879l-5.6,-0l0.529,-2.692l14.271,0l-0.529,2.692l-5.612,-0Z" style="fill:#4c4c4e;fill-rule:nonzero;"/><path d="M1876.76,46.671l-1.766,8.862c-0.054,0.263 -0.1,0.525 -0.13,0.788c-0.033,0.258 -0.041,0.492 -0.041,0.7c-0,0.654 0.137,1.162 0.421,1.512c0.283,0.354 0.75,0.534 1.4,0.534c0.933,-0 1.766,-0.413 2.495,-1.234c0.43,-0.487 0.792,-1.025 1.084,-1.612c0.283,-0.592 0.487,-1.175 0.6,-1.754l1.571,-7.796l2.916,-0l-2.441,12.146l1.879,-0l-0.475,2.437l-2.242,0c-0.654,0 -1.167,-0.175 -1.529,-0.517c-0.367,-0.346 -0.55,-0.82 -0.55,-1.42c0,-0.242 0.033,-0.521 0.087,-0.838l0.055,-0.337l-0.142,-0c-0.542,1.12 -1.171,1.975 -1.875,2.562c-0.717,0.592 -1.587,0.888 -2.638,0.888c-1.195,-0 -2.099,-0.35 -2.704,-1.038c-0.608,-0.691 -0.908,-1.658 -0.908,-2.887c-0,-0.321 0.017,-0.634 0.054,-0.955c0.033,-0.32 0.092,-0.662 0.163,-1.037l1.8,-9.004l2.916,-0Z" style="fill:#4c4c4e;fill-rule:nonzero;"/><path d="M1902.1,59.096c1.067,-0 1.925,-0.334 2.584,-0.996c0.65,-0.663 1.108,-1.638 1.37,-2.929l0.421,-2.05c0.038,-0.225 0.067,-0.471 0.096,-0.742c0.033,-0.271 0.046,-0.529 0.046,-0.771c-0,-0.821 -0.196,-1.492 -0.588,-2.008c-0.391,-0.508 -0.996,-0.771 -1.8,-0.771c-0.579,0 -1.095,0.133 -1.554,0.392c-0.458,0.266 -0.862,0.604 -1.221,1.017c-0.391,0.445 -0.729,0.933 -0.991,1.454c-0.271,0.525 -0.475,1.112 -0.605,1.766l-0.533,2.667c-0.171,0.837 -0.021,1.546 0.446,2.117c0.467,0.57 1.246,0.854 2.329,0.854Zm-3.816,-12.425l2.92,-0l-0.641,3.254l0.108,-0c0.596,-1.196 1.258,-2.096 1.975,-2.692c0.721,-0.6 1.642,-0.896 2.763,-0.896c1.345,0 2.387,0.484 3.112,1.459c0.729,0.971 1.096,2.271 1.096,3.896c-0,1.275 -0.163,2.504 -0.475,3.7c-0.321,1.195 -0.779,2.254 -1.392,3.166c-0.608,0.921 -1.337,1.654 -2.2,2.205c-0.858,0.549 -1.829,0.829 -2.916,0.829c-0.955,-0 -1.776,-0.242 -2.471,-0.734c-0.688,-0.483 -1.109,-1.166 -1.259,-2.041l-0.141,-0l-1.596,8.045l-2.917,0l4.034,-20.191Z" style="fill:#4c4c4e;fill-rule:nonzero;"/><path d="M1912.4,61.254l2.917,-14.583l2.912,-0l-0.612,3.112l0.166,0c0.163,-0.375 0.375,-0.742 0.629,-1.116c0.25,-0.375 0.559,-0.709 0.909,-1c0.358,-0.288 0.762,-0.525 1.225,-0.713c0.454,-0.187 0.975,-0.283 1.554,-0.283l0.812,-0l-0.587,2.891l-0.984,0c-1.291,0 -2.291,0.309 -2.999,0.926c-0.709,0.616 -1.171,1.454 -1.376,2.524l-1.649,8.242l-2.917,0Z" style="fill:#4c4c4e;fill-rule:nonzero;"/><path d="M1928.77,44.067c-0.538,-0 -0.93,-0.117 -1.175,-0.338c-0.242,-0.225 -0.367,-0.504 -0.367,-0.842c0,-0.187 0.05,-0.516 0.142,-0.979c0.096,-0.429 0.291,-0.791 0.587,-1.083c0.304,-0.287 0.779,-0.433 1.433,-0.433c0.542,-0 0.934,0.116 1.18,0.337c0.241,0.225 0.362,0.504 0.362,0.842c0,0.187 -0.046,0.512 -0.137,0.979c-0.096,0.429 -0.292,0.792 -0.592,1.083c-0.3,0.288 -0.775,0.434 -1.433,0.434Zm-2.325,17.187c-0.709,0 -1.25,-0.183 -1.625,-0.55c-0.375,-0.358 -0.563,-0.833 -0.563,-1.412c0,-0.188 0.029,-0.421 0.088,-0.7l2.383,-11.921l2.917,-0l-2.442,12.146l1.879,-0l-0.475,2.437l-2.162,0Z" style="fill:#4c4c4e;fill-rule:nonzero;"/><path d="M1932.25,61.254l2.916,-14.583l2.917,-0l-0.617,3.112l0.138,0c0.542,-1.116 1.162,-1.975 1.867,-2.562c0.704,-0.592 1.591,-0.884 2.679,-0.884c1.062,0 1.875,0.305 2.437,0.909c0.559,0.608 0.88,1.458 0.95,2.537l0.142,0c0.521,-1.1 1.158,-1.954 1.896,-2.55c0.733,-0.6 1.666,-0.896 2.787,-0.896c1.179,0 2.059,0.338 2.654,1.026c0.588,0.679 0.88,1.629 0.88,2.845c-0,0.671 -0.084,1.4 -0.25,2.188l-1.292,6.421l1.767,-0l-0.475,2.437l-2.221,0c-0.634,0 -1.129,-0.158 -1.496,-0.462c-0.367,-0.309 -0.546,-0.763 -0.546,-1.359c0,-0.241 0.025,-0.479 0.083,-0.704l1.263,-6.333c0.054,-0.284 0.1,-0.555 0.142,-0.813c0.037,-0.266 0.054,-0.508 0.054,-0.729c-0,-0.637 -0.146,-1.129 -0.433,-1.475c-0.292,-0.342 -0.746,-0.517 -1.363,-0.517c-0.858,0 -1.654,0.413 -2.383,1.234c-0.413,0.446 -0.759,0.971 -1.038,1.566c-0.279,0.6 -0.475,1.18 -0.587,1.742l-1.571,7.85l-2.917,0l1.767,-8.833c0.054,-0.283 0.1,-0.554 0.141,-0.825c0.038,-0.275 0.055,-0.529 0.055,-0.771c-0,-0.617 -0.138,-1.1 -0.404,-1.446c-0.271,-0.342 -0.709,-0.517 -1.309,-0.517c-0.483,0 -0.933,0.109 -1.346,0.334c-0.408,0.225 -0.775,0.525 -1.091,0.9c-0.434,0.483 -0.792,1.016 -1.092,1.596c-0.3,0.579 -0.504,1.15 -0.617,1.712l-1.571,7.85l-2.916,0Z" style="fill:#4c4c4e;fill-rule:nonzero;"/><path d="M1965.11,48.667c-1.012,-0 -1.883,0.341 -2.625,1.025c-0.737,0.691 -1.216,1.616 -1.441,2.779l-0.142,0.737c1.329,-0.054 2.413,-0.15 3.254,-0.283c0.842,-0.133 1.496,-0.313 1.975,-0.533c0.475,-0.23 0.8,-0.504 0.971,-0.825c0.167,-0.317 0.25,-0.684 0.25,-1.096c0,-0.359 -0.062,-0.654 -0.196,-0.888c-0.133,-0.237 -0.3,-0.425 -0.521,-0.566c-0.212,-0.142 -0.45,-0.238 -0.712,-0.284c-0.263,-0.046 -0.533,-0.066 -0.813,-0.066Zm-1.737,12.925c-1.892,-0 -3.321,-0.542 -4.304,-1.613c-0.98,-1.075 -1.475,-2.596 -1.475,-4.558c-0,-1.196 0.183,-2.342 0.55,-3.434c0.362,-1.095 0.879,-2.062 1.554,-2.899c0.671,-0.846 1.483,-1.513 2.437,-2.009c0.955,-0.496 2.021,-0.742 3.2,-0.742c0.579,0 1.163,0.075 1.75,0.225c0.592,0.15 1.117,0.384 1.584,0.705c0.466,0.316 0.845,0.729 1.137,1.233c0.288,0.508 0.434,1.121 0.434,1.833c-0,1.555 -0.78,2.746 -2.342,3.571c-1.559,0.821 -4.004,1.275 -7.334,1.346c-0.054,0.375 -0.079,0.687 -0.079,0.929c0,0.896 0.246,1.621 0.742,2.158c0.492,0.542 1.275,0.813 2.342,0.813c0.804,-0 1.533,-0.175 2.187,-0.529c0.65,-0.359 1.275,-0.909 1.879,-1.659l1.846,1.534c-0.917,1.133 -1.879,1.937 -2.887,2.395c-1.009,0.467 -2.08,0.701 -3.221,0.701Z" style="fill:#4c4c4e;fill-rule:nonzero;"/><path d="M1972.38,61.254l2.917,-14.583l2.916,-0l-0.616,3.112l0.166,0c0.167,-0.375 0.375,-0.742 0.63,-1.116c0.254,-0.375 0.558,-0.709 0.908,-1c0.358,-0.288 0.762,-0.525 1.225,-0.713c0.458,-0.187 0.975,-0.283 1.554,-0.283l0.813,-0l-0.588,2.891l-0.979,0c-1.292,0 -2.292,0.309 -3.004,0.926c-0.709,0.616 -1.167,1.454 -1.375,2.524l-1.65,8.242l-2.917,0Z" style="fill:#4c4c4e;fill-rule:nonzero;"/><path d="M1997.97,59.096c1.07,-0 1.925,-0.334 2.583,-0.996c0.654,-0.663 1.108,-1.638 1.375,-2.929l0.421,-2.05c0.033,-0.225 0.066,-0.471 0.096,-0.742c0.029,-0.271 0.046,-0.529 0.046,-0.771c-0,-0.821 -0.2,-1.492 -0.592,-2.008c-0.392,-0.508 -0.996,-0.771 -1.796,-0.771c-0.579,0 -1.096,0.133 -1.558,0.392c-0.455,0.266 -0.863,0.604 -1.217,1.017c-0.392,0.445 -0.725,0.933 -0.996,1.454c-0.271,0.525 -0.471,1.112 -0.604,1.766l-0.533,2.667c-0.167,0.837 -0.017,1.546 0.45,2.117c0.466,0.57 1.246,0.854 2.325,0.854Zm-3.809,-12.425l2.917,-0l-0.646,3.254l0.109,-0c0.6,-1.196 1.262,-2.096 1.979,-2.692c0.72,-0.6 1.641,-0.896 2.758,-0.896c1.346,0 2.387,0.484 3.112,1.459c0.73,0.971 1.096,2.271 1.096,3.896c0,1.275 -0.158,2.504 -0.475,3.7c-0.316,1.195 -0.779,2.254 -1.391,3.166c-0.609,0.921 -1.338,1.654 -2.2,2.205c-0.859,0.549 -1.829,0.829 -2.917,0.829c-0.954,-0 -1.775,-0.242 -2.462,-0.734c-0.696,-0.483 -1.113,-1.166 -1.263,-2.041l-0.142,-0l-1.6,8.045l-2.916,0l4.041,-20.191Z" style="fill:#4c4c4e;fill-rule:nonzero;"/><path d="M2014.01,59.096c0.6,-0 1.13,-0.129 1.588,-0.396c0.458,-0.258 0.871,-0.596 1.246,-1.008c0.804,-0.859 1.337,-1.942 1.6,-3.254l0.587,-2.942c0.054,-0.317 0.038,-0.634 -0.054,-0.954c-0.096,-0.317 -0.267,-0.605 -0.508,-0.855c-0.242,-0.25 -0.554,-0.454 -0.938,-0.616c-0.383,-0.159 -0.816,-0.242 -1.304,-0.242c-1.083,0 -1.95,0.334 -2.608,1c-0.655,0.663 -1.109,1.638 -1.375,2.929l-0.421,2.046c-0.034,0.225 -0.067,0.479 -0.096,0.758c-0.025,0.28 -0.046,0.534 -0.046,0.759c0,0.821 0.196,1.491 0.575,2c0.388,0.516 0.971,0.775 1.754,0.775Zm5.663,2.158c-0.65,0 -1.171,-0.171 -1.55,-0.504c-0.384,-0.338 -0.575,-0.804 -0.575,-1.404c-0,-0.317 0.025,-0.588 0.083,-0.813l0.113,-0.529l-0.113,-0c-0.6,1.196 -1.262,2.088 -1.979,2.688c-0.721,0.595 -1.642,0.9 -2.758,0.9c-1.346,-0 -2.388,-0.484 -3.113,-1.463c-0.729,-0.967 -1.096,-2.267 -1.096,-3.896c0,-1.271 0.159,-2.5 0.475,-3.7c0.317,-1.196 0.78,-2.25 1.392,-3.171c0.608,-0.912 1.337,-1.645 2.2,-2.195c0.858,-0.554 1.829,-0.83 2.917,-0.83c0.954,0 1.775,0.246 2.466,0.742c0.692,0.496 1.109,1.175 1.259,2.033l0.141,0l0.475,-2.441l2.917,-0l-2.437,12.146l1.879,-0l-0.475,2.437l-2.221,0Z" style="fill:#4c4c4e;fill-rule:nonzero;"/><path d="M2030.66,61.592c-1.159,-0 -2.238,-0.225 -3.238,-0.675c-1.004,-0.45 -1.8,-1.096 -2.4,-1.938l1.908,-1.742c0.467,0.613 1.004,1.08 1.613,1.413c0.604,0.333 1.329,0.5 2.175,0.5c0.929,-0 1.658,-0.2 2.171,-0.608c0.512,-0.404 0.77,-0.955 0.77,-1.638c0,-0.387 -0.12,-0.725 -0.362,-1.012c-0.246,-0.288 -0.721,-0.496 -1.433,-0.625l-1.259,-0.225c-1.179,-0.204 -2.125,-0.6 -2.837,-1.179c-0.704,-0.58 -1.063,-1.459 -1.063,-2.638c0,-0.638 0.117,-1.25 0.355,-1.842c0.229,-0.587 0.583,-1.108 1.045,-1.558c0.467,-0.45 1.059,-0.813 1.767,-1.079c0.713,-0.275 1.546,-0.409 2.496,-0.409c2.171,0 3.854,0.742 5.05,2.221l-1.908,1.742c-0.338,-0.442 -0.776,-0.808 -1.321,-1.096c-0.538,-0.283 -1.204,-0.429 -1.988,-0.429c-0.896,-0 -1.567,0.196 -2.004,0.583c-0.437,0.388 -0.662,0.888 -0.662,1.5c-0,0.404 0.129,0.746 0.379,1.025c0.258,0.275 0.725,0.479 1.421,0.609l1.258,0.195c1.217,0.209 2.166,0.613 2.862,1.209c0.688,0.6 1.038,1.487 1.038,2.671c-0,0.729 -0.138,1.396 -0.408,2.008c-0.271,0.604 -0.659,1.133 -1.163,1.583c-0.504,0.45 -1.121,0.804 -1.838,1.054c-0.72,0.25 -1.529,0.38 -2.424,0.38Z" style="fill:#4c4c4e;fill-rule:nonzero;"/><path d="M2046.02,59.15c0.921,-0 1.716,-0.338 2.404,-1.012c0.679,-0.68 1.154,-1.663 1.413,-2.963l0.475,-2.338c0.041,-0.15 0.07,-0.32 0.087,-0.508c0.017,-0.191 0.025,-0.387 0.025,-0.592c0,-0.904 -0.238,-1.621 -0.717,-2.158c-0.471,-0.533 -1.179,-0.804 -2.116,-0.804c-0.913,-0 -1.713,0.337 -2.396,1.017c-0.679,0.679 -1.154,1.662 -1.413,2.958l-0.479,2.342c-0.037,0.171 -0.067,0.341 -0.083,0.52c-0.017,0.179 -0.029,0.376 -0.029,0.58c-0,0.904 0.237,1.621 0.716,2.154c0.475,0.537 1.184,0.804 2.113,0.804Zm-0.221,2.442c-1.646,-0 -2.971,-0.517 -3.979,-1.542c-1.009,-1.029 -1.517,-2.525 -1.517,-4.488c0,-1.25 0.188,-2.441 0.563,-3.558c0.375,-1.125 0.887,-2.104 1.554,-2.946c0.662,-0.846 1.454,-1.504 2.371,-1.996c0.916,-0.483 1.925,-0.725 3.029,-0.725c1.641,0 2.971,0.513 3.979,1.542c1.008,1.029 1.517,2.525 1.517,4.488c-0,1.27 -0.188,2.462 -0.563,3.575c-0.375,1.112 -0.896,2.087 -1.558,2.929c-0.659,0.837 -1.454,1.504 -2.367,1.987c-0.917,0.492 -1.925,0.734 -3.029,0.734Z" style="fill:#4c4c4e;fill-rule:nonzero;"/><path d="M1858.39,76.704c-1.009,0 -1.879,0.342 -2.621,1.029c-0.738,0.688 -1.221,1.613 -1.442,2.779l-0.141,0.734c1.329,-0.054 2.412,-0.15 3.254,-0.284c0.841,-0.133 1.5,-0.308 1.979,-0.533c0.475,-0.229 0.792,-0.5 0.966,-0.821c0.163,-0.321 0.25,-0.683 0.25,-1.1c0,-0.358 -0.066,-0.654 -0.195,-0.887c-0.134,-0.238 -0.305,-0.421 -0.521,-0.563c-0.217,-0.141 -0.45,-0.237 -0.717,-0.283c-0.258,-0.046 -0.529,-0.071 -0.812,-0.071Zm-1.738,12.925c-1.887,0 -3.321,-0.538 -4.3,-1.612c-0.983,-1.075 -1.475,-2.596 -1.475,-4.559c0,-1.196 0.184,-2.342 0.546,-3.429c0.367,-1.096 0.879,-2.062 1.558,-2.904c0.667,-0.846 1.479,-1.508 2.434,-2.009c0.958,-0.491 2.025,-0.737 3.204,-0.737c0.579,-0 1.158,0.071 1.754,0.221c0.587,0.15 1.108,0.383 1.583,0.704c0.459,0.321 0.838,0.729 1.134,1.238c0.287,0.504 0.433,1.116 0.433,1.829c-0,1.558 -0.783,2.745 -2.337,3.575c-1.563,0.82 -4.013,1.271 -7.338,1.346c-0.054,0.374 -0.079,0.683 -0.079,0.925c-0,0.9 0.246,1.62 0.742,2.158c0.491,0.546 1.274,0.812 2.337,0.812c0.808,0 1.538,-0.17 2.192,-0.529c0.65,-0.354 1.275,-0.908 1.879,-1.658l1.842,1.537c-0.913,1.13 -1.876,1.934 -2.884,2.396c-1.008,0.463 -2.079,0.696 -3.225,0.696Z" style="fill:#4c4c4e;fill-rule:nonzero;"/><path d="M1865.66,89.292l2.917,-14.58l2.912,0l-0.612,3.113l0.137,-0c0.542,-1.121 1.176,-1.979 1.905,-2.567c0.729,-0.587 1.641,-0.879 2.716,-0.879c1.217,-0 2.134,0.342 2.734,1.033c0.608,0.696 0.912,1.655 0.912,2.892c0,0.313 -0.012,0.629 -0.054,0.938c-0.037,0.308 -0.092,0.65 -0.163,1.025l-1.325,6.587l1.771,0l-0.479,2.438l-2.212,-0c-0.621,-0 -1.109,-0.159 -1.471,-0.475c-0.363,-0.321 -0.55,-0.775 -0.55,-1.375l-0,-0.296c-0,-0.079 0.021,-0.209 0.054,-0.379l1.267,-6.305c0.112,-0.562 0.166,-1.079 0.166,-1.545c0,-0.65 -0.145,-1.155 -0.45,-1.501c-0.296,-0.341 -0.787,-0.516 -1.454,-0.516c-0.971,-0 -1.829,0.412 -2.554,1.233c-0.413,0.446 -0.762,0.967 -1.067,1.559c-0.295,0.587 -0.5,1.17 -0.616,1.749l-1.567,7.851l-2.917,-0Z" style="fill:#4c4c4e;fill-rule:nonzero;"/><path d="M1897.96,76.704c-1.012,0 -1.883,0.342 -2.625,1.029c-0.737,0.688 -1.216,1.613 -1.441,2.779l-0.142,0.734c1.329,-0.054 2.412,-0.15 3.254,-0.284c0.842,-0.133 1.5,-0.308 1.979,-0.533c0.475,-0.229 0.792,-0.5 0.967,-0.821c0.162,-0.321 0.25,-0.683 0.25,-1.1c-0,-0.358 -0.067,-0.654 -0.196,-0.887c-0.133,-0.238 -0.304,-0.421 -0.521,-0.563c-0.212,-0.141 -0.45,-0.237 -0.716,-0.283c-0.259,-0.046 -0.534,-0.071 -0.809,-0.071Zm-1.741,12.925c-1.888,0 -3.321,-0.538 -4.3,-1.612c-0.979,-1.075 -1.475,-2.596 -1.475,-4.559c-0,-1.196 0.183,-2.342 0.55,-3.429c0.362,-1.096 0.879,-2.062 1.554,-2.904c0.671,-0.846 1.479,-1.508 2.433,-2.009c0.954,-0.491 2.025,-0.737 3.2,-0.737c0.584,-0 1.163,0.071 1.759,0.221c0.587,0.15 1.108,0.383 1.583,0.704c0.462,0.321 0.841,0.729 1.133,1.238c0.288,0.504 0.433,1.116 0.433,1.829c0,1.558 -0.779,2.745 -2.345,3.575c-1.554,0.82 -4.005,1.271 -7.329,1.346c-0.055,0.374 -0.084,0.683 -0.084,0.925c0,0.9 0.25,1.62 0.746,2.158c0.492,0.546 1.275,0.812 2.337,0.812c0.809,0 1.538,-0.17 2.192,-0.529c0.65,-0.354 1.275,-0.908 1.875,-1.658l1.854,1.537c-0.92,1.13 -1.883,1.934 -2.895,2.396c-1.009,0.463 -2.075,0.696 -3.221,0.696Z" style="fill:#4c4c4e;fill-rule:nonzero;"/><path d="M1907.83,89.292c-0.708,-0 -1.25,-0.184 -1.625,-0.546c-0.371,-0.363 -0.558,-0.838 -0.558,-1.417c-0,-0.187 0.025,-0.421 0.079,-0.696l3.621,-18.087l2.916,-0l-3.675,18.308l2.021,0l-0.479,2.438l-2.3,-0Z" style="fill:#4c4c4e;fill-rule:nonzero;"/><path d="M1921.09,89.292l2.916,-14.58l2.917,0l-0.617,3.113l0.138,-0c0.542,-1.121 1.162,-1.979 1.866,-2.567c0.705,-0.587 1.592,-0.879 2.68,-0.879c1.062,-0 1.875,0.3 2.437,0.908c0.558,0.605 0.879,1.455 0.954,2.538l0.142,-0c0.517,-1.1 1.154,-1.954 1.892,-2.554c0.737,-0.596 1.666,-0.892 2.787,-0.892c1.179,-0 2.058,0.338 2.654,1.021c0.588,0.679 0.879,1.629 0.879,2.846c0,0.671 -0.083,1.404 -0.25,2.187l-1.291,6.421l1.766,0l-0.475,2.438l-2.216,-0c-0.638,-0 -1.133,-0.154 -1.5,-0.463c-0.363,-0.308 -0.546,-0.758 -0.546,-1.358c0,-0.242 0.025,-0.479 0.083,-0.704l1.263,-6.334c0.054,-0.283 0.1,-0.55 0.142,-0.812c0.037,-0.263 0.054,-0.504 0.054,-0.73c-0,-0.633 -0.146,-1.129 -0.434,-1.475c-0.291,-0.341 -0.745,-0.516 -1.358,-0.516c-0.863,-0 -1.658,0.412 -2.388,1.233c-0.412,0.446 -0.758,0.971 -1.037,1.571c-0.279,0.596 -0.475,1.175 -0.587,1.737l-1.571,7.851l-2.917,-0l1.767,-8.83c0.054,-0.283 0.1,-0.558 0.141,-0.829c0.038,-0.271 0.054,-0.529 0.054,-0.77c0,-0.617 -0.137,-1.101 -0.404,-1.447c-0.27,-0.341 -0.708,-0.516 -1.308,-0.516c-0.483,-0 -0.933,0.112 -1.346,0.333c-0.408,0.225 -0.775,0.525 -1.087,0.9c-0.434,0.484 -0.796,1.017 -1.096,1.596c-0.3,0.583 -0.504,1.15 -0.617,1.712l-1.571,7.851l-2.916,-0Z" style="fill:#4c4c4e;fill-rule:nonzero;"/><path d="M1951.68,74.712l-1.766,8.863c-0.055,0.258 -0.1,0.525 -0.13,0.783c-0.024,0.259 -0.041,0.492 -0.041,0.704c-0,0.65 0.141,1.159 0.421,1.509c0.283,0.358 0.75,0.533 1.4,0.533c0.937,0 1.766,-0.408 2.5,-1.229c0.429,-0.492 0.787,-1.029 1.079,-1.617c0.287,-0.587 0.487,-1.175 0.604,-1.754l1.567,-7.792l2.916,0l-2.441,12.142l1.883,0l-0.475,2.438l-2.246,-0c-0.654,-0 -1.162,-0.175 -1.529,-0.517c-0.367,-0.346 -0.55,-0.821 -0.55,-1.417c-0,-0.242 0.033,-0.52 0.087,-0.841l0.055,-0.338l-0.142,0c-0.538,1.125 -1.167,1.975 -1.875,2.567c-0.708,0.587 -1.587,0.883 -2.638,0.883c-1.195,0 -2.095,-0.346 -2.704,-1.037c-0.608,-0.692 -0.908,-1.655 -0.908,-2.888c-0,-0.321 0.017,-0.633 0.054,-0.954c0.038,-0.317 0.092,-0.663 0.171,-1.033l1.792,-9.005l2.916,0Z" style="fill:#4c4c4e;fill-rule:nonzero;"/><path d="M1962.85,89.292l2.916,-14.58l2.917,0l-0.617,3.113l0.138,-0c0.542,-1.121 1.175,-1.979 1.908,-2.567c0.729,-0.587 1.638,-0.879 2.717,-0.879c1.217,-0 2.129,0.342 2.733,1.033c0.609,0.696 0.913,1.655 0.913,2.892c-0,0.313 -0.017,0.629 -0.054,0.938c-0.042,0.308 -0.096,0.65 -0.167,1.025l-1.321,6.587l1.767,0l-0.475,2.438l-2.217,-0c-0.617,-0 -1.104,-0.159 -1.471,-0.475c-0.362,-0.321 -0.546,-0.775 -0.546,-1.375l0,-0.296c0,-0.079 0.017,-0.209 0.055,-0.379l1.262,-6.305c0.113,-0.562 0.167,-1.079 0.167,-1.545c-0,-0.65 -0.146,-1.155 -0.45,-1.501c-0.296,-0.341 -0.784,-0.516 -1.454,-0.516c-0.971,-0 -1.825,0.412 -2.55,1.233c-0.417,0.446 -0.767,0.967 -1.071,1.559c-0.296,0.587 -0.5,1.17 -0.613,1.749l-1.571,7.851l-2.916,-0Z" style="fill:#4c4c4e;fill-rule:nonzero;"/><path d="M1985.56,87.133c0.579,0 1.092,-0.137 1.542,-0.404c0.45,-0.271 0.858,-0.604 1.233,-0.996c0.821,-0.883 1.354,-1.954 1.596,-3.229l0.538,-2.658c0.166,-0.846 0.016,-1.546 -0.45,-2.117c-0.471,-0.571 -1.255,-0.858 -2.359,-0.858c-1.045,-0 -1.895,0.333 -2.55,1c-0.654,0.658 -1.108,1.637 -1.375,2.929l-0.42,2.041c-0.034,0.226 -0.067,0.476 -0.096,0.746c-0.025,0.271 -0.046,0.53 -0.046,0.771c-0,0.821 0.196,1.492 0.591,2.004c0.392,0.517 0.992,0.771 1.796,0.771Zm5.604,2.159c-0.654,-0 -1.17,-0.167 -1.55,-0.5c-0.383,-0.338 -0.575,-0.804 -0.575,-1.409c0,-0.312 0.026,-0.587 0.08,-0.812l0.116,-0.529l-0.116,-0c-0.596,1.196 -1.259,2.091 -1.975,2.687c-0.721,0.6 -1.642,0.9 -2.763,0.9c-1.346,0 -2.383,-0.483 -3.108,-1.458c-0.734,-0.971 -1.096,-2.271 -1.096,-3.9c0,-1.267 0.158,-2.5 0.475,-3.7c0.317,-1.196 0.779,-2.25 1.392,-3.167c0.604,-0.912 1.337,-1.65 2.2,-2.2c0.854,-0.554 1.829,-0.825 2.912,-0.825c0.954,-0 1.779,0.246 2.471,0.737c0.688,0.501 1.108,1.18 1.258,2.038l0.142,0l1.712,-8.608l2.917,-0l-3.675,18.308l1.875,0l-0.475,2.438l-2.217,-0Z" style="fill:#4c4c4e;fill-rule:nonzero;"/><path d="M2003.16,87.187c0.917,0 1.713,-0.337 2.4,-1.012c0.68,-0.675 1.155,-1.663 1.413,-2.962l0.475,-2.338c0.042,-0.15 0.071,-0.317 0.087,-0.504c0.017,-0.192 0.03,-0.388 0.03,-0.596c-0,-0.9 -0.238,-1.617 -0.717,-2.158c-0.475,-0.534 -1.183,-0.8 -2.121,-0.8c-0.912,-0 -1.708,0.337 -2.396,1.016c-0.679,0.675 -1.154,1.659 -1.412,2.958l-0.479,2.338c-0.038,0.171 -0.067,0.346 -0.084,0.521c-0.016,0.179 -0.029,0.375 -0.029,0.579c0,0.904 0.238,1.621 0.717,2.154c0.475,0.542 1.183,0.804 2.116,0.804Zm-0.225,2.442c-1.641,0 -2.97,-0.517 -3.979,-1.542c-1.008,-1.029 -1.516,-2.525 -1.516,-4.487c-0,-1.25 0.187,-2.442 0.562,-3.558c0.375,-1.125 0.892,-2.105 1.554,-2.946c0.663,-0.842 1.454,-1.504 2.371,-1.992c0.917,-0.483 1.925,-0.725 3.029,-0.725c1.642,-0 2.971,0.508 3.979,1.542c1.009,1.025 1.517,2.525 1.517,4.487c0,1.267 -0.187,2.459 -0.562,3.571c-0.375,1.113 -0.892,2.092 -1.555,2.929c-0.662,0.842 -1.458,1.509 -2.37,1.992c-0.917,0.488 -1.925,0.729 -3.03,0.729Z" style="fill:#4c4c4e;fill-rule:nonzero;"/><path d="M1847.6,117.329c-0.708,0 -1.25,-0.179 -1.625,-0.546c-0.375,-0.362 -0.562,-0.833 -0.562,-1.416c-0,-0.184 0.029,-0.417 0.083,-0.696l3.617,-18.088l2.916,0l-3.67,18.313l2.02,-0l-0.479,2.433l-2.3,0Z" style="fill:#4c4c4e;fill-rule:nonzero;"/><path d="M1859.15,115.171c0.596,-0 1.129,-0.125 1.592,-0.392c0.458,-0.258 0.871,-0.596 1.241,-1.008c0.809,-0.859 1.342,-1.942 1.605,-3.254l0.587,-2.942c0.054,-0.317 0.038,-0.634 -0.054,-0.954c-0.1,-0.317 -0.267,-0.604 -0.509,-0.854c-0.241,-0.25 -0.554,-0.459 -0.937,-0.617c-0.388,-0.158 -0.821,-0.242 -1.304,-0.242c-1.083,0 -1.95,0.334 -2.613,1c-0.65,0.663 -1.104,1.638 -1.37,2.929l-0.421,2.046c-0.034,0.221 -0.067,0.479 -0.096,0.759c-0.025,0.275 -0.042,0.533 -0.042,0.754c0,0.825 0.192,1.496 0.575,2.004c0.379,0.516 0.967,0.771 1.746,0.771Zm5.667,2.158c-0.654,0 -1.175,-0.167 -1.555,-0.5c-0.379,-0.337 -0.575,-0.804 -0.575,-1.404c0,-0.317 0.034,-0.592 0.088,-0.813l0.108,-0.529l-0.108,0c-0.6,1.196 -1.262,2.088 -1.979,2.688c-0.721,0.596 -1.646,0.9 -2.763,0.9c-1.346,-0 -2.387,-0.488 -3.108,-1.463c-0.733,-0.967 -1.096,-2.266 -1.096,-3.896c0,-1.27 0.158,-2.504 0.471,-3.704c0.321,-1.196 0.783,-2.25 1.396,-3.166c0.608,-0.913 1.337,-1.646 2.196,-2.201c0.862,-0.549 1.833,-0.825 2.92,-0.825c0.955,0 1.776,0.246 2.467,0.742c0.688,0.496 1.109,1.175 1.263,2.034l0.137,-0l0.471,-2.442l2.921,-0l-2.442,12.146l1.875,-0l-0.466,2.433l-2.221,0Z" style="fill:#4c4c4e;fill-rule:nonzero;"/><path d="M1877.35,115.171c1.067,-0 1.925,-0.334 2.584,-0.992c0.654,-0.663 1.108,-1.642 1.37,-2.933l0.421,-2.046c0.034,-0.225 0.067,-0.471 0.096,-0.742c0.033,-0.271 0.046,-0.529 0.046,-0.771c-0,-0.82 -0.196,-1.491 -0.588,-2.008c-0.391,-0.508 -0.996,-0.771 -1.8,-0.771c-0.579,0 -1.087,0.138 -1.541,0.413c-0.446,0.267 -0.859,0.6 -1.229,0.991c-0.396,0.43 -0.734,0.909 -0.996,1.446c-0.271,0.534 -0.475,1.125 -0.605,1.78l-0.533,2.662c-0.166,0.842 -0.021,1.55 0.446,2.121c0.467,0.566 1.246,0.85 2.329,0.85Zm-2.579,-18.588l2.917,0l-1.875,9.421l0.108,0c0.596,-1.196 1.258,-2.096 1.975,-2.692c0.725,-0.599 1.646,-0.896 2.763,-0.896c1.345,0 2.387,0.484 3.108,1.455c0.733,0.975 1.096,2.275 1.096,3.9c-0,1.271 -0.154,2.504 -0.471,3.7c-0.321,1.196 -0.779,2.254 -1.396,3.167c-0.608,0.916 -1.333,1.654 -2.196,2.204c-0.858,0.55 -1.829,0.829 -2.916,0.829c-0.955,-0 -1.776,-0.246 -2.463,-0.733c-0.696,-0.484 -1.117,-1.167 -1.267,-2.042l-0.141,-0l-0.471,2.433l-2.917,0l4.146,-20.746Z" style="fill:#4c4c4e;fill-rule:nonzero;"/><path d="M1893.78,115.229c0.913,0 1.717,-0.342 2.4,-1.016c0.68,-0.676 1.15,-1.659 1.417,-2.959l0.471,-2.338c0.046,-0.149 0.066,-0.32 0.087,-0.508c0.021,-0.191 0.03,-0.387 0.03,-0.591c-0,-0.905 -0.238,-1.621 -0.717,-2.159c-0.475,-0.533 -1.183,-0.804 -2.117,-0.804c-0.917,0 -1.712,0.338 -2.396,1.017c-0.679,0.675 -1.158,1.662 -1.416,2.958l-0.48,2.342c-0.033,0.167 -0.066,0.342 -0.079,0.521c-0.02,0.175 -0.029,0.375 -0.029,0.579c0,0.904 0.238,1.621 0.717,2.154c0.475,0.538 1.183,0.804 2.112,0.804Zm-0.225,2.442c-1.641,-0 -2.975,-0.517 -3.983,-1.546c-1.008,-1.025 -1.508,-2.521 -1.508,-4.483c-0,-1.251 0.187,-2.442 0.554,-3.563c0.379,-1.121 0.896,-2.104 1.562,-2.942c0.663,-0.845 1.45,-1.508 2.367,-1.995c0.921,-0.484 1.929,-0.726 3.033,-0.726c1.642,0 2.967,0.513 3.975,1.542c1.009,1.029 1.517,2.525 1.517,4.488c0,1.266 -0.187,2.458 -0.562,3.575c-0.371,1.112 -0.892,2.087 -1.555,2.929c-0.662,0.838 -1.454,1.504 -2.366,1.988c-0.917,0.487 -1.929,0.733 -3.034,0.733Z" style="fill:#4c4c4e;fill-rule:nonzero;"/><path d="M1903.85,117.329l2.917,-14.579l2.916,-0l-0.616,3.112l0.17,0c0.163,-0.375 0.371,-0.745 0.63,-1.116c0.25,-0.375 0.554,-0.709 0.908,-1c0.354,-0.288 0.762,-0.525 1.221,-0.713c0.458,-0.187 0.979,-0.283 1.558,-0.283l0.813,-0l-0.592,2.887l-0.979,0c-1.292,0 -2.292,0.313 -3.004,0.93c-0.709,0.616 -1.167,1.454 -1.371,2.52l-1.654,8.242l-2.917,0Z" style="fill:#4c4c4e;fill-rule:nonzero;"/><path d="M1920.79,115.171c0.596,-0 1.125,-0.125 1.588,-0.392c0.458,-0.258 0.871,-0.596 1.246,-1.008c0.804,-0.859 1.337,-1.942 1.596,-3.254l0.591,-2.942c0.054,-0.317 0.034,-0.634 -0.058,-0.954c-0.096,-0.317 -0.262,-0.604 -0.504,-0.854c-0.242,-0.25 -0.558,-0.459 -0.942,-0.617c-0.383,-0.158 -0.817,-0.242 -1.3,-0.242c-1.087,0 -1.954,0.334 -2.608,1c-0.654,0.663 -1.113,1.638 -1.375,2.929l-0.421,2.046c-0.038,0.221 -0.067,0.479 -0.096,0.759c-0.025,0.275 -0.046,0.533 -0.046,0.754c0,0.825 0.192,1.496 0.575,2.004c0.384,0.516 0.967,0.771 1.754,0.771Zm5.663,2.158c-0.654,0 -1.171,-0.167 -1.55,-0.5c-0.383,-0.337 -0.575,-0.804 -0.575,-1.404c0,-0.317 0.025,-0.592 0.079,-0.813l0.117,-0.529l-0.117,0c-0.596,1.196 -1.258,2.088 -1.975,2.688c-0.721,0.596 -1.642,0.9 -2.762,0.9c-1.346,-0 -2.384,-0.488 -3.109,-1.463c-0.733,-0.967 -1.095,-2.266 -1.095,-3.896c-0,-1.27 0.158,-2.504 0.47,-3.704c0.321,-1.196 0.784,-2.25 1.396,-3.166c0.604,-0.913 1.338,-1.646 2.196,-2.201c0.858,-0.549 1.833,-0.825 2.917,-0.825c0.954,0 1.779,0.246 2.471,0.742c0.687,0.496 1.108,1.175 1.258,2.034l0.142,-0l0.474,-2.442l2.917,-0l-2.437,12.146l1.875,-0l-0.475,2.433l-2.217,0Z" style="fill:#4c4c4e;fill-rule:nonzero;"/><path d="M1934.92,117.329c-0.709,0 -1.25,-0.179 -1.625,-0.546c-0.375,-0.362 -0.563,-0.833 -0.563,-1.416c0,-0.184 0.029,-0.417 0.084,-0.696l3.616,-18.088l2.917,0l-3.671,18.313l2.021,-0l-0.479,2.433l-2.3,0Z" style="fill:#4c4c4e;fill-rule:nonzero;"/></svg>