<svg width="24" height="24" viewBox="0 0 24 24" fill="none" xmlns="http://www.w3.org/2000/svg">
<g clip-path="url(#clip0_250_718)">
<path d="M22.9418 12.5315C22.9467 12.5266 22.9467 12.5266 22.9516 12.5217C22.9663 12.5021 22.981 12.4874 22.9908 12.4678C22.9957 12.4629 22.9957 12.458 23.0006 12.4531C23.0104 12.4335 23.0251 12.4139 23.0349 12.3943C23.0349 12.3894 23.0398 12.3845 23.0398 12.3845C23.0496 12.3649 23.0594 12.3453 23.0692 12.3208C23.0692 12.3159 23.0692 12.3159 23.0741 12.311C23.0839 12.2914 23.0888 12.2669 23.0986 12.2424C23.0986 12.2375 23.0986 12.2326 23.1035 12.2326C23.1084 12.2081 23.1182 12.1886 23.1182 12.1641C23.1182 12.1543 23.1182 12.1494 23.1231 12.1396C23.128 12.12 23.128 12.1004 23.1329 12.0808C23.1378 12.0514 23.1378 12.0269 23.1378 11.9975C23.1378 11.9681 23.1378 11.9436 23.1329 11.9142C23.1329 11.8946 23.128 11.875 23.1231 11.8554C23.1231 11.8456 23.1231 11.8407 23.1182 11.8309C23.1133 11.8064 23.1084 11.7868 23.1035 11.7623C23.1035 11.7574 23.1035 11.7525 23.0986 11.7525C23.0937 11.7281 23.0839 11.7085 23.0741 11.684C23.0741 11.6791 23.0741 11.6791 23.0692 11.6742C23.0594 11.6546 23.0496 11.6301 23.0398 11.6105C23.0398 11.6056 23.0349 11.6007 23.0349 11.6007C23.0251 11.5811 23.0153 11.5615 23.0006 11.5419C22.9957 11.537 22.9957 11.5321 22.9908 11.5272C22.9761 11.5076 22.9663 11.488 22.9516 11.4733C22.9467 11.4684 22.9467 11.4684 22.9418 11.4635C22.9222 11.4439 22.9075 11.4194 22.883 11.3998L18.0379 6.55965C17.7097 6.23142 17.1757 6.23142 16.8475 6.55965C16.5193 6.88788 16.5193 7.42187 16.8475 7.7501L20.2572 11.1598H6.70175C6.23635 11.1598 5.85913 11.537 5.85913 11.9975C5.85913 12.4629 6.23635 12.8401 6.70175 12.8401H20.2621L16.8769 16.2253C16.5487 16.5535 16.5487 17.0875 16.8769 17.4157C17.0386 17.5774 17.2541 17.6607 17.4697 17.6607C17.6852 17.6607 17.9008 17.5774 18.0624 17.4157L22.8781 12.6001C22.9026 12.5707 22.9222 12.5511 22.9418 12.5315Z" fill="#00427A"/>
<path d="M5.42311 1.68034H11.6938C12.1592 1.68034 12.5364 1.30312 12.5364 0.842621C12.5364 0.37722 12.1592 0 11.6938 0H5.42311C2.90995 0 0.862183 2.04776 0.862183 4.56093V19.4391C0.862183 21.9522 2.90995 24 5.42311 24H11.5909C12.0563 24 12.4335 23.6228 12.4335 23.1623C12.4335 22.6969 12.0563 22.3197 11.5909 22.3197H5.42311C3.83585 22.3197 2.54253 21.0263 2.54253 19.4391V4.56093C2.54742 2.96877 3.83585 1.68034 5.42311 1.68034Z" fill="#00427A"/>
</g>
<defs>
<clipPath id="clip0_250_718">
<rect width="24" height="24" fill="white"/>
</clipPath>
</defs>
</svg>
