<?xml version="1.0" encoding="UTF-8" standalone="no"?><!DOCTYPE svg PUBLIC "-//W3C//DTD SVG 1.1//EN" "http://www.w3.org/Graphics/SVG/1.1/DTD/svg11.dtd"><svg width="100%" height="100%" viewBox="0 0 1580 603" version="1.1" xmlns="http://www.w3.org/2000/svg" xmlns:xlink="http://www.w3.org/1999/xlink" xml:space="preserve" xmlns:serif="http://www.serif.com/" style="fill-rule:evenodd;clip-rule:evenodd;stroke-linejoin:round;stroke-miterlimit:2;"><rect x="11.679" y="197.667" width="30.067" height="214.596" style="fill:#00aaad;fill-rule:nonzero;"/><path d="M182.596,197.667l29.433,-0l0,214.596l-31.646,-0c-33.133,-84.613 -54.758,-140.742 -64.891,-168.384c-0,2.321 0.421,7.175 1.266,14.559c1.688,18.358 2.534,38.721 2.534,61.087l-0,92.738l-29.121,-0l-0,-214.596l31.971,-0c29.325,74.275 47.158,120.275 53.491,138c6.33,17.725 9.913,27.75 10.759,30.066c-0,-1.895 -0.579,-11.233 -1.738,-28.008c-1.162,-16.779 -1.85,-32.967 -2.058,-48.583l-0,-91.475Z" style="fill:#00aaad;fill-rule:nonzero;"/><path d="M355.412,197.667l0,26.271l-40.829,-0l0,188.325l-30.07,-0l-0,-188.325l-40.83,-0l0,-26.271l111.729,-0Z" style="fill:#00aaad;fill-rule:nonzero;"/><path d="M386.746,197.667l97.804,-0l0,26.271l-68.046,-0l0,66.783l59.188,-0l-0,26.271l-59.188,-0l0,69.317l68.046,-0l0,25.954l-97.804,-0l-0,-214.596Z" style="fill:#00aaad;fill-rule:nonzero;"/><path d="M553.867,223.621l-0,80.079l25.321,0c8.858,0 15.237,-2.004 19.145,-6.017c3.9,-4.004 5.855,-10.125 5.855,-18.358l-0,-31.962c-0,-15.829 -8.338,-23.742 -25,-23.742l-25.321,-0Zm-0,105.083l-0,83.559l-29.759,-0l0,-214.596l57.613,-0c16.875,-0 29.8,4.221 38.771,12.662c8.966,8.442 13.454,20.15 13.454,35.129l-0,34.188c-0,23.421 -8.975,38.512 -26.904,45.258l34.179,87.359l-32.917,-0l-30.7,-83.559l-23.737,0Z" style="fill:#00aaad;fill-rule:nonzero;"/><path d="M772.892,197.667l29.433,-0l0,214.596l-31.65,-0c-33.133,-84.613 -54.758,-140.742 -64.887,-168.384c-0,2.321 0.42,7.175 1.266,14.559c1.688,18.358 2.533,38.721 2.533,61.087l0,92.738l-29.12,-0l-0,-214.596l31.971,-0c29.325,74.275 47.158,120.275 53.491,138c6.325,17.725 9.913,27.75 10.758,30.066c0,-1.895 -0.579,-11.233 -1.741,-28.008c-1.163,-16.779 -1.85,-32.967 -2.054,-48.583l-0,-91.475Z" style="fill:#00aaad;fill-rule:nonzero;"/><path d="M841.621,243.246c-0,-14.979 4.908,-26.587 14.716,-34.817c9.813,-8.233 23.788,-12.346 41.938,-12.346c18.15,0 32.921,1.901 44.313,5.7l-0,28.484c-11.392,-4.429 -25.217,-6.646 -41.459,-6.646c-19.625,-0 -29.437,7.279 -29.437,21.837l-0,12.346c-0,6.754 1.316,12.084 3.958,15.984c2.633,3.908 7.325,7.754 14.083,11.554l36.713,20.571c17.092,9.291 25.637,23.321 25.637,42.095l0,17.725c0,15.405 -5.375,27.275 -16.141,35.609c-10.763,8.341 -25.9,12.504 -45.417,12.504c-19.521,-0 -35.192,-2.217 -47.004,-6.65l-0,-28.483c13.925,5.062 28.592,7.596 43.991,7.596c23.001,-0 34.505,-7.809 34.505,-23.425l-0,-10.759c-0,-6.333 -1.163,-11.237 -3.484,-14.717c-2.325,-3.483 -6.641,-6.908 -12.975,-10.287l-35.766,-19.625c-18.788,-10.125 -28.171,-25.212 -28.171,-45.258l-0,-18.992Z" style="fill:#00aaad;fill-rule:nonzero;"/><rect x="1154.32" y="195.471" width="30.071" height="214.6" style="fill:#00aaad;fill-rule:nonzero;"/><path d="M1315.34,248.309c0,-16.242 -8.441,-24.371 -25.32,-24.371l-25.005,-0l0,92.108l25.005,-0c16.879,-0 25.32,-8.229 25.32,-24.692l0,-43.045Zm-80.074,-50.642l57.604,-0c16.879,-0 29.8,4.221 38.775,12.662c8.962,8.442 13.446,20.254 13.446,35.446l-0,48.113c-0,15.196 -4.484,27.012 -13.446,35.45c-8.975,8.441 -21.896,12.658 -38.775,12.658l-27.855,0l0,70.267l-29.749,-0l-0,-214.596Z" style="fill:#00aaad;fill-rule:nonzero;"/><path d="M1010.6,331.863l9.3,-46.409l60.454,0l-9.3,46.409l-60.454,-0Zm83.446,-114.73l-9.3,46.409l-60.454,-0l9.3,-46.409l60.454,0Zm-56.063,-21.912l9.309,-46.454l60.454,-0l-9.308,46.454l-60.455,-0Zm83.454,-114.775l-9.3,46.413l-60.454,-0l9.3,-46.413l60.454,-0Zm16.121,-80.446l-11.729,58.538l-60.454,-0l11.729,-58.538l-30.066,0l-82.617,412.263l30.067,-0l11.72,-58.488l60.454,0l-11.72,58.488l30.387,-0l82.617,-412.263l-30.388,0Z" style="fill:#00aaad;fill-rule:nonzero;"/><path d="M22.321,550.308c5.858,6.175 14.883,11.721 23.587,11.721c17.575,0 23.75,-13.462 23.75,-35.141c0,-23.75 -9.341,-30.713 -20.9,-30.713c-10.604,0 -20.262,5.692 -26.437,10.133l-0,44Zm-12.346,19.005c0.792,-5.384 1.746,-14.884 1.746,-22.479l-0,-84.067c-0,-1.734 -0.483,-2.85 -2.063,-3.325l-9.658,-3.004l1.271,-6.655l21.05,0l-0,46.709c7.6,-4.592 16.779,-9.659 28.179,-9.659c17.887,0 29.608,11.559 29.608,38.784c0,32.608 -13.3,45.591 -33.246,45.591c-9.341,0 -17.574,-2.687 -25.174,-9.495l-0.317,0.154l-0.792,7.446l-10.604,-0Z" style="fill:#4c4c4e;fill-rule:nonzero;"/><path d="M99.862,602.875l0,-7.129l11.088,-1.271c1.896,-0.154 2.375,-1.108 3.321,-3.321l10.133,-23.433l-27.862,-68.067c-0.792,-1.9 -1.425,-2.216 -3.325,-2.687l-6.492,-1.592l1.583,-6.962l30.084,-0l-0,6.962l-10.767,1.271l22.633,58.413l23.592,-58.413l-10.929,-1.271l1.591,-6.962l28.805,-0l-0,6.962l-5.375,0.8c-2.059,0.317 -3.167,0.946 -3.959,2.688l-40.054,95.612l14.879,1.425l0,6.975l-38.946,0Z" style="fill:#4c4c4e;fill-rule:nonzero;"/><path d="M310.846,562.975c-8.234,5.7 -22.792,8.233 -37.354,8.233c-38.313,0 -53.509,-25.012 -53.509,-60.154c0,-33.408 18.517,-58.421 56.038,-58.421c14.246,0 26.912,3.334 34.508,8.4l0,23.105l-8.071,-0.471l-2.696,-14.883c-0.154,-1.267 -0.316,-2.213 -2.049,-2.851c-6.021,-2.212 -14.092,-3.958 -22.488,-3.958c-26.746,0 -44.167,17.579 -44.167,49.233c0,33.092 16.467,50.659 43.059,50.659c8.079,-0 18.05,-0.792 24.704,-3.796c1.104,-0.479 1.733,-1.108 2.05,-2.696l2.533,-14.087l7.442,-0l-0,21.687Z" style="fill:#4c4c4e;fill-rule:nonzero;"/><path d="M377.15,532.263l-20.737,1.904c-15.196,1.425 -19.317,5.858 -19.317,14.717c-0,9.504 4.746,13.462 12.983,13.462c10.921,-0 21.217,-7.125 27.071,-14.888l0,-15.195Zm2.058,37.05l-1.425,-10.613l-0.479,-0.158c-8.387,7.754 -17.25,12.666 -29.287,12.666c-19.784,0 -21.996,-13.616 -21.996,-21.054c-0,-15.833 9.812,-22.479 28.487,-24.221l22.642,-2.058l0,-8.862c0,-13.3 -2.696,-19.154 -18.05,-19.154c-10.604,-0 -18.683,-0 -18.838,12.816l-10.129,-1.262c0,-18.684 17.413,-20.58 29.121,-20.58c21.692,0 28.5,6.33 28.5,27.863l0,43.375c0,2.533 0.163,2.85 2.534,3.158l8.233,1.117l-0,6.967l-19.313,-0Z" style="fill:#4c4c4e;fill-rule:nonzero;"/><path d="M459.437,566.779c-6.016,2.367 -12.816,4.429 -20.416,4.429c-13.771,0 -20.425,-6.962 -20.425,-19.629l-0,-52.716c-0,-0.954 -0,-1.58 -1.263,-1.58l-11.72,0l-0,-7.129c11.72,-1.579 14.408,-5.7 16.466,-21.37l7.129,-0l0,18.049c0,0.946 0,1.58 1.259,1.58l23.587,-0l0,8.87l-24.846,0l0,50.338c0,10.133 2.842,14.092 12.025,14.092c5.221,-0 10.604,-1.425 15.2,-3.171l3.004,8.237Z" style="fill:#4c4c4e;fill-rule:nonzero;"/><path d="M529.704,528.621c0,-21.688 -8.233,-32.446 -25.646,-32.446c-17.566,0 -27.379,10.921 -27.379,32.608c0,21.688 9.025,33.717 26.592,33.717c17.408,0 26.433,-11.554 26.433,-33.879Zm-63.954,-0c-0,-24.692 12.354,-41.788 38.629,-41.788c26.117,0 36.25,17.096 36.25,40.68c0,26.437 -11.712,43.695 -37.833,43.695c-26.279,0 -37.046,-17.729 -37.046,-42.587Z" style="fill:#4c4c4e;fill-rule:nonzero;"/><path d="M1228.43,7.496l-6.379,31.75l-5.7,-0l6.325,-31.75l-10.542,-0l0.996,-5.067l26.859,0l-1.005,5.067l-10.554,-0Z" style="fill:#4c4c4e;fill-rule:nonzero;"/><path d="M1247.8,11.817l-3.325,16.671c-0.1,0.491 -0.188,0.987 -0.238,1.479c-0.054,0.487 -0.079,0.925 -0.079,1.321c0,1.229 0.267,2.183 0.792,2.841c0.529,0.671 1.408,1.004 2.633,1.004c1.763,0 3.325,-0.77 4.696,-2.316c0.808,-0.921 1.488,-1.933 2.038,-3.042c0.541,-1.104 0.916,-2.204 1.133,-3.296l2.954,-14.662l5.483,-0l-4.591,22.846l3.537,-0l-0.892,4.583l-4.224,-0c-1.23,-0 -2.192,-0.325 -2.88,-0.967c-0.683,-0.654 -1.029,-1.545 -1.029,-2.671c0,-0.458 0.063,-0.979 0.163,-1.583l0.104,-0.633l-0.267,-0c-1.012,2.112 -2.196,3.716 -3.529,4.825c-1.338,1.108 -2.988,1.666 -4.962,1.666c-2.251,0 -3.95,-0.654 -5.092,-1.95c-1.142,-1.304 -1.708,-3.116 -1.708,-5.433c-0,-0.604 0.033,-1.196 0.104,-1.796c0.066,-0.6 0.17,-1.246 0.316,-1.95l3.375,-16.937l5.488,-0Z" style="fill:#4c4c4e;fill-rule:nonzero;"/><path d="M1295.48,35.188c2.009,-0 3.621,-0.63 4.859,-1.875c1.229,-1.242 2.087,-3.079 2.583,-5.509l0.792,-3.858c0.066,-0.421 0.129,-0.883 0.179,-1.392c0.058,-0.512 0.087,-0.996 0.087,-1.45c0,-1.546 -0.37,-2.808 -1.108,-3.775c-0.737,-0.962 -1.871,-1.454 -3.383,-1.454c-1.092,-0 -2.063,0.25 -2.93,0.737c-0.858,0.501 -1.62,1.134 -2.291,1.909c-0.738,0.842 -1.367,1.758 -1.871,2.738c-0.508,0.987 -0.883,2.095 -1.133,3.324l-1.005,5.013c-0.32,1.579 -0.033,2.912 0.842,3.983c0.883,1.075 2.342,1.609 4.379,1.609Zm-7.17,-23.371l5.487,-0l-1.212,6.121l0.208,-0c1.125,-2.25 2.366,-3.942 3.716,-5.067c1.355,-1.125 3.092,-1.684 5.196,-1.684c2.529,0 4.488,0.913 5.855,2.742c1.374,1.825 2.062,4.275 2.062,7.33c-0,2.395 -0.304,4.716 -0.896,6.962c-0.6,2.25 -1.466,4.242 -2.616,5.963c-1.142,1.725 -2.517,3.108 -4.138,4.145c-1.617,1.03 -3.446,1.554 -5.487,1.554c-1.796,0 -3.342,-0.454 -4.638,-1.375c-1.304,-0.908 -2.096,-2.195 -2.379,-3.845l-0.267,-0l-3.004,15.137l-5.487,0l7.6,-37.983Z" style="fill:#4c4c4e;fill-rule:nonzero;"/><path d="M1314.84,39.246l5.487,-27.429l5.488,-0l-1.159,5.854l0.317,-0c0.308,-0.704 0.704,-1.4 1.183,-2.104c0.475,-0.704 1.05,-1.329 1.709,-1.879c0.67,-0.542 1.437,-0.988 2.304,-1.342c0.858,-0.35 1.837,-0.529 2.925,-0.529l1.529,-0l-1.108,5.433l-1.846,0c-2.429,0 -4.309,0.583 -5.65,1.742c-1.329,1.158 -2.196,2.741 -2.584,4.75l-3.108,15.504l-5.487,-0Z" style="fill:#4c4c4e;fill-rule:nonzero;"/><path d="M1345.65,6.913c-1.012,-0 -1.75,-0.217 -2.217,-0.638c-0.454,-0.421 -0.687,-0.942 -0.687,-1.579c-0,-0.35 0.096,-0.971 0.266,-1.846c0.184,-0.804 0.55,-1.483 1.109,-2.033c0.567,-0.542 1.462,-0.817 2.696,-0.817c1.012,-0 1.754,0.217 2.216,0.638c0.455,0.42 0.679,0.941 0.679,1.579c0,0.35 -0.087,0.971 -0.258,1.846c-0.179,0.808 -0.55,1.483 -1.108,2.033c-0.567,0.542 -1.459,0.817 -2.696,0.817Zm-4.379,32.333c-1.329,-0 -2.354,-0.342 -3.059,-1.029c-0.7,-0.679 -1.054,-1.571 -1.054,-2.663c0,-0.35 0.05,-0.787 0.163,-1.312l4.483,-22.425l5.488,-0l-4.596,22.846l3.537,-0l-0.891,4.583l-4.071,-0Z" style="fill:#4c4c4e;fill-rule:nonzero;"/><path d="M1352.19,39.246l5.487,-27.429l5.488,-0l-1.163,5.854l0.258,-0c1.025,-2.104 2.192,-3.717 3.513,-4.825c1.325,-1.108 2.996,-1.659 5.042,-1.659c2,0 3.529,0.567 4.583,1.709c1.058,1.142 1.658,2.742 1.796,4.775l0.267,-0c0.979,-2.071 2.17,-3.675 3.562,-4.8c1.383,-1.125 3.133,-1.684 5.246,-1.684c2.216,0 3.871,0.638 4.987,1.926c1.109,1.279 1.659,3.062 1.659,5.358c-0,1.262 -0.154,2.633 -0.475,4.113l-2.43,12.079l3.326,-0l-0.896,4.583l-4.171,-0c-1.192,-0 -2.129,-0.292 -2.817,-0.867c-0.687,-0.583 -1.029,-1.433 -1.029,-2.558c-0,-0.454 0.05,-0.9 0.154,-1.321l2.379,-11.916c0.104,-0.534 0.188,-1.042 0.267,-1.53c0.067,-0.5 0.1,-0.954 0.1,-1.375c0,-1.191 -0.275,-2.12 -0.812,-2.77c-0.55,-0.646 -1.4,-0.971 -2.563,-0.971c-1.621,-0 -3.112,0.77 -4.487,2.316c-0.775,0.842 -1.425,1.829 -1.951,2.954c-0.525,1.126 -0.891,2.217 -1.108,3.271l-2.954,14.767l-5.483,-0l3.321,-16.613c0.104,-0.533 0.187,-1.045 0.266,-1.554c0.067,-0.517 0.104,-0.996 0.104,-1.45c0,-1.158 -0.258,-2.07 -0.766,-2.72c-0.504,-0.646 -1.329,-0.971 -2.455,-0.971c-0.908,-0 -1.758,0.204 -2.533,0.625c-0.771,0.421 -1.458,0.987 -2.054,1.691c-0.813,0.908 -1.492,1.917 -2.058,3.005c-0.559,1.091 -0.946,2.166 -1.159,3.22l-2.954,14.767l-5.487,-0Z" style="fill:#4c4c4e;fill-rule:nonzero;"/><path d="M1414.02,15.567c-1.904,-0 -3.546,0.646 -4.938,1.933c-1.391,1.296 -2.291,3.038 -2.712,5.229l-0.267,1.379c2.5,-0.1 4.534,-0.283 6.121,-0.529c1.579,-0.25 2.817,-0.583 3.721,-1.004c0.892,-0.429 1.5,-0.946 1.817,-1.546c0.32,-0.604 0.475,-1.287 0.475,-2.07c-0,-0.671 -0.121,-1.23 -0.371,-1.667c-0.25,-0.446 -0.567,-0.796 -0.979,-1.063c-0.405,-0.266 -0.851,-0.446 -1.338,-0.533c-0.5,-0.088 -1.004,-0.129 -1.529,-0.129Zm-3.271,24.316c-3.554,0 -6.25,-1.012 -8.096,-3.033c-1.846,-2.025 -2.775,-4.883 -2.775,-8.575c0,-2.25 0.342,-4.404 1.029,-6.458c0.688,-2.059 1.659,-3.879 2.929,-5.459c1.263,-1.591 2.792,-2.841 4.584,-3.779c1.796,-0.929 3.804,-1.392 6.021,-1.392c1.091,0 2.187,0.138 3.295,0.421c1.109,0.284 2.096,0.721 2.98,1.321c0.875,0.605 1.587,1.375 2.137,2.33c0.542,0.954 0.817,2.104 0.817,3.441c-0,2.929 -1.467,5.171 -4.404,6.725c-2.938,1.546 -7.538,2.396 -13.8,2.533c-0.1,0.705 -0.155,1.288 -0.155,1.742c0,1.692 0.467,3.046 1.4,4.063c0.93,1.02 2.396,1.525 4.405,1.525c1.512,-0 2.887,-0.325 4.112,-0.996c1.229,-0.667 2.404,-1.709 3.538,-3.117l3.479,2.888c-1.725,2.129 -3.538,3.637 -5.433,4.508c-1.9,0.875 -3.917,1.312 -6.063,1.312Z" style="fill:#4c4c4e;fill-rule:nonzero;"/><path d="M1427.69,39.246l5.483,-27.429l5.487,-0l-1.158,5.854l0.317,-0c0.308,-0.704 0.704,-1.4 1.183,-2.104c0.475,-0.704 1.05,-1.329 1.713,-1.879c0.666,-0.542 1.433,-0.988 2.3,-1.342c0.858,-0.35 1.837,-0.529 2.925,-0.529l1.529,-0l-1.108,5.433l-1.846,0c-2.429,0 -4.309,0.583 -5.65,1.742c-1.329,1.158 -2.196,2.741 -2.584,4.75l-3.108,15.504l-5.483,-0Z" style="fill:#4c4c4e;fill-rule:nonzero;"/><path d="M1475.84,35.188c2.008,-0 3.621,-0.63 4.858,-1.875c1.229,-1.242 2.087,-3.079 2.583,-5.509l0.792,-3.858c0.067,-0.421 0.129,-0.883 0.179,-1.392c0.059,-0.512 0.088,-0.996 0.088,-1.45c-0,-1.546 -0.371,-2.808 -1.109,-3.775c-0.737,-0.962 -1.87,-1.454 -3.383,-1.454c-1.092,-0 -2.062,0.25 -2.929,0.737c-0.858,0.501 -1.621,1.134 -2.292,1.909c-0.737,0.842 -1.366,1.758 -1.871,2.738c-0.508,0.987 -0.883,2.095 -1.133,3.324l-1.004,5.013c-0.321,1.579 -0.038,2.912 0.842,3.983c0.883,1.075 2.341,1.609 4.379,1.609Zm-7.171,-23.371l5.487,-0l-1.212,6.121l0.208,-0c1.125,-2.25 2.367,-3.942 3.717,-5.067c1.354,-1.125 3.092,-1.684 5.196,-1.684c2.529,0 4.487,0.913 5.854,2.742c1.375,1.825 2.058,4.275 2.058,7.33c0,2.395 -0.3,4.716 -0.891,6.962c-0.601,2.25 -1.467,4.242 -2.617,5.963c-1.142,1.725 -2.517,3.108 -4.142,4.145c-1.612,1.03 -3.441,1.554 -5.483,1.554c-1.796,0 -3.342,-0.454 -4.638,-1.375c-1.304,-0.908 -2.096,-2.195 -2.379,-3.845l-0.266,-0l-3.005,15.137l-5.487,0l7.6,-37.983Z" style="fill:#4c4c4e;fill-rule:nonzero;"/><path d="M1506.02,35.188c1.125,-0 2.121,-0.242 2.987,-0.742c0.859,-0.488 1.642,-1.121 2.342,-1.896c1.513,-1.612 2.517,-3.658 3.008,-6.121l1.104,-5.537c0.105,-0.592 0.071,-1.196 -0.099,-1.796c-0.184,-0.592 -0.501,-1.133 -0.955,-1.604c-0.454,-0.475 -1.045,-0.859 -1.766,-1.163c-0.725,-0.3 -1.538,-0.454 -2.45,-0.454c-2.042,-0 -3.675,0.629 -4.913,1.883c-1.225,1.242 -2.083,3.08 -2.583,5.509l-0.788,3.85c-0.07,0.421 -0.129,0.9 -0.183,1.425c-0.05,0.521 -0.083,1.004 -0.083,1.425c-0,1.546 0.358,2.808 1.083,3.766c0.721,0.971 1.817,1.455 3.296,1.455Zm10.654,4.058c-1.229,-0 -2.208,-0.317 -2.921,-0.942c-0.721,-0.637 -1.079,-1.512 -1.079,-2.645c-0,-0.592 0.05,-1.109 0.154,-1.53l0.213,-0.996l-0.213,0c-1.125,2.25 -2.371,3.934 -3.716,5.059c-1.359,1.125 -3.092,1.691 -5.196,1.691c-2.534,0 -4.492,-0.912 -5.854,-2.749c-1.376,-1.817 -2.063,-4.267 -2.063,-7.33c0,-2.387 0.3,-4.708 0.892,-6.966c0.6,-2.246 1.47,-4.23 2.62,-5.959c1.142,-1.716 2.517,-3.1 4.138,-4.137c1.613,-1.038 3.442,-1.555 5.487,-1.555c1.796,0 3.338,0.463 4.646,1.392c1.296,0.938 2.084,2.217 2.367,3.83l0.267,-0l0.895,-4.592l5.484,-0l-4.583,22.846l3.529,-0l-0.892,4.583l-4.175,-0Z" style="fill:#4c4c4e;fill-rule:nonzero;"/><path d="M1537.35,39.883c-2.179,0 -4.208,-0.42 -6.088,-1.27c-1.887,-0.842 -3.391,-2.063 -4.516,-3.642l3.587,-3.279c0.879,1.15 1.892,2.033 3.034,2.662c1.141,0.625 2.508,0.934 4.095,0.934c1.751,-0 3.117,-0.375 4.088,-1.142c0.963,-0.763 1.45,-1.792 1.45,-3.079c0,-0.734 -0.233,-1.367 -0.688,-1.908c-0.462,-0.542 -1.358,-0.926 -2.695,-1.176l-2.371,-0.42c-2.213,-0.388 -3.992,-1.125 -5.329,-2.217c-1.334,-1.092 -2,-2.746 -2,-4.963c-0,-1.2 0.212,-2.354 0.658,-3.466c0.437,-1.109 1.1,-2.088 1.975,-2.929c0.875,-0.85 1.983,-1.529 3.325,-2.034c1.337,-0.516 2.9,-0.767 4.696,-0.767c4.079,0 7.246,1.392 9.496,4.176l-3.588,3.279c-0.637,-0.833 -1.462,-1.521 -2.483,-2.063c-1.013,-0.533 -2.267,-0.804 -3.742,-0.804c-1.683,0 -2.946,0.367 -3.771,1.096c-0.825,0.729 -1.245,1.667 -1.245,2.817c-0,0.766 0.241,1.408 0.712,1.933c0.483,0.512 1.367,0.9 2.671,1.142l2.371,0.37c2.283,0.392 4.079,1.15 5.383,2.275c1.296,1.126 1.95,2.796 1.95,5.021c-0,1.375 -0.258,2.629 -0.767,3.779c-0.504,1.142 -1.237,2.138 -2.187,2.98c-0.946,0.85 -2.104,1.508 -3.454,1.983c-1.354,0.471 -2.875,0.712 -4.567,0.712Z" style="fill:#4c4c4e;fill-rule:nonzero;"/><path d="M1566.25,35.288c1.725,-0 3.229,-0.634 4.513,-1.905c1.283,-1.27 2.179,-3.125 2.666,-5.57l0.892,-4.396c0.079,-0.284 0.129,-0.604 0.162,-0.954c0.034,-0.363 0.055,-0.73 0.055,-1.117c-0,-1.7 -0.446,-3.05 -1.355,-4.063c-0.891,-1.004 -2.216,-1.508 -3.979,-1.508c-1.717,0 -3.221,0.634 -4.508,1.913c-1.279,1.271 -2.171,3.125 -2.663,5.562l-0.9,4.404c-0.066,0.321 -0.12,0.646 -0.154,0.979c-0.033,0.338 -0.05,0.705 -0.05,1.092c0,1.7 0.446,3.05 1.346,4.054c0.892,1.013 2.225,1.509 3.975,1.509Zm-0.421,4.595c-3.091,0 -5.587,-0.97 -7.487,-2.904c-1.896,-1.929 -2.85,-4.746 -2.85,-8.437c-0,-2.354 0.354,-4.596 1.058,-6.7c0.704,-2.109 1.675,-3.958 2.925,-5.538c1.246,-1.587 2.733,-2.833 4.458,-3.75c1.725,-0.912 3.621,-1.367 5.7,-1.367c3.092,0 5.592,0.963 7.488,2.905c1.896,1.929 2.85,4.746 2.85,8.437c-0,2.388 -0.354,4.629 -1.059,6.725c-0.699,2.096 -1.683,3.934 -2.924,5.513c-1.246,1.579 -2.738,2.833 -4.455,3.741c-1.729,0.921 -3.625,1.375 -5.704,1.375Z" style="fill:#4c4c4e;fill-rule:nonzero;"/><path d="M1213.25,68.321c-1.908,-0 -3.546,0.642 -4.937,1.929c-1.392,1.3 -2.292,3.042 -2.713,5.229l-0.266,1.384c2.495,-0.105 4.533,-0.284 6.12,-0.534c1.579,-0.246 2.817,-0.583 3.717,-1.004c0.896,-0.429 1.504,-0.941 1.821,-1.546c0.316,-0.6 0.475,-1.287 0.475,-2.067c-0,-0.67 -0.121,-1.229 -0.371,-1.666c-0.25,-0.446 -0.567,-0.8 -0.979,-1.067c-0.404,-0.262 -0.85,-0.446 -1.338,-0.529c-0.5,-0.087 -1.008,-0.129 -1.529,-0.129Zm-3.271,24.313c-3.554,-0 -6.25,-1.013 -8.095,-3.03c-1.85,-2.025 -2.776,-4.883 -2.776,-8.579c0,-2.246 0.342,-4.404 1.03,-6.454c0.687,-2.063 1.658,-3.883 2.929,-5.463c1.262,-1.587 2.792,-2.841 4.583,-3.774c1.796,-0.93 3.804,-1.392 6.021,-1.392c1.087,-0 2.188,0.137 3.296,0.421c1.108,0.283 2.096,0.721 2.979,1.32c0.875,0.6 1.588,1.376 2.137,2.329c0.542,0.951 0.817,2.101 0.817,3.442c0,2.93 -1.467,5.167 -4.404,6.721c-2.937,1.546 -7.537,2.396 -13.8,2.534c-0.1,0.704 -0.154,1.287 -0.154,1.745c-0,1.688 0.467,3.046 1.4,4.059c0.929,1.021 2.396,1.529 4.404,1.529c1.513,-0 2.888,-0.325 4.113,-0.996c1.229,-0.671 2.404,-1.708 3.537,-3.117l3.479,2.884c-1.725,2.129 -3.537,3.641 -5.437,4.508c-1.896,0.875 -3.913,1.313 -6.059,1.313Z" style="fill:#4c4c4e;fill-rule:nonzero;"/><path d="M1226.91,92l5.487,-27.433l5.487,-0l-1.158,5.858l0.254,0c1.025,-2.104 2.217,-3.721 3.592,-4.829c1.375,-1.104 3.083,-1.654 5.117,-1.654c2.283,-0 4,0.641 5.141,1.95c1.142,1.304 1.717,3.108 1.717,5.433c-0,0.592 -0.033,1.183 -0.1,1.767c-0.079,0.575 -0.183,1.221 -0.321,1.925l-2.479,12.4l3.321,-0l-0.892,4.583l-4.175,0c-1.158,0 -2.075,-0.3 -2.762,-0.892c-0.688,-0.604 -1.029,-1.462 -1.029,-2.587l-0,-0.558c-0,-0.155 0.033,-0.392 0.104,-0.713l2.375,-11.862c0.208,-1.059 0.308,-2.03 0.308,-2.904c0,-1.23 -0.275,-2.172 -0.838,-2.826c-0.558,-0.641 -1.479,-0.97 -2.741,-0.97c-1.829,-0 -3.434,0.775 -4.8,2.321c-0.779,0.841 -1.442,1.82 -2.008,2.924c-0.559,1.109 -0.946,2.209 -1.159,3.3l-2.954,14.767l-5.487,0Z" style="fill:#4c4c4e;fill-rule:nonzero;"/><path d="M1287.68,68.321c-1.904,-0 -3.541,0.642 -4.933,1.929c-1.392,1.3 -2.292,3.042 -2.717,5.229l-0.262,1.384c2.496,-0.105 4.533,-0.284 6.121,-0.534c1.579,-0.246 2.816,-0.583 3.716,-1.004c0.892,-0.429 1.505,-0.941 1.821,-1.546c0.317,-0.6 0.471,-1.287 0.471,-2.067c-0,-0.67 -0.121,-1.229 -0.367,-1.666c-0.25,-0.446 -0.566,-0.8 -0.979,-1.067c-0.404,-0.262 -0.85,-0.446 -1.341,-0.529c-0.496,-0.087 -1.005,-0.129 -1.53,-0.129Zm-3.27,24.313c-3.555,-0 -6.25,-1.013 -8.096,-3.03c-1.846,-2.025 -2.771,-4.883 -2.771,-8.579c-0,-2.246 0.342,-4.404 1.029,-6.454c0.687,-2.063 1.658,-3.883 2.929,-5.463c1.263,-1.587 2.788,-2.841 4.583,-3.774c1.796,-0.93 3.805,-1.392 6.021,-1.392c1.088,-0 2.188,0.137 3.296,0.421c1.109,0.283 2.096,0.721 2.979,1.32c0.875,0.6 1.588,1.376 2.138,2.329c0.542,0.951 0.816,2.101 0.816,3.442c0,2.93 -1.47,5.167 -4.404,6.721c-2.937,1.546 -7.541,2.396 -13.8,2.534c-0.104,0.704 -0.154,1.287 -0.154,1.745c0,1.688 0.463,3.046 1.4,4.059c0.925,1.021 2.396,1.529 4.404,1.529c1.513,-0 2.884,-0.325 4.113,-0.996c1.229,-0.671 2.404,-1.708 3.537,-3.117l3.48,2.884c-1.73,2.129 -3.538,3.641 -5.438,4.508c-1.896,0.875 -3.913,1.313 -6.062,1.313Z" style="fill:#4c4c4e;fill-rule:nonzero;"/><path d="M1306.25,92c-1.333,0 -2.354,-0.341 -3.058,-1.029c-0.704,-0.679 -1.054,-1.571 -1.054,-2.663c-0,-0.354 0.049,-0.791 0.154,-1.312l6.808,-34.029l5.483,-0l-6.908,34.45l3.804,-0l-0.904,4.583l-4.325,0Z" style="fill:#4c4c4e;fill-rule:nonzero;"/><path d="M1331.21,92l5.488,-27.433l5.487,-0l-1.162,5.858l0.258,0c1.021,-2.104 2.192,-3.721 3.513,-4.829c1.32,-1.104 2.995,-1.654 5.041,-1.654c2,-0 3.525,0.567 4.584,1.708c1.054,1.142 1.658,2.738 1.795,4.775l0.263,0c0.979,-2.071 2.175,-3.675 3.567,-4.8c1.379,-1.125 3.133,-1.683 5.246,-1.683c2.212,-0 3.87,0.633 4.987,1.921c1.108,1.279 1.658,3.066 1.658,5.358c0,1.263 -0.154,2.637 -0.475,4.112l-2.429,12.084l3.325,-0l-0.896,4.583l-4.171,0c-1.195,0 -2.129,-0.292 -2.816,-0.867c-0.688,-0.583 -1.029,-1.433 -1.029,-2.558c-0,-0.454 0.05,-0.904 0.154,-1.325l2.375,-11.917c0.104,-0.529 0.191,-1.037 0.267,-1.529c0.07,-0.495 0.104,-0.95 0.104,-1.371c-0,-1.195 -0.275,-2.121 -0.817,-2.775c-0.546,-0.641 -1.396,-0.97 -2.558,-0.97c-1.621,-0 -3.117,0.775 -4.488,2.321c-0.775,0.841 -1.425,1.829 -1.95,2.954c-0.525,1.125 -0.892,2.212 -1.108,3.27l-2.954,14.767l-5.488,0l3.325,-16.612c0.104,-0.534 0.188,-1.05 0.267,-1.555c0.067,-0.516 0.1,-0.995 0.1,-1.454c-0,-1.158 -0.254,-2.066 -0.763,-2.721c-0.504,-0.641 -1.329,-0.97 -2.454,-0.97c-0.912,-0 -1.762,0.208 -2.533,0.629c-0.775,0.42 -1.459,0.987 -2.054,1.692c-0.813,0.908 -1.492,1.912 -2.059,3.004c-0.558,1.091 -0.946,2.162 -1.158,3.22l-2.954,14.767l-5.488,0Z" style="fill:#4c4c4e;fill-rule:nonzero;"/><path d="M1388.76,64.567l-3.32,16.675c-0.105,0.487 -0.188,0.987 -0.242,1.475c-0.05,0.491 -0.075,0.929 -0.075,1.325c-0,1.225 0.267,2.179 0.787,2.842c0.534,0.67 1.409,1.004 2.638,1.004c1.758,-0 3.321,-0.775 4.696,-2.317c0.808,-0.921 1.487,-1.934 2.033,-3.042c0.542,-1.108 0.921,-2.208 1.133,-3.295l2.955,-14.667l5.487,-0l-4.592,22.85l3.538,-0l-0.896,4.583l-4.225,0c-1.225,0 -2.187,-0.325 -2.875,-0.971c-0.688,-0.65 -1.029,-1.546 -1.029,-2.67c-0,-0.455 0.058,-0.98 0.162,-1.58l0.104,-0.633l-0.266,0c-1.013,2.112 -2.2,3.717 -3.529,4.825c-1.338,1.108 -2.988,1.663 -4.963,1.663c-2.25,-0 -3.95,-0.65 -5.091,-1.946c-1.142,-1.309 -1.709,-3.117 -1.709,-5.438c0,-0.6 0.034,-1.192 0.104,-1.792c0.067,-0.604 0.171,-1.245 0.317,-1.95l3.375,-16.941l5.483,-0Z" style="fill:#4c4c4e;fill-rule:nonzero;"/><path d="M1409.76,92l5.488,-27.433l5.483,-0l-1.158,5.858l0.258,0c1.021,-2.104 2.217,-3.721 3.588,-4.829c1.375,-1.104 3.083,-1.654 5.116,-1.654c2.288,-0 4.005,0.641 5.146,1.95c1.142,1.304 1.717,3.108 1.717,5.433c0,0.592 -0.033,1.183 -0.104,1.767c-0.075,0.575 -0.179,1.221 -0.317,1.925l-2.483,12.4l3.325,-0l-0.892,4.583l-4.175,0c-1.158,0 -2.079,-0.3 -2.762,-0.892c-0.688,-0.604 -1.034,-1.462 -1.034,-2.587l0,-0.558c0,-0.155 0.038,-0.392 0.104,-0.713l2.38,-11.862c0.204,-1.059 0.308,-2.03 0.308,-2.904c0,-1.23 -0.275,-2.172 -0.842,-2.826c-0.558,-0.641 -1.475,-0.97 -2.737,-0.97c-1.829,-0 -3.433,0.775 -4.8,2.321c-0.783,0.841 -1.442,1.82 -2.008,2.924c-0.559,1.109 -0.946,2.209 -1.163,3.3l-2.95,14.767l-5.488,0Z" style="fill:#4c4c4e;fill-rule:nonzero;"/><path d="M1452.5,87.938c1.087,-0 2.05,-0.259 2.9,-0.763c0.842,-0.508 1.617,-1.133 2.321,-1.871c1.545,-1.658 2.55,-3.675 3.004,-6.07l1.004,-5.009c0.317,-1.587 0.033,-2.908 -0.842,-3.983c-0.883,-1.071 -2.362,-1.613 -4.437,-1.613c-1.967,0 -3.567,0.625 -4.8,1.879c-1.229,1.246 -2.088,3.084 -2.588,5.513l-0.787,3.846c-0.071,0.421 -0.129,0.896 -0.179,1.4c-0.055,0.508 -0.088,0.996 -0.088,1.45c0,1.546 0.371,2.808 1.108,3.771c0.738,0.971 1.871,1.45 3.384,1.45Zm10.541,4.062c-1.225,0 -2.204,-0.317 -2.92,-0.946c-0.721,-0.633 -1.079,-1.508 -1.079,-2.641c-0,-0.596 0.049,-1.109 0.154,-1.529l0.216,-0.996l-0.216,-0c-1.125,2.25 -2.371,3.933 -3.717,5.058c-1.358,1.121 -3.092,1.688 -5.196,1.688c-2.533,-0 -4.491,-0.909 -5.854,-2.747c-1.375,-1.82 -2.063,-4.266 -2.063,-7.333c0,-2.387 0.301,-4.704 0.892,-6.962c0.604,-2.25 1.471,-4.234 2.621,-5.959c1.142,-1.716 2.517,-3.1 4.137,-4.137c1.617,-1.042 3.442,-1.554 5.488,-1.554c1.796,-0 3.338,0.462 4.646,1.392c1.296,0.933 2.083,2.212 2.371,3.828l0.262,0l3.221,-16.195l5.488,-0l-6.913,34.45l3.529,-0l-0.891,4.583l-4.176,0Z" style="fill:#4c4c4e;fill-rule:nonzero;"/><path d="M1485.61,88.042c1.725,-0 3.226,-0.634 4.513,-1.904c1.279,-1.271 2.175,-3.13 2.663,-5.575l0.895,-4.396c0.075,-0.284 0.125,-0.6 0.163,-0.954c0.033,-0.359 0.05,-0.73 0.05,-1.113c-0,-1.7 -0.446,-3.05 -1.346,-4.062c-0.896,-1.004 -2.225,-1.513 -3.987,-1.513c-1.717,0 -3.217,0.637 -4.505,1.917c-1.279,1.27 -2.175,3.125 -2.662,5.562l-0.9,4.404c-0.071,0.317 -0.121,0.646 -0.158,0.98c-0.034,0.333 -0.05,0.704 -0.05,1.091c-0,1.7 0.445,3.046 1.345,4.05c0.896,1.017 2.225,1.513 3.979,1.513Zm-0.42,4.592c-3.092,-0 -5.592,-0.967 -7.488,-2.901c-1.9,-1.933 -2.85,-4.749 -2.85,-8.441c0,-2.35 0.35,-4.592 1.054,-6.696c0.704,-2.112 1.675,-3.958 2.929,-5.538c1.246,-1.587 2.73,-2.833 4.455,-3.754c1.725,-0.908 3.625,-1.362 5.7,-1.362c3.091,-0 5.591,0.962 7.487,2.9c1.9,1.933 2.854,4.75 2.854,8.442c0,2.387 -0.354,4.629 -1.058,6.72c-0.704,2.096 -1.683,3.934 -2.929,5.513c-1.242,1.579 -2.738,2.833 -4.454,3.746c-1.725,0.916 -3.625,1.371 -5.7,1.371Z" style="fill:#4c4c4e;fill-rule:nonzero;"/><path d="M1192.95,144.754c-1.329,0 -2.35,-0.346 -3.054,-1.033c-0.705,-0.675 -1.059,-1.571 -1.059,-2.658c0,-0.355 0.055,-0.792 0.154,-1.317l6.809,-34.025l5.487,0l-6.912,34.446l3.804,-0l-0.9,4.587l-4.329,0Z" style="fill:#4c4c4e;fill-rule:nonzero;"/><path d="M1214.68,140.692c1.125,-0 2.121,-0.242 2.988,-0.738c0.858,-0.491 1.641,-1.125 2.341,-1.9c1.513,-1.612 2.517,-3.658 3.009,-6.121l1.104,-5.537c0.104,-0.592 0.071,-1.192 -0.1,-1.796c-0.183,-0.592 -0.5,-1.133 -0.954,-1.604c-0.454,-0.471 -1.046,-0.858 -1.767,-1.158c-0.721,-0.3 -1.537,-0.455 -2.45,-0.455c-2.042,0 -3.675,0.626 -4.908,1.88c-1.23,1.245 -2.088,3.083 -2.588,5.512l-0.787,3.846c-0.071,0.421 -0.129,0.9 -0.184,1.425c-0.05,0.525 -0.083,1.004 -0.083,1.425c0,1.546 0.362,2.808 1.083,3.771c0.721,0.971 1.817,1.45 3.296,1.45Zm10.654,4.062c-1.229,0 -2.204,-0.321 -2.921,-0.946c-0.72,-0.637 -1.079,-1.512 -1.079,-2.645c0,-0.592 0.05,-1.109 0.155,-1.53l0.212,-0.995l-0.212,-0c-1.126,2.25 -2.371,3.933 -3.717,5.058c-1.359,1.125 -3.092,1.692 -5.196,1.692c-2.533,-0 -4.492,-0.909 -5.854,-2.746c-1.375,-1.821 -2.063,-4.267 -2.063,-7.334c0,-2.387 0.3,-4.704 0.892,-6.962c0.604,-2.25 1.471,-4.233 2.621,-5.958c1.142,-1.721 2.517,-3.1 4.137,-4.142c1.613,-1.038 3.442,-1.554 5.488,-1.554c1.796,-0 3.337,0.467 4.646,1.391c1.295,0.938 2.083,2.217 2.366,3.83l0.267,-0l0.896,-4.592l5.483,0l-4.583,22.846l3.529,-0l-0.892,4.587l-4.175,0Z" style="fill:#4c4c4e;fill-rule:nonzero;"/><path d="M1248.92,140.692c2.008,-0 3.621,-0.629 4.858,-1.871c1.229,-1.246 2.088,-3.083 2.584,-5.513l0.791,-3.854c0.067,-0.421 0.129,-0.887 0.179,-1.391c0.063,-0.517 0.088,-0.996 0.088,-1.454c-0,-1.542 -0.371,-2.805 -1.108,-3.775c-0.738,-0.963 -1.871,-1.451 -3.384,-1.451c-1.091,0 -2.05,0.255 -2.904,0.771c-0.838,0.509 -1.613,1.134 -2.317,1.871c-0.737,0.808 -1.366,1.708 -1.87,2.713c-0.509,1.004 -0.884,2.12 -1.134,3.35l-1.004,5.012c-0.317,1.583 -0.033,2.913 0.842,3.988c0.883,1.07 2.341,1.604 4.379,1.604Zm-4.854,-34.971l5.487,0l-3.529,17.721l0.208,-0c1.125,-2.25 2.367,-3.942 3.717,-5.067c1.358,-1.125 3.092,-1.683 5.196,-1.683c2.533,-0 4.487,0.912 5.854,2.741c1.375,1.83 2.063,4.275 2.063,7.334c-0,2.392 -0.305,4.712 -0.896,6.962c-0.6,2.25 -1.467,4.242 -2.617,5.959c-1.142,1.725 -2.517,3.108 -4.137,4.145c-1.617,1.03 -3.446,1.555 -5.488,1.555c-1.796,-0 -3.342,-0.454 -4.638,-1.375c-1.304,-0.909 -2.095,-2.196 -2.379,-3.846l-0.266,-0l-0.892,4.587l-5.487,0l7.804,-39.033Z" style="fill:#4c4c4e;fill-rule:nonzero;"/><path d="M1279.83,140.796c1.725,-0 3.229,-0.638 4.517,-1.908c1.279,-1.271 2.171,-3.125 2.662,-5.571l0.892,-4.396c0.079,-0.283 0.129,-0.6 0.163,-0.954c0.033,-0.363 0.054,-0.729 0.054,-1.117c-0,-1.7 -0.45,-3.046 -1.35,-4.062c-0.892,-1.005 -2.225,-1.509 -3.984,-1.509c-1.716,0 -3.22,0.634 -4.508,1.913c-1.279,1.271 -2.171,3.125 -2.662,5.566l-0.901,4.405c-0.07,0.316 -0.12,0.641 -0.154,0.979c-0.033,0.333 -0.054,0.704 -0.054,1.087c0,1.7 0.45,3.05 1.35,4.054c0.892,1.013 2.225,1.513 3.975,1.513Zm-0.421,4.592c-3.091,-0 -5.587,-0.971 -7.487,-2.9c-1.896,-1.934 -2.85,-4.75 -2.85,-8.442c-0,-2.354 0.35,-4.592 1.058,-6.696c0.704,-2.112 1.671,-3.958 2.925,-5.537c1.246,-1.592 2.733,-2.834 4.458,-3.754c1.725,-0.909 3.621,-1.367 5.701,-1.367c3.091,-0 5.587,0.962 7.487,2.904c1.896,1.933 2.85,4.746 2.85,8.442c-0,2.383 -0.354,4.625 -1.058,6.721c-0.7,2.095 -1.679,3.933 -2.925,5.512c-1.246,1.579 -2.738,2.833 -4.459,3.742c-1.725,0.921 -3.62,1.375 -5.7,1.375Z" style="fill:#4c4c4e;fill-rule:nonzero;"/><path d="M1298.77,144.754l5.487,-27.433l5.484,0l-1.159,5.854l0.317,0c0.312,-0.704 0.704,-1.4 1.187,-2.104c0.471,-0.704 1.046,-1.329 1.709,-1.879c0.671,-0.542 1.433,-0.988 2.3,-1.338c0.858,-0.354 1.837,-0.533 2.929,-0.533l1.529,0l-1.108,5.433l-1.846,0c-2.433,0 -4.312,0.584 -5.65,1.746c-1.333,1.158 -2.2,2.738 -2.588,4.746l-3.104,15.508l-5.487,0Z" style="fill:#4c4c4e;fill-rule:nonzero;"/><path d="M1330.63,140.692c1.125,-0 2.121,-0.242 2.988,-0.738c0.858,-0.491 1.642,-1.125 2.346,-1.9c1.508,-1.612 2.512,-3.658 3.004,-6.121l1.108,-5.537c0.1,-0.592 0.067,-1.192 -0.104,-1.796c-0.179,-0.592 -0.5,-1.133 -0.954,-1.604c-0.454,-0.471 -1.046,-0.858 -1.767,-1.158c-0.721,-0.3 -1.537,-0.455 -2.45,-0.455c-2.041,0 -3.675,0.626 -4.908,1.88c-1.229,1.245 -2.088,3.083 -2.588,5.512l-0.787,3.846c-0.071,0.421 -0.129,0.9 -0.179,1.425c-0.055,0.525 -0.088,1.004 -0.088,1.425c0,1.546 0.363,2.808 1.084,3.771c0.72,0.971 1.816,1.45 3.295,1.45Zm10.654,4.062c-1.225,0 -2.204,-0.321 -2.92,-0.946c-0.721,-0.637 -1.079,-1.512 -1.079,-2.645c-0,-0.592 0.049,-1.109 0.154,-1.53l0.216,-0.995l-0.216,-0c-1.125,2.25 -2.371,3.933 -3.717,5.058c-1.358,1.125 -3.092,1.692 -5.196,1.692c-2.533,-0 -4.491,-0.909 -5.854,-2.746c-1.375,-1.821 -2.063,-4.267 -2.063,-7.334c0,-2.387 0.301,-4.704 0.892,-6.962c0.604,-2.25 1.471,-4.233 2.621,-5.958c1.142,-1.721 2.517,-3.1 4.137,-4.142c1.617,-1.038 3.442,-1.554 5.488,-1.554c1.796,-0 3.338,0.467 4.646,1.391c1.296,0.938 2.087,2.217 2.371,3.83l0.262,-0l0.896,-4.592l5.483,0l-4.583,22.846l3.529,-0l-0.891,4.587l-4.176,0Z" style="fill:#4c4c4e;fill-rule:nonzero;"/><path d="M1357.22,144.754c-1.334,0 -2.355,-0.346 -3.059,-1.033c-0.704,-0.675 -1.054,-1.571 -1.054,-2.658c0,-0.355 0.05,-0.792 0.154,-1.317l6.809,-34.025l5.487,0l-6.912,34.446l3.804,-0l-0.904,4.587l-4.325,0Z" style="fill:#4c4c4e;fill-rule:nonzero;"/></svg>