<?xml version="1.0" encoding="UTF-8" standalone="no"?><!DOCTYPE svg PUBLIC "-//W3C//DTD SVG 1.1//EN" "http://www.w3.org/Graphics/SVG/1.1/DTD/svg11.dtd"><svg width="100%" height="100%" viewBox="0 0 2044 462" version="1.1" xmlns="http://www.w3.org/2000/svg" xmlns:xlink="http://www.w3.org/1999/xlink" xml:space="preserve" xmlns:serif="http://www.serif.com/" style="fill-rule:evenodd;clip-rule:evenodd;stroke-linejoin:round;stroke-miterlimit:2;"><path d="M88.333,47.196c4.467,-3.846 9.942,-2.742 13.6,1.583c3.559,4.204 3.771,9.834 -0.7,13.679c-4.471,3.846 -9.95,2.742 -13.496,-1.462c-3.654,-4.321 -3.875,-9.954 0.596,-13.8Zm-0.329,-1.375l-2,1.721l-0.508,-4.563l3.175,-2.737l-0.667,5.579Zm10.95,13.942c2.854,-2.45 1.854,-5.821 -0.196,-8.246c-2.154,-2.55 -5.296,-4.079 -8.15,-1.625c-2.85,2.454 -1.854,5.825 0.3,8.375c2.059,2.425 5.196,3.954 8.046,1.496Z" style="fill:#fff;fill-rule:nonzero;"/><path d="M99.454,38.883l3.513,-2.275l8.362,13.125l7.775,-5.045l1.9,2.979l-11.287,7.325l-10.263,-16.109Z" style="fill:#fff;fill-rule:nonzero;"/><path d="M114.671,29.6l3.725,-1.9l8.567,17.088l-3.726,1.9l-8.566,-17.088Z" style="fill:#fff;fill-rule:nonzero;"/><path d="M137.537,26.871c-0.887,-1.7 -3.066,-2.454 -5.024,-1.754c-3.53,1.266 -3.788,4.771 -2.671,7.929c1.058,3.008 3.45,5.566 6.983,4.3c2.404,-0.863 3.171,-3.017 2.629,-5.5l3.808,-1.363c1.188,4.638 -0.879,8.625 -5.262,10.196c-5.537,1.988 -10.263,-1.021 -12.092,-6.221c-1.895,-5.358 -0.1,-10.695 5.434,-12.679c3.933,-1.408 8.054,-0.271 10.004,3.729l-3.809,1.363Z" style="fill:#fff;fill-rule:nonzero;"/><path d="M150.096,17.283l4.229,-0.662l9.925,17.816l-4.283,0.671l-2.063,-3.987l-7.012,1.096l-0.821,4.445l-4.175,0.655l4.2,-20.034Zm1.392,11.667l4.862,-0.763l-3.438,-6.57l-0.05,0.008l-1.374,7.325Z" style="fill:#fff;fill-rule:nonzero;"/><path d="M176.833,15.592l8.863,1.183c3.579,0.483 5.846,1.979 5.383,5.512c-0.241,1.859 -1.333,3.042 -3.079,3.621c2.208,0.967 3.133,2.905 2.821,5.271c-0.504,3.854 -3.967,5.071 -7.363,4.617l-9.116,-1.221l2.491,-18.983Zm2.071,16.291l4.429,0.592c1.638,0.221 3.129,-0.121 3.388,-2.088c0.25,-1.941 -0.858,-2.875 -2.621,-3.112l-4.508,-0.6l-0.688,5.208Zm1.059,-8.054l4.191,0.563c1.446,0.191 2.617,-0.329 2.829,-1.925c0.238,-1.805 -1.083,-2.363 -2.558,-2.559l-3.875,-0.521l-0.587,4.442Z" style="fill:#fff;fill-rule:nonzero;"/><path d="M206.471,21.375c5.554,1.904 7.421,7.217 5.612,12.6c-1.766,5.233 -6.45,8.3 -12.008,6.396c-5.563,-1.908 -7.425,-7.217 -5.663,-12.446c1.813,-5.383 6.488,-8.454 12.059,-6.55Zm-5.267,15.646c3.546,1.212 5.913,-1.375 6.925,-4.4c1.067,-3.171 0.763,-6.679 -2.792,-7.892c-3.549,-1.216 -5.908,1.371 -6.979,4.546c-1.012,3.021 -0.704,6.529 2.846,7.746Z" style="fill:#fff;fill-rule:nonzero;"/><path d="M219.875,27.225l3.683,1.992l-7.316,13.754l8.158,4.412l-1.658,3.121l-11.838,-6.404l8.971,-16.875Z" style="fill:#fff;fill-rule:nonzero;"/><path d="M234.925,35.892l3.467,2.341l-10.571,15.909l-3.467,-2.346l10.571,-15.904Z" style="fill:#fff;fill-rule:nonzero;"/><path d="M237.875,61.958l-3.633,-3.012l7.287,-18.742l3.321,2.763l-5.204,13.104l0.046,0.029l11.771,-7.658l3.329,2.762l-16.917,10.754Z" style="fill:#fff;fill-rule:nonzero;"/><path d="M257.246,53.825l2.975,2.95l-13.304,13.658l-2.975,-2.95l13.304,-13.658Z" style="fill:#fff;fill-rule:nonzero;"/><path d="M169.488,417.421c-31.463,-0 -61.867,-17.804 -85.601,-50.142c-26.445,-36.029 -41.004,-84.587 -41.004,-136.725c0,-52.133 14.559,-100.692 41.004,-136.725c23.734,-32.333 54.138,-50.141 85.601,-50.141c31.458,-0 61.849,17.808 85.583,50.141c26.45,36.029 41.012,84.592 41.012,136.725c0,52.138 -14.562,100.696 -41.012,136.725c-23.734,32.338 -54.125,50.142 -85.583,50.142Zm-0,-370.379c-30.388,-0 -59.834,17.325 -82.93,48.779c-26.016,35.458 -40.354,83.312 -40.354,134.733c0,51.425 14.338,99.275 40.354,134.734c23.096,31.458 52.542,48.783 82.93,48.783c30.37,-0 59.82,-17.325 82.912,-48.783c26.029,-35.459 40.362,-83.309 40.362,-134.734c0,-51.421 -14.333,-99.275 -40.362,-134.733c-23.092,-31.454 -52.542,-48.779 -82.912,-48.779Z" style="fill:#fff;fill-rule:nonzero;"/><path d="M32.408,287.467c4.988,-1.213 8.125,1.175 9.313,6.154c1.191,5.008 -0.513,8.508 -5.529,9.721l-11.475,2.783l-0.975,-4.096l11.47,-2.779c2.017,-0.487 3.888,-1.492 3.1,-4.804c-0.695,-2.917 -2.187,-3.55 -4.924,-2.883l-11.476,2.774l-0.979,-4.091l11.475,-2.779Z" style="fill:#fff;fill-rule:nonzero;"/><path d="M19.825,284.596l-0.642,-4.129l11.342,-9.896l-0.013,-0.054l-12.574,2l-0.609,-3.892l18.746,-2.987l0.65,4.158l-11.317,9.867l0.009,0.054l12.55,-2l0.612,3.896l-18.754,2.983Z" style="fill:#fff;fill-rule:nonzero;"/><path d="M16.792,263.192l-0.425,-4.188l18.883,-1.958l0.425,4.192l-18.883,1.954Z" style="fill:#fff;fill-rule:nonzero;"/><path d="M34.313,243.721l0.258,4.733l-18.617,7.263l-0.233,-4.338l13.1,-4.996l-0.008,-0.054l-13.563,-3.571l-0.233,-4.337l19.296,5.3Z" style="fill:#fff;fill-rule:nonzero;"/><path d="M15,234.892l0.117,-14.317l3.504,0.029l-0.079,10.109l4.066,0.033l0.075,-9.279l3.246,0.029l-0.079,9.275l4.654,0.042l0.083,-10.326l3.509,0.03l-0.125,14.533l-18.971,-0.158Z" style="fill:#fff;fill-rule:nonzero;"/><path d="M15.308,215.554l0.771,-10.296c0.267,-3.425 2.784,-5.408 5.646,-5.187c2.229,0.171 3.825,1.208 4.517,3.387l0.054,0c0.683,-2.016 2.716,-2.45 4.633,-2.441c1.196,0.012 3.421,0.208 4.542,-0.454l-0.321,4.195c-1.225,0.417 -3.05,0.221 -4.575,0.321c-2.017,0.142 -2.946,0.85 -3.108,2.963l-0.313,4.196l7.392,0.57l-0.313,4.196l-18.925,-1.45Zm8.875,-3.541l0.35,-4.601c0.138,-1.87 -0.579,-2.95 -2.491,-3.095c-1.821,-0.142 -2.696,0.816 -2.842,2.683l-0.342,4.6l5.325,0.413Z" style="fill:#fff;fill-rule:nonzero;"/><path d="M30.096,193.304c2.5,0.367 3.754,-1.45 4.083,-3.679c0.213,-1.458 0.117,-3.75 -1.8,-4.033c-2.025,-0.3 -2.783,2.487 -3.929,5.166c-1.146,2.7 -2.633,5.38 -6.158,4.859c-3.838,-0.571 -5.146,-4.504 -4.65,-7.929c0.575,-3.95 2.82,-7.334 7.154,-6.688l-0.588,4.029c-2.279,-0.2 -3.095,1.334 -3.383,3.321c-0.196,1.325 0.133,2.946 1.712,3.179c1.446,0.213 1.763,-0.658 3.663,-5.229c0.546,-1.329 2.033,-5.446 6.292,-4.813c3.445,0.513 5.625,3.63 4.87,8.776c-0.608,4.191 -3.229,7.812 -7.849,7.07l0.583,-4.029Z" style="fill:#fff;fill-rule:nonzero;"/><path d="M20.146,175.408l0.816,-4.129l18.613,3.746l-0.817,4.129l-18.612,-3.746Z" style="fill:#fff;fill-rule:nonzero;"/><path d="M22.012,165.871l2.067,-7.996c1.233,-4.8 5.15,-7.629 11.246,-6.025c5.329,1.4 8.579,5.188 7.117,10.846l-2.059,7.992l-18.371,-4.817Zm16.025,-0.146l0.934,-3.633c0.612,-2.363 -0.242,-5 -4.313,-6.067c-3.704,-0.971 -6.408,-0.296 -7.45,3.754l-0.746,2.909l11.575,3.037Z" style="fill:#fff;fill-rule:nonzero;"/><path d="M29.146,140.642l1.396,-4.079l20.258,-0.53l-1.408,4.129l-4.467,-0.016l-2.313,6.767l3.513,2.812l-1.375,4.029l-15.604,-13.112Zm10.879,4.208l1.6,-4.688l-7.358,-0.008l-0.017,0.05l5.775,4.646Z" style="fill:#fff;fill-rule:nonzero;"/><path d="M34.329,126.167l3.329,-7.546c1.996,-4.533 6.317,-6.675 12.075,-4.088c5.021,2.254 7.617,6.534 5.259,11.871l-3.329,7.55l-17.334,-7.787Zm15.829,2.5l1.513,-3.43c0.979,-2.229 0.562,-4.97 -3.271,-6.695c-3.496,-1.571 -6.275,-1.346 -7.962,2.475l-1.209,2.741l10.929,4.909Z" style="fill:#fff;fill-rule:nonzero;"/><path d="M59.754,90.858c-1.75,-0.775 -3.921,0.013 -5.008,1.792c-1.979,3.213 -0.008,6.117 2.817,7.883c2.687,1.68 6.145,2.171 8.116,-1.046c1.342,-2.187 0.613,-4.349 -1.346,-5.954l2.129,-3.466c3.796,2.883 4.646,7.296 2.196,11.287c-3.091,5.034 -8.637,5.671 -13.296,2.758c-4.791,-2.991 -6.695,-8.291 -3.604,-13.329c2.2,-3.579 6.129,-5.287 10.121,-3.387l-2.125,3.462Z" style="fill:#fff;fill-rule:nonzero;"/><path d="M62.287,76.05l2.613,-3.429l19.375,5.983l-2.633,3.463l-4.229,-1.442l-4.325,5.675l2.445,3.788l-2.575,3.379l-10.671,-17.417Zm8.996,7.471l2.996,-3.938l-6.975,-2.362l-0.037,0.041l4.016,6.259Z" style="fill:#fff;fill-rule:nonzero;"/><path d="M75.487,65.413l-3.858,4.216l-2.583,-2.396l10.537,-11.537l2.584,2.4l-3.855,4.217l11.376,10.579l-2.825,3.1l-11.376,-10.579Z" style="fill:#fff;fill-rule:nonzero;"/><path d="M267.533,64.688l2.788,3.279l-9.784,17.904l-2.816,-3.321l2.271,-3.875l-4.621,-5.433l-4.179,1.637l-2.759,-3.233l19.1,-6.958Zm-9.091,7.345l3.2,3.763l3.729,-6.404l-0.038,-0.042l-6.891,2.683Z" style="fill:#fff;fill-rule:nonzero;"/><path d="M277.225,76.546l2.342,3.45l-6.017,13.854l0.029,0.046l10.496,-7.267l2.212,3.254l-15.654,10.825l-2.354,-3.47l6.009,-13.813l-0.034,-0.05l-10.475,7.254l-2.212,-3.25l15.658,-10.833Z" style="fill:#fff;fill-rule:nonzero;"/><path d="M291.763,99.425l2.062,3.783l-13.204,15.509l-2.088,-3.834l3.009,-3.325l-3.421,-6.27l-4.421,0.737l-2.042,-3.729l20.105,-2.871Zm-10.396,5.313l2.375,4.345l4.945,-5.504l-0.02,-0.05l-7.3,1.209Z" style="fill:#fff;fill-rule:nonzero;"/><path d="M295.346,126.363l-1.459,-3.513l3.751,-1.583c2.154,-0.992 4.458,-0.163 5.575,1.779l-1.621,0.683c-0.938,-1.092 -1.946,-1.096 -3.15,-0.591l0.675,1.629l-3.771,1.596Zm2.175,5.266l-1.454,-3.512l3.75,-1.579c2.158,-0.996 4.458,-0.163 5.575,1.779l-1.613,0.679c-0.942,-1.088 -1.954,-1.096 -3.154,-0.592l0.671,1.638l-3.775,1.587Z" style="fill:#fff;fill-rule:nonzero;"/><path d="M296.104,139.742c-2.391,0.825 -2.687,3.025 -1.958,5.154c0.466,1.4 1.596,3.392 3.433,2.754c1.934,-0.662 1.342,-3.492 1.142,-6.4c-0.204,-2.933 -0.096,-6.004 3.279,-7.163c3.671,-1.266 6.621,1.63 7.721,4.905c1.283,3.779 0.825,7.821 -3.329,9.25l-1.304,-3.859c2.12,-0.87 2.149,-2.608 1.508,-4.512c-0.429,-1.271 -1.459,-2.558 -2.971,-2.042c-1.375,0.479 -1.254,1.404 -0.879,6.346c0.121,1.429 0.662,5.775 -3.413,7.179c-3.295,1.138 -6.641,-0.629 -8.308,-5.554c-1.362,-4.008 -0.671,-8.437 3.775,-9.913l1.304,3.855Z" style="fill:#fff;fill-rule:nonzero;"/><path d="M314.442,156.142l1.07,4.179l-16.583,11.742l-1.087,-4.234l3.729,-2.471l-1.788,-6.929l-4.458,-0.383l-1.063,-4.129l20.18,2.225Zm-11.367,2.562l1.233,4.8l6.142,-4.1l-0.017,-0.054l-7.358,-0.646Z" style="fill:#fff;fill-rule:nonzero;"/><path d="M317.971,170.608l0.737,4.117l-11.129,10.142l0.008,0.05l12.53,-2.271l0.696,3.879l-18.68,3.388l-0.741,-4.142l11.108,-10.108l-0.008,-0.055l-12.504,2.271l-0.696,-3.879l18.679,-3.392Z" style="fill:#fff;fill-rule:nonzero;"/><path d="M322.504,200.354l0.658,8.609c0.363,4.758 -2.491,6.841 -5.562,7.079c-3.071,0.237 -6.208,-1.375 -6.571,-6.138l-0.342,-4.408l-6.783,0.525l-0.321,-4.2l18.921,-1.467Zm-8.579,4.888l0.25,3.262c0.146,1.954 0.7,3.658 3.112,3.471c2.413,-0.187 2.701,-1.963 2.555,-3.912l-0.246,-3.263l-5.671,0.442Z" style="fill:#fff;fill-rule:nonzero;"/><path d="M323.821,222.279l0.087,4.317l-18.829,7.546l-0.092,-4.367l4.196,-1.533l-0.146,-7.163l-4.25,-1.416l-0.091,-4.263l19.125,6.879Zm-11.646,-0.167l0.096,4.963l6.917,-2.554l-0,-0.054l-7.013,-2.355Z" style="fill:#fff;fill-rule:nonzero;"/><path d="M323.95,237.05l-0.417,9c-0.17,3.642 -1.45,6.05 -4.983,5.883c-1.858,-0.087 -3.121,-1.083 -3.838,-2.783c-0.775,2.3 -2.604,3.392 -4.966,3.283c-3.85,-0.183 -5.338,-3.554 -5.184,-7.008l0.43,-9.267l18.958,0.892Zm-15.917,3.467l-0.204,4.496c-0.079,1.662 0.384,3.133 2.35,3.225c1.942,0.091 2.771,-1.1 2.846,-2.9l0.212,-4.58l-5.204,-0.241Zm8.046,0.375l-0.196,4.258c-0.07,1.475 0.542,2.604 2.142,2.679c1.8,0.084 2.237,-1.292 2.304,-2.791l0.188,-3.938l-4.438,-0.208Z" style="fill:#fff;fill-rule:nonzero;"/><path d="M322.796,257.479l-0.463,4.184l-15.375,-1.725l-1.021,9.27l-3.491,-0.387l1.483,-13.463l18.867,2.121Z" style="fill:#fff;fill-rule:nonzero;"/><path d="M319.746,283.125c-1.046,5.833 -5.983,8.475 -11.525,7.454c-5.388,-0.987 -9.084,-5.204 -8.038,-11.037c1.055,-5.838 5.988,-8.471 11.375,-7.484c5.538,1.013 9.242,5.234 8.188,11.067Zm-16.109,-2.954c-0.67,3.721 2.213,5.696 5.33,6.267c3.271,0.599 6.658,-0.225 7.329,-3.946c0.666,-3.721 -2.217,-5.696 -5.488,-6.292c-3.108,-0.571 -6.496,0.25 -7.171,3.971Z" style="fill:#fff;fill-rule:nonzero;"/><path d="M315.333,301.483l-0.912,3.696l-3.95,-0.991c-2.304,-0.505 -3.667,-2.559 -3.417,-4.792l1.704,0.429c0.113,1.438 0.917,2.054 2.175,2.371l0.429,-1.713l3.971,1Zm1.371,-5.541l-0.912,3.696l-3.942,-0.996c-2.321,-0.5 -3.671,-2.559 -3.417,-4.788l1.705,0.429c0.108,1.438 0.912,2.059 2.179,2.375l0.425,-1.72l3.962,1.004Z" style="fill:#fff;fill-rule:nonzero;"/><path d="M62.313,352.321l-10.213,-1.025l-4.221,9.437l-2.171,-10.133l-10.212,-1.117l8.875,-5.204l-2.104,-10.158l7.671,6.908l8.924,-5.141l-4.145,9.47l7.596,6.963Z" style="fill:#fff;fill-rule:nonzero;"/><path d="M275.883,352.233l10.242,-1.033l4.2,9.463l2.192,-10.13l10.216,-1.15l-8.895,-5.225l2.1,-10.125l-7.626,6.905l-8.962,-5.163l4.146,9.492l-7.613,6.966Z" style="fill:#fff;fill-rule:nonzero;"/><path d="M278.492,184.808c-5.746,-31.404 -17.438,-59.912 -34.279,-82.862c-21.125,-28.775 -47.663,-44.621 -74.73,-44.621c-27.07,0 -53.612,15.846 -74.729,44.621c-16.846,22.95 -28.533,51.458 -34.275,82.862l7.504,0l-1.987,30.067l16.504,-19.721l12.887,16.2l10.592,-40.116l-5.779,-0c5.308,-18 13.096,-34.267 23.137,-47.938c14.242,-19.404 30.625,-30.092 46.146,-30.092c15.513,0 31.905,10.688 46.146,30.092c10.004,13.638 17.788,29.85 23.092,47.792l-5.609,-0l10.596,40.112l12.888,-16.2l16.5,19.725l-1.971,-29.921l7.367,0Zm-176.834,-10.216l-7.791,29.496l-8.775,-11.03l-2.529,-3.179l-2.605,3.113l-9.975,11.925l1.329,-20.109l25.417,0c0.75,-3.458 1.592,-6.866 2.513,-10.216l2.416,-0Zm116.638,-53.288c-14.888,-20.279 -32.217,-31.446 -48.813,-31.446c-16.591,0 -33.929,11.167 -48.812,31.446c-6.35,8.646 -11.892,18.409 -16.471,29.017c-4.192,9.721 -7.592,20.179 -10.117,31.137l-29.579,0c2.817,-14.02 6.854,-27.445 12.017,-39.962c5.675,-13.754 12.708,-26.392 20.9,-37.554c20.483,-27.9 46.071,-43.263 72.062,-43.263c25.988,0 51.575,15.363 72.055,43.263c8.195,11.162 15.233,23.8 20.904,37.554c5.17,12.517 9.204,25.942 12.012,39.962l-29.566,0c-2.534,-10.958 -5.934,-21.416 -10.13,-31.137c-4.575,-10.608 -10.112,-20.371 -16.462,-29.017Zm50.816,83.463l-9.974,-11.921l-2.605,-3.113l-2.529,3.171l-8.775,11.038l-7.787,-29.496l2.237,-0c0.942,3.396 1.792,6.85 2.55,10.362l25.567,0l1.316,19.959Z" style="fill:#fff;fill-rule:nonzero;"/><path d="M95.621,156.363l-1.363,3.758l-16.829,-0.592l1.246,-3.441l11.8,0.504l0.008,-0.042l-9.341,-7.312l1.245,-3.442l13.234,10.567Z" style="fill:#fff;fill-rule:nonzero;"/><path d="M83.467,143.296l5.016,-10.979l2.684,1.25l-3.538,7.746l3.117,1.45l3.246,-7.113l2.487,1.158l-3.242,7.109l3.563,1.654l3.612,-7.908l2.688,1.245l-5.079,11.142l-14.554,-6.754Z" style="fill:#fff;fill-rule:nonzero;"/><path d="M90.329,128.671l4.342,-7.529c1.442,-2.505 4.083,-3.071 6.175,-1.846c1.633,0.954 2.466,2.337 2.2,4.25l0.037,0.021c1.255,-1.28 2.959,-0.854 4.404,-0.134c0.909,0.455 2.525,1.43 3.621,1.338l-1.775,3.071c-1.087,-0.142 -2.4,-0.967 -3.596,-1.459c-1.579,-0.637 -2.55,-0.445 -3.437,1.096l-1.771,3.071l5.413,3.179l-1.779,3.067l-13.834,-8.125Zm8.025,0.608l1.946,-3.362c0.788,-1.375 0.637,-2.459 -0.758,-3.275c-1.338,-0.788 -2.35,-0.388 -3.142,0.987l-1.938,3.359l3.892,2.291Z" style="fill:#fff;fill-rule:nonzero;"/><path d="M99.617,113.329l2.004,-2.912l13.146,9.233l-2.013,2.917l-13.137,-9.238Z" style="fill:#fff;fill-rule:nonzero;"/><path d="M108.896,105.667l-3.05,3.733l-2.288,-1.896l8.346,-10.217l2.283,1.901l-3.05,3.737l10.071,8.375l-2.241,2.738l-10.071,-8.371Z" style="fill:#fff;fill-rule:nonzero;"/><path d="M116.246,92.925l2.612,-2.521l15.413,7.463l-2.633,2.558l-3.35,-1.75l-4.321,4.188l1.566,3.47l-2.575,2.496l-6.712,-15.904Zm6.571,7.383l2.995,-2.9l-5.533,-2.866l-0.037,0.033l2.575,5.733Z" style="fill:#fff;fill-rule:nonzero;"/><path d="M134.346,91.383c1.187,1.788 3.025,1.555 4.592,0.496c1.024,-0.691 2.391,-2.054 1.479,-3.421c-0.967,-1.454 -3.121,-0.35 -5.425,0.446c-2.321,0.809 -4.83,1.383 -6.5,-1.137c-1.829,-2.742 -0.125,-5.8 2.279,-7.421c2.775,-1.875 6.146,-2.379 8.2,0.725l-2.829,1.912c-1.171,-1.554 -2.584,-1.2 -3.979,-0.254c-0.934,0.629 -1.751,1.754 -1.005,2.884c0.692,1.033 1.409,0.733 5.321,-0.655c1.134,-0.408 4.525,-1.8 6.546,1.242c1.638,2.467 0.938,5.604 -2.675,8.05c-2.946,1.988 -6.683,2.383 -8.842,-0.954l2.838,-1.913Z" style="fill:#fff;fill-rule:nonzero;"/><path d="M148.167,71.75l3.35,-1.117l5.025,15.346l-3.346,1.113l-5.029,-15.342Z" style="fill:#fff;fill-rule:nonzero;"/><path d="M157.567,68.746l3.483,-0.308l7.592,10.216l0.05,-0.004l-0.942,-10.8l3.287,-0.287l1.396,16.091l-3.508,0.313l-7.571,-10.192l-0.046,0.004l0.929,10.779l-3.279,0.288l-1.391,-16.1Z" style="fill:#fff;fill-rule:nonzero;"/><path d="M194.008,78.825c0.363,-1.579 -0.625,-3.271 -2.258,-3.904c-2.95,-1.15 -5.029,0.954 -6.029,3.592c-0.967,2.512 -0.825,5.479 2.129,6.624c2.008,0.784 3.671,-0.175 4.675,-2.058l3.188,1.234c-1.767,3.629 -5.259,5.037 -8.925,3.612c-4.63,-1.796 -6.021,-6.337 -4.359,-10.692c1.709,-4.475 5.759,-6.9 10.388,-5.104c3.287,1.275 5.308,4.292 4.37,7.934l-3.179,-1.238Z" style="fill:#fff;fill-rule:nonzero;"/><path d="M207.787,80.513l2.963,2.083l-4.254,16.712l-3,-2.112l1.05,-3.654l-4.908,-3.454l-3.076,2.229l-2.925,-2.059l14.15,-9.745Zm-5.9,7.933l3.409,2.396l1.7,-6.025l-0.034,-0.025l-5.075,3.654Z" style="fill:#fff;fill-rule:nonzero;"/><path d="M218.558,88.746l6.096,6.166c2.029,2.051 1.9,4.771 0.183,6.496c-1.325,1.346 -2.866,1.809 -4.625,1.05l-0.037,0.034c0.904,1.554 0.063,3.104 -1.008,4.337c-0.667,0.767 -2.009,2.092 -2.205,3.179l-2.491,-2.512c0.416,-1.029 1.542,-2.096 2.321,-3.133c1.016,-1.38 1.079,-2.367 -0.167,-3.634l-2.488,-2.517l-4.429,4.459l-2.487,-2.517l11.337,-11.408Zm-2.645,7.675l2.729,2.758c1.108,1.117 2.183,1.25 3.329,0.1c1.096,-1.104 0.975,-2.191 -0.138,-3.312l-2.721,-2.759l-3.199,3.213Z" style="fill:#fff;fill-rule:nonzero;"/><path d="M230.737,101.779l2.221,2.763l-12.433,10.183l-2.213,-2.762l12.425,-10.184Z" style="fill:#fff;fill-rule:nonzero;"/><path d="M235.262,112.629l-2.729,-3.983l2.442,-1.696l7.454,10.892l-2.437,1.696l-2.725,-3.984l-10.746,7.483l-2,-2.924l10.741,-7.484Z" style="fill:#fff;fill-rule:nonzero;"/><path d="M245.404,123.046l1.784,3.167l-10.975,13.229l-1.809,-3.209l2.509,-2.837l-2.959,-5.254l-3.721,0.675l-1.762,-3.129l16.933,-2.642Zm-8.712,4.596l2.05,3.637l4.108,-4.696l-0.021,-0.037l-6.137,1.096Z" style="fill:#fff;fill-rule:nonzero;"/><path d="M249.342,136.958l-2.034,-4.387l2.688,-1.263l5.542,12.005l-2.692,1.258l-2.021,-4.392l-11.837,5.559l-1.488,-3.221l11.842,-5.559Z" style="fill:#fff;fill-rule:nonzero;"/><path d="M256.708,146.267l4.155,11.329l-2.771,1.037l-2.938,-7.996l-3.221,1.201l2.696,7.341l-2.566,0.954l-2.696,-7.337l-3.675,1.375l2.991,8.171l-2.775,1.033l-4.216,-11.5l15.016,-5.608Z" style="fill:#fff;fill-rule:nonzero;"/><path d="M112.554,409l5.146,2.85l-2.383,13.7l0.041,0.025l9.963,-9.508l5.154,2.85l-9.133,16.791l-3.421,-1.9l6.462,-11.895l-0.041,-0.03l-10.546,9.642l-2.821,-1.558l2.325,-14.038l-0.046,-0.025l-6.4,11.779l-3.433,-1.895l9.133,-16.788Z" style="fill:#fff;fill-rule:nonzero;"/><path d="M143.412,429.871c0.313,-1.896 -0.987,-3.825 -2.966,-4.446c-3.575,-1.129 -5.875,1.517 -6.863,4.717c-0.95,3.046 -0.55,6.541 3.025,7.671c2.434,0.77 4.329,-0.488 5.379,-2.8l3.859,1.216c-1.821,4.429 -5.846,6.363 -10.288,4.963c-5.604,-1.771 -7.6,-7.034 -5.962,-12.309c1.683,-5.425 6.287,-8.608 11.896,-6.837c3.987,1.254 6.604,4.667 5.779,9.042l-3.859,-1.217Z" style="fill:#fff;fill-rule:nonzero;"/><path d="M151.233,425.546l5.854,0.504l3.313,13.5l0.05,0.004l5.296,-12.762l5.85,0.508l-1.604,19.079l-3.896,-0.337l1.142,-13.517l-0.055,-0.008l-5.775,13.121l-3.208,-0.271l-3.5,-13.788l-0.058,-0.008l-1.129,13.392l-3.896,-0.338l1.616,-19.079Z" style="fill:#fff;fill-rule:nonzero;"/><path d="M174.492,426.829l4.146,-0.487l1.8,15.504l9.187,-1.088l0.404,3.517l-13.329,1.575l-2.208,-19.021Z" style="fill:#fff;fill-rule:nonzero;"/><path d="M196.063,432.429l-8.376,-7.058l4.65,-1.346l5.259,4.842l2.021,-6.954l4.4,-1.275l-3.35,10.487l9.096,7.771l-4.771,1.383l-5.804,-5.212l-2.246,7.546l-4.521,1.308l3.642,-11.492Z" style="fill:#fff;fill-rule:nonzero;"/><path d="M223.3,432.521l-4.221,2.092l-13.892,-14.45l3.863,-1.913l9.671,10.208l0.041,-0.025l-2.033,-13.987l3.871,-1.913l2.7,19.988Z" style="fill:#fff;fill-rule:nonzero;"/><path d="M221.779,411.463l3.533,-2.242l10.113,16.2l-3.533,2.242l-10.113,-16.2Z" style="fill:#fff;fill-rule:nonzero;"/><path d="M327.046,141.167c-8.521,-27.421 -20.713,-52.063 -36.254,-73.238c-7.68,-10.458 -16.134,-19.958 -25.121,-28.233c-9.104,-8.379 -18.833,-15.571 -28.929,-21.392c-21.08,-12.141 -43.48,-18.304 -66.592,-18.304c-23.108,0 -45.508,6.163 -66.588,18.304c-10.091,5.821 -19.824,13.013 -28.929,21.392c-8.991,8.275 -17.441,17.775 -25.121,28.233c-15.541,21.175 -27.737,45.817 -36.245,73.238c-8.809,28.345 -13.267,58.446 -13.267,89.471c0,31.02 4.458,61.125 13.267,89.466c8.508,27.421 20.704,52.063 36.245,73.238c7.68,10.458 16.13,19.958 25.121,28.237c9.105,8.371 18.838,15.567 28.929,21.388c21.08,12.146 43.48,18.3 66.588,18.3c23.112,-0 45.512,-6.154 66.592,-18.3c10.096,-5.821 19.825,-13.017 28.929,-21.388c8.987,-8.279 17.441,-17.779 25.121,-28.237c15.541,-21.175 27.733,-45.817 36.254,-73.238c8.792,-28.341 13.254,-58.446 13.254,-89.466c0,-31.025 -4.462,-61.126 -13.254,-89.471Zm7.725,89.471c-0,30.454 -4.384,59.991 -13.013,87.795c-8.329,26.83 -20.25,50.913 -35.416,71.584c-15.142,20.621 -32.754,36.808 -52.346,48.1c-20.233,11.654 -41.713,17.562 -63.846,17.562c-22.125,0 -43.608,-5.908 -63.842,-17.562c-19.591,-11.292 -37.204,-27.479 -52.341,-48.1c-15.18,-20.671 -27.092,-44.754 -35.421,-71.584c-8.629,-27.804 -13.013,-57.341 -13.013,-87.795c0,-30.459 4.384,-59.996 13.013,-87.8c8.329,-26.83 20.241,-50.909 35.421,-71.584c15.137,-20.621 32.75,-36.804 52.341,-48.1c20.234,-11.654 41.717,-17.562 63.842,-17.562c22.133,-0 43.613,5.908 63.846,17.562c19.592,11.296 37.204,27.479 52.346,48.1c15.166,20.675 27.087,44.754 35.416,71.584c8.629,27.804 13.013,57.341 13.013,87.8Z" style="fill:#fff;fill-rule:nonzero;"/><path d="M162.617,137.396c-0.975,0.146 -1.942,0.321 -2.904,0.525l4.133,23.25c0.021,-0.004 0.037,-0.004 0.054,-0.008c0.512,-3.025 0.942,-6.275 1.221,-9.705l-2.504,-14.062Z" style="fill:#fff;fill-rule:nonzero;"/><path d="M163.279,161.321l-7.508,-22.371c-0.938,0.287 -1.871,0.604 -2.788,0.954l7.496,22.371c0.904,-0.375 1.842,-0.692 2.8,-0.954Z" style="fill:#fff;fill-rule:nonzero;"/><path d="M159.654,162.633l-10.971,-20.85c-0.887,0.434 -1.754,0.9 -2.612,1.392l10.975,20.854c0.833,-0.521 1.708,-0.979 2.608,-1.396Z" style="fill:#fff;fill-rule:nonzero;"/><path d="M156.171,164.596l-14.263,-18.713c-0.796,0.58 -1.583,1.18 -2.341,1.817l14.27,18.717c0.742,-0.654 1.517,-1.263 2.334,-1.821Z" style="fill:#fff;fill-rule:nonzero;"/><path d="M153.125,167.067l-17.117,-16.117c-0.696,0.704 -1.366,1.433 -2.012,2.179l11.008,10.367c2.388,1.279 5.013,2.554 7.9,3.8c0.079,-0.075 0.15,-0.154 0.221,-0.229Z" style="fill:#fff;fill-rule:nonzero;"/><path d="M185.792,167.004l14.954,-18.196c-0.742,-0.658 -1.492,-1.291 -2.275,-1.904l-9.754,11.879c-1.009,2.575 -1.996,5.313 -2.925,8.221Z" style="fill:#fff;fill-rule:nonzero;"/><path d="M186.525,167.729c0.687,0.709 1.333,1.463 1.929,2.254l17.734,-15.433c-0.617,-0.771 -1.255,-1.521 -1.921,-2.258l-17.742,15.437Z" style="fill:#fff;fill-rule:nonzero;"/><path d="M190.646,173.488l20.104,-12.121c-0.479,-0.867 -0.987,-1.721 -1.513,-2.563l-20.104,12.125c0.563,0.817 1.059,1.671 1.513,2.559Z" style="fill:#fff;fill-rule:nonzero;"/><path d="M192.188,177.221l21.829,-8.55c-0.33,-0.938 -0.684,-1.863 -1.067,-2.775l-21.833,8.55c0.412,0.896 0.766,1.825 1.07,2.775Z" style="fill:#fff;fill-rule:nonzero;"/><path d="M215.925,175.829c-0.179,-0.975 -0.392,-1.95 -0.633,-2.908l-22.892,5.029c0.05,0.179 0.096,0.354 0.142,0.529c2.462,0.384 4.904,0.675 7.316,0.879l16.067,-3.529Z" style="fill:#fff;fill-rule:nonzero;"/><path d="M171.871,218.721l1.496,13.267c0.987,-0.084 1.966,-0.196 2.937,-0.338l-2.35,-20.808l-1.092,4.104c-0.333,1.266 -0.666,2.521 -0.991,3.775Z" style="fill:#fff;fill-rule:nonzero;"/><path d="M174.775,207.933l6.6,22.68c0.954,-0.25 1.9,-0.534 2.837,-0.842l-6.604,-22.667c-0.916,0.338 -1.866,0.609 -2.833,0.829Z" style="fill:#fff;fill-rule:nonzero;"/><path d="M178.871,206.596l10.541,21.092c0.896,-0.417 1.776,-0.859 2.642,-1.338l-10.546,-21.1c-0.85,0.5 -1.72,0.95 -2.637,1.346Z" style="fill:#fff;fill-rule:nonzero;"/><path d="M182.621,204.554l14.1,18.867c0.8,-0.567 1.587,-1.167 2.362,-1.788l-14.112,-18.875c-0.742,0.642 -1.525,1.246 -2.35,1.796Z" style="fill:#fff;fill-rule:nonzero;"/><path d="M185.717,202.087l17.008,16.263c0.696,-0.696 1.375,-1.417 2.037,-2.158l-13.475,-12.888c-1.454,-0.729 -3.004,-1.441 -4.658,-2.129c-0.296,0.313 -0.591,0.617 -0.912,0.912Z" style="fill:#fff;fill-rule:nonzero;"/><path d="M140.333,221.963c0.767,0.612 1.563,1.204 2.371,1.77l8.042,-11.016l2.091,-7.9l-12.504,17.146Z" style="fill:#fff;fill-rule:nonzero;"/><path d="M136.671,218.738l16.8,-16.455c-0.734,-0.67 -1.409,-1.387 -2.054,-2.141l-16.796,16.458c0.658,0.733 1.341,1.442 2.05,2.138Z" style="fill:#fff;fill-rule:nonzero;"/><path d="M129.954,209.675l1.654,2.467l19.025,-12.975c-0.6,-0.784 -1.154,-1.604 -1.658,-2.463l-19.021,12.971Z" style="fill:#fff;fill-rule:nonzero;"/><path d="M125.775,202.446c0.375,0.925 0.767,1.833 1.2,2.729l21.396,-9.579c-0.454,-0.879 -0.867,-1.784 -1.208,-2.721l-21.388,9.571Z" style="fill:#fff;fill-rule:nonzero;"/><path d="M123.425,194.875c0.208,0.967 0.454,1.933 0.729,2.883l22.679,-5.854c-0.129,-0.404 -0.246,-0.812 -0.35,-1.221c-1.758,-0.2 -3.504,-0.333 -5.233,-0.412l-17.825,4.604Z" style="fill:#fff;fill-rule:nonzero;"/><path d="M92.629,289.742c-0.483,-0.625 -0.896,-1.154 -1.221,-0.9c-0.32,0.25 -0.3,0.637 -0.041,1.054c0.25,0.421 0.65,0.917 0.862,1.212c0.663,0.946 2.196,0.175 1.763,-0.32c-0.463,-0.542 -0.796,-0.33 -1.363,-1.046Z" style="fill:#fff;fill-rule:nonzero;"/><path d="M90.379,285.179c0.15,-0.337 0.704,-0.375 0.029,-2.421c-0.679,-2.05 -1.633,-3.308 -1.816,-4.804c-0.555,-4.6 0.525,-7.7 0.616,-9.35c0.096,-1.646 1.659,-2.45 2.767,-3.941c1.108,-1.488 1.354,-3.596 4.371,-5.646c0.687,-0.463 2.796,-1.088 4.096,-1.584c1.283,-0.495 3.537,-1.15 6.945,-1.15c2.65,0 1.484,-1.333 0.896,-1.212c-0.583,0.129 -0.796,0.158 -1.687,0.433c-0.896,0.283 -3.234,-0.896 -5.388,-0.275c-2.15,0.617 -5.941,1.954 -9.137,4.871c-3.196,2.921 -5.75,8.879 -5.75,14.279c-0,5.4 1.787,8.475 2.271,9.438c0.495,0.962 0.125,1.487 0.8,2.916c0.679,1.425 2.125,0.963 1.508,0.059c-0.421,-0.613 -0.679,-1.267 -0.521,-1.613Z" style="fill:#fff;fill-rule:nonzero;"/><path d="M276.187,280.771c-2.483,-0.038 -5.008,0.183 -8.854,0.183c-0.621,0 -1.287,0.008 -1.983,0.013c-0.075,-1.8 -1.054,-3.355 -2.5,-4.221c-0.017,-0.013 -0.025,-0.025 -0.046,-0.038c-1.233,-0.716 -2.179,-0.741 -2.017,-2.016c0.117,-0.938 0.238,-1.488 0.442,-2.359c1.783,-7.837 6.508,-13.341 7.896,-21.825c2.112,-12.883 -6.642,-25.233 -6.642,-25.233c0,0 -0.808,5.704 -3.329,11.825c-2.508,6.121 -6.454,10.992 -6.454,19c0,5.129 1.808,8.888 3.271,12.342c0.771,1.833 3.646,6.329 1.029,8.908c-0.008,0.004 -0.008,0.008 -0.013,0.013c-1.07,0.995 -1.762,2.437 -1.833,3.937c-8.112,0.396 -17.671,1.138 -26.083,2.229c-4.942,0.646 -15.813,3.084 -17.288,2.771c-1.9,-0.4 -4.825,-3.279 -6.721,-4.267c-2.858,-1.745 -9.704,-2.35 -9.704,-2.35c0,-4.362 -7.262,-1.558 -7.262,-4.12c-0,-2.563 -5.592,-5.671 -8.471,-7.117c-2.571,-1.3 -2.1,-3.942 -1.979,-4.488c0.012,-0.004 0.012,-0.008 0.012,-0.016c0.242,-0.55 0.371,-1.163 0.371,-1.804c0,-2.546 -2.046,-4.6 -4.567,-4.6c-2.52,-0 -4.566,2.054 -4.566,4.6c-0,0.608 0.121,1.191 0.337,1.725c0,0.012 0.009,0.037 0.013,0.045c0.1,0.405 0.704,3.196 -1.963,4.538c-2.875,1.446 -8.462,4.554 -8.462,7.117c-0,0.791 -0.692,1.07 -1.658,1.204c3.337,-17.838 7.899,-38.921 14.099,-62.254l4.921,-18.546l1.305,0.346c26.783,7.241 35.324,23.295 35.408,23.454c0.241,0.466 0.675,0.796 1.191,0.883c0.517,0.092 1.038,-0.062 1.417,-0.425l5.1,-4.792c0.221,-0.216 0.392,-0.487 0.467,-0.791l8.991,-33.817c0.159,-0.604 -0.029,-1.242 -0.483,-1.667c-0.454,-0.42 -1.1,-0.554 -1.679,-0.345c-0.071,0.025 -7.346,2.579 -19.85,2.579c-8.683,-0 -17.775,-1.204 -27.042,-3.584l1.092,-4.1c4.508,-16.979 10.892,-29.095 15.458,-36.266c4.942,-7.775 8.875,-11.579 8.913,-11.613c0.429,-0.421 0.616,-1.041 0.471,-1.629c-0.155,-0.588 -0.609,-1.054 -1.184,-1.208l-33.521,-9.071c-0.304,-0.079 -0.625,-0.071 -0.916,0.021l-6.663,2.054c-0.441,0.133 -0.808,0.45 -1.008,0.871c-0.2,0.421 -0.225,0.904 -0.054,1.337c0.083,0.217 8.171,21.834 -0.434,54.238l-0.112,0.408c-26.238,-8.304 -37.521,-21.621 -37.633,-21.754c-0.517,-0.625 -1.409,-0.788 -2.109,-0.379l-4.516,2.633c-0.384,0.225 -0.667,0.587 -0.784,1.017l-10.129,38.137c-0.175,0.654 0.063,1.346 0.592,1.763c0.525,0.412 1.254,0.458 1.837,0.125c3.538,-2.038 13.825,-5.888 27.492,-5.888c6.654,0 13.513,0.879 20.4,2.613l-6.067,22.85c-6.725,25.321 -14.254,47.566 -21.387,66.146c0.412,-8.017 -0.3,-14.88 -4.217,-20.101c-5.287,-7.045 -14.971,-10.82 -23.837,-9.37c-8.334,1.366 -17.438,7.087 -20.467,15.704c-6.113,17.367 2.483,34.979 35.212,45.604c-9.012,19.846 -15.487,30.854 -15.62,31.079c-0.271,0.454 -0.313,1.004 -0.117,1.492c0.196,0.487 0.608,0.854 1.108,0.992l35.396,9.575c0.142,0.037 0.283,0.058 0.425,0.058c0.292,-0 0.575,-0.079 0.834,-0.229l7.237,-4.209c0.496,-0.291 0.8,-0.808 0.829,-1.383c0.008,-0.117 0.496,-10.85 2.838,-29.475c6.862,2.904 12.283,3.717 12.283,3.717c0.646,4.379 4.733,6.541 4.733,6.541c-0.4,3.925 -0.554,5.575 -0.804,8.021c-3.287,1.338 -5.808,4.409 -0.733,7.079c-0.404,4.038 -2.025,6.755 -2.025,6.755c-0,-0 -8.4,0.458 -10.842,4.85c-4.654,-0 -8.737,3.52 -9.466,5.345c-3.817,0 -5.226,5.113 -5.226,5.113c-3.708,1.512 -5.712,2.887 -5.712,4.779c0,5.563 18.546,10.079 41.425,10.079c22.867,0 41.417,-4.516 41.417,-10.079c-0,-1.908 -2.03,-3.258 -5.813,-4.779c0,-0 -1.404,-5.113 -5.229,-5.113c-0.729,-1.825 -4.813,-5.345 -9.467,-5.345c-2.441,-4.392 -10.841,-4.85 -10.841,-4.85c-0,-0 -1.634,-2.842 -2.034,-6.88c5.992,-3.2 0.579,-6.52 -0.721,-6.954c-0.204,-1.954 -0.545,-5.8 -0.808,-8.021c4.767,-2.375 4.229,-6.687 4.229,-6.687c0,-0 14,-0.996 32.421,-17.25c9.817,-8.654 19.083,-14.717 27.196,-17.933c17.279,-6.846 29.379,-3.459 30.546,-3.321c1.562,0.187 3.179,-0.667 3.412,-1.75c0.229,-1.084 -0.412,-2.371 -2.121,-2.396Zm-67.516,5.808c1.012,0.713 -0.317,1.363 -1.663,1.904c-1.166,0.463 -2.237,0.905 -5.3,1.6c-1.308,0.296 -2.541,-0.879 -1.387,-1.208c1.158,-0.325 4.891,-1.633 6.042,-2.192c1.154,-0.558 1.666,-0.558 2.308,-0.104Zm-12.95,-5.154c0.929,-0.729 5.496,0.1 8.108,1.488c2.35,1.258 2.629,1.962 1.434,2.612c-1.209,0.654 -2.13,-0.5 -3.451,-0.5c-1.987,0 -2.262,1.183 -3.816,-0.742c-1.604,-1.987 -3.1,-2.204 -2.275,-2.858Zm-6.846,-0.513c1.167,-0.312 4.017,0.838 5.854,2.746c1.85,1.909 3.563,3.584 1.117,4.238c-2.45,0.654 -3.463,-0.788 -4.483,-2.467c-2.146,-3.554 -4.059,-4.096 -2.488,-4.517Zm-6.479,-8.212c0.883,0.746 1.321,2.771 0.387,2.95c-1.221,0.246 -0.725,-0.958 -1.279,-2.575c-0.217,-0.642 0.013,-1.121 0.892,-0.375Zm-0.767,16.733c-1.567,0 -2.096,-1.491 -2.458,-3.787c-0.5,-3.079 -0.284,-3.754 0.517,-3.754c1.945,-0 7.112,7.541 1.941,7.541Zm-2.133,-16.55c0.762,0.684 1.037,2.529 0.162,2.704c-1.137,0.217 -0.6,-0.887 -1.004,-2.362c-0.158,-0.588 0.083,-1.025 0.842,-0.342Zm-3.909,-1.67c0.417,-0.225 0.78,0.445 0.95,0.979c0.213,0.696 -0.016,1.054 -0.412,1.037c-0.404,-0.012 -0.517,-0.291 -0.538,-0.646c-0.029,-0.362 -0.229,-1.241 0,-1.37Zm-3.558,14.433c0.271,-3.079 1.008,-4.129 1.813,-4.129c1.941,-0 2.925,8.287 -0.021,8.287c-1.575,0 -1.988,-1.862 -1.792,-4.158Zm-2.15,-12.571c0.675,-0.667 1.158,-0.242 1.063,0.296c-0.175,1.037 0.141,1.992 -0.863,1.912c-0.912,-0.066 -0.758,-1.666 -0.2,-2.208Zm-2.15,8.817c0.804,-0 1.217,0.675 1.313,3.754c0.075,2.296 -1.263,3.417 -2.834,3.417c-5.17,-0 -0.425,-7.171 1.521,-7.171Zm-9.283,-70.846l6.312,-23.767c-31.087,-8.404 -49.608,-1.291 -49.608,-1.291l8.987,-33.821c0,-0 12.755,15.462 43.621,23.808c1.054,-3.942 0.625,-2.325 1.534,-5.733c8.837,-33.309 2.512,-54.696 2.512,-54.696l33.521,9.062c-0,0 -15.958,15.25 -24.833,48.663c-0.896,3.383 -0.463,1.762 -1.521,5.737c30.5,8.242 49.483,1.384 49.483,1.384l-8.983,33.812c-0,0 -12.308,-15.458 -43.504,-23.896l-6.313,23.767c-6.204,23.367 -10.808,44.55 -14.221,62.85c-1.896,0.154 -3.875,0.479 -3.875,2.758c-2.675,-0.095 -4.541,0.275 -5.462,1.567c-3.521,-3.208 -7.904,-0.65 -7.184,3.533c-1.7,1.163 -3.095,1.571 -4.229,1.496c7.467,-20.162 15.871,-45.512 23.763,-75.233Zm-4.492,72.742c-0.558,0.691 -0.862,1.27 -1.787,1.033c-1.596,-0.396 -2.013,-1.625 1.633,-3.071c0.796,-0.317 1.358,0.517 0.154,2.038Zm-43.95,21.97c-7.346,-3.129 -17.654,-9.37 -22.612,-18.745c-3.242,-6.142 -3.275,-14.175 -1.471,-20.392c2.208,-7.642 11.441,-14.05 20.596,-14.05c7.187,-0 14.175,3.367 18.25,8.787c3.15,4.196 4.525,9.938 3.741,19.134c-0.287,3.354 -0.629,5.921 1.809,7.762c1.72,1.304 2.975,0.271 4.633,0.271c1.592,0 1.908,-2.354 2.867,-1.608c0.679,0.529 0.183,1.616 -1.63,2.333c-0.324,0.125 0.159,1.471 -0.483,2.65c-2.062,3.8 -3.083,9.071 -1.425,9.883c1.142,0.563 0.508,-1.991 1.538,-4.9c0.683,-1.92 2.479,-5.254 5.345,-6.895c0.371,-0.217 1.146,-0.555 1.996,0.116c0.53,0.413 1.142,0.954 1.759,1.359c1.087,0.695 0.645,1.183 0.416,1.424c-0.283,0.309 -0.629,0.605 -0.991,0.892c-1.08,0.829 -3.271,3.888 -1.788,4.779c1.592,0.959 2.954,2.425 1.171,2.359c-0.871,-0.029 -2.896,-0.188 -2.825,3.041c0.071,3.938 2.596,6.9 4.154,8.821c0.8,0.988 1.638,1.771 1.154,2.092c-0.312,0.212 -1.554,-0.329 -2.946,-1.179c-2.645,-1.629 -5.795,-3.959 -8.562,-6.738c-3.246,-3.25 -4.075,-6.125 -4.383,-7.558c-1.109,-5.029 1.4,-8.538 0.55,-9.125c-1.696,-1.175 -1.846,3.354 -3.938,3.7c-3.454,0.558 0.221,-9.838 -0.362,-16.454c-0.129,-1.4 -0.338,-2.763 -0.63,-4.071c-0.237,-1.013 -0.066,-2.621 -0.391,-3.567c-0.442,-1.275 -1.421,-1.862 -2.042,-2.987c-0.471,-0.855 -0.992,-1.663 -1.562,-2.409c-0.788,-1.05 -2.575,-1.966 -3.513,-2.741c-0.037,-0.038 -0.079,-0.075 -0.142,-0.129c-1.462,-1.192 -0.391,-2.255 -0.804,-3.38c-0.42,-1.108 -2.358,-1.904 -3.32,-2.279c-0.971,-0.371 -2.221,-0.933 -2.496,-0.275c-0.271,0.65 0.525,1.417 2.283,1.888c2.483,0.654 1.35,2.133 -0.467,1.362c-2.454,-1.05 -4.329,-1.333 -6.954,-1.333c-6.5,-0 -13.125,4.229 -15.075,10.983c-2.012,6.963 -0.217,15.646 5.938,23.717c1.82,2.379 2.495,3.225 3.479,4.466c1.65,2.076 1.808,3.796 2.762,4.526c0.838,0.633 2.825,0.5 3.713,1.158c2.575,1.875 6.421,4.233 6.346,4.408c-0.159,0.367 -0.621,0.221 -3.688,-1.096Zm17.867,-8.487c-0,0.433 -0.346,0.792 -0.788,0.792c-0.425,-0 -1.004,-0.767 -0.579,-0.85c0.133,-0.03 0.417,-0.196 0.529,-0.646c0.1,-0.421 0.838,0.266 0.838,0.704Zm-33.142,-27.375c4.604,-13.113 19.029,-9.629 23.871,-3.354c3.9,5.041 4.317,10.758 4.075,14.525c-0.421,6.6 -2.763,12.433 0.958,16.7c-1.316,3.129 -2.604,6.108 -3.85,8.937c-18.812,-10.446 -28.808,-26.15 -25.054,-36.808Zm51.138,79.358l-33.963,-9.187c0,-0 4.759,-9.175 11.896,-26.163c6.483,2.146 10.054,5.117 11.112,7.163c-1.27,-0.763 -2.741,-1.059 -3.787,-1.067c-7.608,-0.067 -12.321,5.033 -12.383,11.388c-0.059,6.358 6.071,11.562 13.687,11.62c2.988,0.03 5.759,-0.741 8.025,-2.075c1.396,-0.77 2.888,-1.954 4.029,-3.67c0.838,-1.213 1.421,-2.567 1.68,-4.021c0.208,-0.975 0.324,-2.05 0.308,-3.229c-0.088,-6.292 -2.371,-12.205 -20.175,-20.075c-0.242,-0.105 -0.475,-0.213 -0.717,-0.321c0.958,-2.325 1.95,-4.775 2.975,-7.346c5.354,8.5 13.329,13.733 20.225,16.879c-2.429,19.213 -2.912,30.104 -2.912,30.104Zm-19.846,-24.116c-0.575,1.75 -2.583,1.612 -2.517,2.962c0.113,2.15 3.15,2.638 2.809,5.379c-0.45,3.634 0.729,4.859 2.766,5.613c1.85,0.683 2.646,-0.734 4.067,-0.559c1.479,0.184 3.075,1.863 1.779,2.05c-1.283,0.188 -1.638,0.192 -2.479,0.192c-3.167,0 -6.121,-1.067 -8.313,-2.925c-2.071,-1.758 -3.2,-4.042 -3.171,-6.437c0.021,-2.746 1.042,-5.042 2.8,-6.646c1.755,-1.613 2.505,-0.367 2.259,0.371Zm3.041,2.095c1.392,1.009 1.867,3.792 1.255,5.78c-0.621,1.983 -1.971,1.295 -2.338,-0.559c-0.375,-1.862 -1.946,-2.712 -2.046,-4.104c-0.125,-1.671 1.655,-2.187 3.129,-1.117Zm12.876,1.992c-0,-3.787 -1.78,-3.6 -1.596,-4.75c0.245,-1.492 3.908,1.054 3.908,5.571c-0,0.954 -0.063,1.871 -0.25,2.725l-0.021,0.079c-0.196,1.104 -0.637,2.154 -1.333,3.158c-1.021,1.53 -2.738,3.071 -4.3,2.709c-2.038,-0.463 -2.221,-2.454 -1.021,-3.163c1.908,-1.116 3.262,1.088 4.742,-0.9c0.662,-0.9 0.495,-1.096 0.696,-1.875c0.204,-0.771 -0.825,-2.679 -0.825,-3.554Zm16.199,-8.429c-2.766,-0.913 -4.549,-1.625 -6.362,-2.588c-1.662,-0.883 -2.4,-2.437 -2.721,-3.075c-0.55,-1.07 -0.387,-2.441 -1.25,-3.491c-1.171,-1.429 -1.679,-3.713 -1.496,-6.321c0.179,-2.513 -0.121,-4.275 1.354,-4.9c1.484,-0.625 1.909,-0.184 2.463,-2.917c0.137,-0.675 0.229,-1.291 0.3,-1.833c0.05,-0.4 0.171,-1.092 0.971,-0.708c0.9,0.42 1.112,0.474 1.687,0.641c0.392,0.113 0.371,0.513 0.088,0.884c-0.209,0.274 -0.471,0.57 -0.638,0.816c-2.646,3.909 -4.258,8.079 -2.841,12.992c1.504,5.196 6.245,7.846 9.337,9.383c1.384,0.684 1.25,1.825 -0.892,1.117Zm-7.241,-30.246c-5.171,-1.908 -11.779,-6.717 -8.775,-8.362c0.533,-0.301 1.129,-0.275 2.341,1.441c1.08,1.517 5.055,3.821 8.4,4.996c5.663,1.992 13.571,3.512 22.496,3.512c5.842,0 12.084,-0.437 18.084,-1.52c1.516,-0.28 4.512,0.716 0.891,1.52c-4.887,1.084 -11.104,1.876 -18.308,1.951c-0.496,0.008 -3.167,0.041 -4.917,-0c-10.529,-0.25 -15.687,-1.867 -20.212,-3.538Zm13.796,67.896c0.616,-1.596 2.025,-2.1 2.67,-2.1c0.659,-0 1.605,0.062 1.901,2.517c0.291,2.445 -0.434,2.662 -2.209,2.566c-0.975,-0.05 -1.529,-0.112 -2.454,-0.25c-0.783,-0.121 -0.275,-1.775 0.092,-2.733Zm-4.163,13.404c-0.346,1.417 -0.617,1.233 -1.1,1.2c-1.246,-0.092 -0.808,-1.179 -0.554,-1.862c0.404,-1.059 0.867,-1.355 1.279,-1.367c1.013,-0.029 0.813,0.292 0.375,2.029Zm-4.5,-15.529c1.171,-0.746 2.142,-0.963 3.238,-0.775c1.291,0.217 0.816,1.367 0.212,2.575c-0.604,1.204 -0.687,2.15 -2.25,1.612c-0.854,-0.291 -1.717,-0.654 -2.271,-1.087c-0.725,-0.558 0.25,-1.8 1.071,-2.325Zm-15.462,18.4c-0.83,-0.3 -1.555,-0.592 -2.171,-0.888c-0.979,-0.454 -1.413,-1.295 -0.767,-1.991c0.492,-0.534 1.613,-0.534 2.692,-0.084c0.337,0.142 0.708,0.292 1.112,0.438c1.717,0.742 0.842,3.046 -0.866,2.525Zm1.958,-6.7c-0.771,0.221 -1.992,0.179 -2.079,-0.125c-0.013,-0.033 1.075,-3.479 3.087,-3.479c2.071,-0 2.1,1.091 0.959,2.021c-1.13,0.933 -1.2,1.366 -1.967,1.583Zm69.542,2.796c0.725,0.758 -0.05,1.721 -1.009,2.304c-1.708,1.05 -4.846,2.317 -10.783,3.546c-7.292,1.516 -16.625,2.346 -26.275,2.346c-9.654,-0 -18.979,-0.83 -26.288,-2.346c-0.716,-0.146 -1.404,-0.304 -2.058,-0.459c-0.058,-0.02 -0.112,-0.037 -0.183,-0.054c-2.192,-0.462 -1.275,-3.071 0.462,-2.612c0.096,0.025 0.18,0.041 0.263,0.058c0.658,0.158 1.367,0.321 2.121,0.475c7.104,1.471 16.22,2.283 25.683,2.283c9.45,0 18.575,-0.812 25.683,-2.283c5.154,-1.071 8.055,-2.329 9.496,-3.058c1.667,-0.85 2.308,-0.809 2.888,-0.2Zm-8.209,-7.325c2.342,-0.029 3.509,1.954 4,3.166c0.213,0.538 0.284,0.946 -0.416,1.321c-0.921,0.496 -2.734,1.342 -5.538,2.296c-0.708,0.238 -0.883,-0.3 -0.908,-0.671c-0.021,-0.596 -0.15,-1.291 -0.513,-2.021c-0.67,-1.333 -1.912,-1.25 -2.341,-1.112c-0.742,0.246 -1.609,0.479 -3.721,0.992c-1.734,0.075 -1.684,-2.063 0.454,-1.68c1.337,0.246 2.458,-0.554 3.737,-1.766c1.525,-1.442 3.584,-2.475 5.246,-0.525Zm-9.491,-3.046c1.2,0.154 1.462,-0.496 2.537,-0.533c1.388,-0.046 1.692,1.533 0.417,2.304c-1.304,0.783 -1.071,1.446 -2.629,1.704c-1.121,0.187 -2.196,-0.246 -2.759,-1.05c-0.425,-0.625 0.038,-1.242 0.53,-1.583c0.487,-0.346 0.462,-1.025 1.904,-0.842Zm-2.517,-3.925c0.904,0.167 2.1,1.375 0.875,2.217c-0.421,0.287 -0.908,0.475 -1.2,0.133c-0.375,-0.438 -0.554,-0.867 -0.621,-1.371c-0.125,-0.883 0.392,-1.075 0.946,-0.979Zm-3.137,1.075c0.554,-0.308 1.108,1.15 0.42,1.237c-1.241,0.146 -1.025,-0.895 -0.42,-1.237Zm-2.83,6.937c1.421,-0.191 3.913,0.138 3.779,1.434c-0.141,1.308 -0.67,2.012 -2.012,2.637c0.162,0.371 0.992,1.604 1.225,2.563c0.117,0.487 0.2,1.025 0.217,1.437c0.008,0.404 -0.334,0.767 -0.605,0.767c-0.283,-0 -0.595,-0.388 -0.629,-0.625c-0.271,-2.1 -1.596,-3.975 -1.841,-3.933c-0.284,0.05 -0.809,0.05 -1.475,0.137c0.475,0.792 0.987,3.029 1.058,3.538c0.067,0.516 0.021,1.166 -0.621,1.245c-0.454,0.055 -0.567,-0.27 -0.629,-0.8c-0.133,-1.187 -0.879,-3.854 -1.15,-3.854c-0.275,0 -4.229,0.263 -4.571,0.246c0.25,0.483 0.575,2.604 0.584,3.725c0.008,0.779 -0.638,1.158 -0.909,1.158c-0.442,0 -0.929,-0.391 -1.017,-1.75c-0.087,-1.395 -0.229,-2.241 -0.408,-2.766c-0.071,-0.225 -0.142,-0.379 -0.491,-0.346c-0.246,0.025 -0.726,0.012 -0.871,0.012c-0.213,0 -0.271,0.167 -0.242,0.463c0.029,0.296 0.221,2.183 0.221,3.204c-0,0.858 -0.138,1.213 -0.65,1.213c-0.529,-0 -0.85,-0.634 -0.871,-1.08c-0.042,-0.591 -0.108,-2.466 -0.2,-3.35c-0.033,-0.287 -0.233,-0.475 -0.467,-0.475c-0.158,0 -0.325,-0.008 -1.066,-0.008c-0.259,0 -0.396,0.204 -0.379,0.404c0.091,1.234 0.054,3.309 0.054,3.575c-0,0.475 -0.255,0.959 -0.859,0.959c-0.345,-0 -0.658,-0.4 -0.695,-0.884c-0.009,-0.237 -0.042,-2.421 -0.134,-3.666c-0.021,-0.334 -0.166,-0.45 -0.537,-0.45l-0.492,-0c-0.333,-0 -0.467,0.2 -0.492,0.533c-0.091,1.304 0.034,4.583 -0.308,4.679c-0.358,0.104 -2.35,-0.046 -4.096,-0.212c-0.95,-0.092 -0.733,-0.813 -1.5,-0.905c-0.554,-0.066 -0.975,-0.125 -0.975,-0.545c0,-0.417 0.396,-2.513 0.959,-3.909c0.045,-0.925 -0.451,-0.883 -1.188,-2.375c-0.737,-1.487 -0.413,-1.812 0.412,-1.812c0.838,-0 5.171,-0.138 7.938,0.371c2.771,0.512 9.1,0.654 11.958,0.654c2.859,-0 2.542,-1.025 3.975,-1.209Zm-15.054,-11.162c0.063,-1.396 0.2,-2.113 0.554,-2.717c0.463,-0.791 0.646,-1.208 0.784,-1.908c0.141,-0.7 1.57,-2.371 1.57,-0.604c0,1.654 0.046,3.796 0.063,5.4c-0,0.591 -0.262,0.633 -0.4,0.629c-0.754,-0.013 -1.488,-0.054 -2.2,-0.125c-0.133,-0.017 -0.404,-0.042 -0.371,-0.675Zm11.909,4.829c0.925,1.971 0.512,2.867 -0.651,3.054c-1.15,0.188 -4.612,0.375 -6.174,0.438c-1.346,0.05 -2.263,-0.563 -2.176,-2.004c0.096,-1.446 1.663,-2.655 4.013,-3.213c2.358,-0.558 4.621,0.933 4.988,1.725Zm-5.401,-10.037c-0.02,-1.675 3.046,-2.255 3.138,-0.955c0.079,1.067 0.242,2.775 0.596,5.121c0.083,0.559 0.1,0.779 -0.246,0.884c-0.875,0.258 -1.733,0.487 -2.854,0.654c-0.279,0.037 -0.413,-0.2 -0.433,-0.575c-0.088,-2.85 -0.175,-3.713 -0.201,-5.129Zm4.113,-6.584c1.658,-0.946 2.021,-0.046 2.021,0.304c-0,1.421 -3.733,3.48 -9.596,3.48c-2.108,-0 -3.942,-0.267 -5.421,-0.692c-0.725,-0.208 -0.958,-0.433 -0.9,-0.904c0.063,-0.529 1,-0.284 1.375,-0.238c1.392,0.192 3.059,0.234 4.946,0.029c3.292,-0.345 5.933,-1.037 7.575,-1.979Zm-9.729,-7.762c0.025,-0.709 0.679,-1.3 1.137,-1.488c0.463,-0.183 0.834,0.034 0.834,0.834c-0,1.12 0.045,2.591 0.045,3.52c0,0.934 -2.033,1.209 -2.033,-0.37c0,-1.409 -0.012,-1.78 0.017,-2.496Zm6.029,-1.8c-0.063,-1.175 1.3,-1.429 1.392,0.129c0.079,1.367 0.333,4.096 0.371,4.683c0.02,0.588 -1.534,1.704 -1.575,0.184c-0.034,-1.409 -0.084,-3.163 -0.188,-4.996Zm3.896,-5.713c-0.192,2.196 -3.463,2.329 -5.171,1.863c-1.704,-0.467 -2.308,-0.884 -3.275,-1.071c-0.971,-0.183 -1.333,-1.238 -0.142,-1.063c6.555,0.93 8.729,-1.358 8.588,0.271Zm53.958,-37.771c-6.046,3.542 -11.312,7.7 -16.221,10.884c-3.654,2.371 -1.787,-3.659 -4.562,-1.238c-4.25,3.721 -4.392,9.321 -15.592,16.396c-6.725,4.25 -14.333,6.213 -20.708,5.833c-5.663,-0.341 -5.234,-2.337 -7.504,-2.112c-1.85,0.187 -3.121,-0.483 -4.23,-1.413c-1.625,-1.37 -2.475,-3.1 -2.512,-5.1c-0.092,-5.687 5.85,-10 11.617,-11.008c4.825,-0.842 3.116,2.233 4.875,2.004c2.504,-0.325 2.341,-2.829 7.875,-3.846c1.866,-0.35 2.058,1.413 4.158,1.017c2.096,-0.392 6.096,-2.921 8.433,-3.462c1.809,-0.417 3.688,-0.896 5.646,-1.45c2.421,-0.68 4.958,-1.484 7.613,-2.442c2.316,-0.833 4.566,-1.629 6.675,-2.375c7.166,-2.5 12.82,-4.304 14.929,-4.442c2.071,-0.133 1.908,1.359 -0.492,2.754Zm7.763,-3.529c-0.742,0.229 -1.496,0.313 -1.534,-0.354c-0.033,-0.775 1.321,-1.012 2.642,-0.942c0.696,0.038 0.346,0.842 -1.108,1.296Zm12.654,-28.904c-0,-5.029 1.779,-8.579 3.837,-12.679c0.809,-1.6 1.638,-3.254 2.367,-5.038c0.542,-1.304 1.004,-2.591 1.404,-3.808c1.704,4.221 3.138,9.783 2.221,15.392c-0.683,4.121 -2.242,7.504 -3.913,11.087c-0.962,2.075 -1.941,4.179 -2.754,6.45c-0.179,-0.433 -0.366,-0.866 -0.55,-1.296c-1.279,-3.008 -2.612,-6.112 -2.612,-10.108Zm4.646,25.242c-0.259,0.05 -0.575,0.058 -0.95,0.058c-0.075,0 -0.142,0 -0.213,-0.004c-1.392,-0.021 -2.141,-0.279 -1.925,-1.4c0.221,-1.1 1.258,-1.925 2.325,-1.925c1.071,-0 1.588,0.996 1.588,2.121c-0,0.766 -0.275,1.05 -0.825,1.15Z" style="fill:#fff;fill-rule:nonzero;"/><path d="M532.729,115.596l-5.142,-0l0,26.112c0,7.334 -2.604,12.063 -8.291,15.15c-2.879,1.505 -6.171,2.33 -9.525,2.33c-9.942,-0 -17.275,-6.58 -17.275,-15.559l-0,-28.033l-5.142,-0l0,-2.538l16.317,0l-0,2.538l-5.142,-0l0,25.908c0,8.292 4.867,13.708 12.471,13.708c7.817,0 13.092,-5.554 13.092,-13.775l-0,-25.841l-5.142,-0l-0,-2.538l13.779,0l0,2.538Z" style="fill:#fff;fill-rule:nonzero;"/><path d="M584.933,159.05l-2.121,0l-26.32,-36.192l-0,32.9l5.208,0l0,2.538l-13.846,-0l0,-2.538l5.208,0l0,-37.558l-1.845,-2.604l-4.734,-0l0,-2.538l9.938,0l25.087,34.404l0,-31.866l-5.208,-0l0,-2.538l13.775,0l0,2.538l-5.142,-0l0,43.454Z" style="fill:#fff;fill-rule:nonzero;"/><path d="M621.308,158.296l-16.316,-0l-0,-2.538l5.141,0l0,-40.162l-5.141,-0l-0,-2.538l16.316,0l0,2.538l-5.141,-0l-0,40.162l5.141,0l0,2.538Z" style="fill:#fff;fill-rule:nonzero;"/><path d="M656.933,159.463l-2.329,-0l-17.275,-43.867l-4.041,-0l-0,-2.538l16.995,0l0,2.538l-6.441,-0l13.3,33.65l13.158,-33.65l-4.525,-0l0,-2.538l11.721,0l-0,2.538l-3.429,-0l-17.134,43.867Z" style="fill:#fff;fill-rule:nonzero;"/><path d="M720.654,158.296l-31.191,-0l-0,-2.538l5.141,0l0,-40.162l-5.141,-0l-0,-2.538l27.349,0l0,-1.92l3.155,-0l-0,10.9l-3.084,-0l0,-5.826l-16.246,0l0,17.546l12.95,0l0,-5.141l3.159,-0.071l-0,13.504l-3.159,0.071l0,-5.279l-12.95,-0l0,18.37l16.859,0l-0,-6.033l3.158,0l0,9.117Z" style="fill:#fff;fill-rule:nonzero;"/><path d="M747.296,134.854l6.579,0c5.208,0 8.842,-3.837 8.842,-9.458c-0,-5.892 -3.221,-9.184 -8.98,-9.184l-6.441,0l-0,18.642Zm28.446,23.442l-5.83,-0c-4.045,-0 -4.795,-0.413 -7.062,-4.046l-10.208,-16.242l-5.346,0l-0,17.75l5.141,0l0,2.538l-16.316,-0l-0,-2.538l5.141,0l0,-40.162l-5.141,-0l-0,-2.538l19.058,0c6.646,0 10.417,1.85 12.471,6.1c0.892,1.85 1.371,3.909 1.371,6.1c-0,6.65 -3.7,10.9 -10.279,11.859l9.871,15.212c1.641,2.538 2.741,3.363 4.454,3.363l2.675,-0l-0,2.604Z" style="fill:#fff;fill-rule:nonzero;"/><path d="M792.375,158.912l-3.221,0l0,-12.337l3.221,0l0,5.417c4.179,2.808 6.029,3.496 9.046,3.496c5.483,-0 9.187,-2.88 9.187,-7.2c0,-3.909 -2.679,-6.784 -10.079,-10.625c-8.637,-4.521 -11.583,-7.95 -11.583,-13.571c-0,-6.784 5.758,-11.854 13.504,-11.854c3.429,-0 5.958,0.612 8.158,1.916l0,-2.466l3.15,-0l0,11.716l-3.15,0l0,-4.862c-3.496,-2.33 -5.212,-3.017 -7.954,-3.017c-4.658,0 -7.675,2.813 -7.675,7.063c0,3.495 1.988,5.479 10.554,10.416c8.567,4.938 11.034,7.95 11.034,13.571c-0,7.129 -5.892,12.613 -13.638,12.613c-4.321,-0 -7.129,-0.892 -10.554,-3.088l0,2.812Z" style="fill:#fff;fill-rule:nonzero;"/><path d="M849.45,158.296l-16.317,-0l0,-2.538l5.142,0l-0,-40.162l-5.142,-0l0,-2.538l16.317,0l0,2.538l-5.142,-0l0,40.162l5.142,0l0,2.538Z" style="fill:#fff;fill-rule:nonzero;"/><path d="M876.646,154.867l8.225,-0c9.387,-0 16.517,-8.292 16.45,-19.192c-0,-10.554 -7.263,-19.121 -16.313,-19.121l-8.362,0l-0,38.313Zm-11.175,3.429l-0,-2.538l5.142,0l-0,-40.162l-5.142,-0l-0,-2.538l20.225,0c12.337,0 22.412,10.142 22.412,22.55c0,12.68 -9.875,22.688 -22.487,22.688l-20.15,-0Z" style="fill:#fff;fill-rule:nonzero;"/><path d="M947.767,140.133l-7.334,-19.262l-7.746,19.262l15.08,0Zm16.108,18.163l-15.625,-0l0,-2.538l5.479,0l-4.792,-12.337l-17.549,-0.067l-5.005,12.338l5.688,-0l-0,2.604l-13.092,-0l0,-2.604l3.567,-0l17.821,-44.071l2.466,-0l17.138,44.071l3.904,-0l0,2.604Z" style="fill:#fff;fill-rule:nonzero;"/><path d="M988.392,154.867l8.229,-0c9.387,-0 16.512,-8.292 16.446,-19.192c-0,-10.554 -7.263,-19.121 -16.313,-19.121l-8.362,0l-0,38.313Zm-11.171,3.429l-0,-2.538l5.141,0l0,-40.162l-5.141,-0l-0,-2.538l20.221,0c12.337,0 22.412,10.142 22.412,22.55c0,12.68 -9.871,22.688 -22.483,22.688l-20.15,-0Z" style="fill:#fff;fill-rule:nonzero;"/><path d="M498.338,340.129l7.675,0c5.762,0 9.258,-3.429 9.258,-9.05c-0,-5.687 -3.909,-9.8 -9.258,-9.8l-7.675,0l-0,18.85Zm-0,-21.933l6.991,-0c4.454,-0 7.609,-3.633 7.609,-8.704c-0,-4.8 -2.946,-8.363 -6.992,-8.363l-7.608,0l-0,17.067Zm-11.171,25.017l-0,-2.538l5.137,0l0,-40.162l-5.137,-0l-0,-2.538l20.837,-0c6.238,-0 11.309,5.004 11.309,11.238c-0,5.141 -4.525,9.67 -10.075,10.15c2.808,0.337 3.837,0.612 5.55,1.437c4.249,1.988 6.72,5.963 6.72,10.621c0,6.717 -5.212,11.792 -12.204,11.792l-22.137,-0Z" style="fill:#fff;fill-rule:nonzero;"/><path d="M557.05,320.592c-0,11.587 6.446,19.946 15.354,19.946c8.771,-0 15.146,-8.43 15.146,-19.946c0,-11.513 -6.375,-19.875 -15.079,-19.875c-8.975,-0 -15.421,8.225 -15.421,19.875Zm-6.783,0.071c-0,-12.888 10.008,-23.509 22.137,-23.509c11.925,0 21.933,10.692 21.933,23.438c0,12.754 -10.008,23.512 -21.933,23.512c-12.062,0 -22.137,-10.691 -22.137,-23.441Z" style="fill:#fff;fill-rule:nonzero;"/><path d="M654.283,343.213l-31.191,-0l-0,-2.538l5.141,0l0,-40.162l-5.141,-0l-0,-2.538l16.316,-0l0,2.538l-5.141,-0l-0,39.616l16.858,0l-0,-6.033l3.158,-0l0,9.117Z" style="fill:#fff;fill-rule:nonzero;"/><path d="M696.55,343.213l-16.317,-0l0,-2.538l5.142,0l-0,-40.162l-5.142,-0l0,-2.538l16.317,-0l0,2.538l-5.142,-0l0,40.162l5.142,0l0,2.538Z" style="fill:#fff;fill-rule:nonzero;"/><path d="M746.083,344.379l-2.329,0l-17.275,-43.866l-4.046,-0l0,-2.538l17,-0l0,2.538l-6.441,-0l13.296,33.65l13.162,-33.65l-4.529,-0l-0,-2.538l11.725,-0l-0,2.538l-3.429,-0l-17.134,43.866Z" style="fill:#fff;fill-rule:nonzero;"/><path d="M808.837,343.213l-16.316,-0l-0,-2.538l5.146,0l-0,-40.162l-5.146,-0l-0,-2.538l16.316,-0l0,2.538l-5.137,-0l-0,40.162l5.137,0l0,2.538Z" style="fill:#fff;fill-rule:nonzero;"/><path d="M863.513,325.05l-7.334,-19.258l-7.746,19.258l15.08,0Zm16.108,18.163l-15.625,-0l-0,-2.538l5.479,0l-4.796,-12.337l-17.546,-0.067l-5.004,12.337l5.688,0l-0,2.605l-13.092,-0l0,-2.605l3.567,0l17.821,-44.071l2.466,0l17.138,44.071l3.904,0l-0,2.605Z" style="fill:#fff;fill-rule:nonzero;"/><path d="M944.158,343.967l-2.12,-0l-26.321,-36.192l-0,32.9l5.208,0l-0,2.538l-13.846,-0l0,-2.538l5.213,0l-0,-37.558l-1.85,-2.604l-4.734,-0l0,-2.538l9.938,-0l25.087,34.408l0,-31.87l-5.208,-0l-0,-2.538l13.775,-0l-0,2.538l-5.142,-0l0,43.454Z" style="fill:#fff;fill-rule:nonzero;"/><path d="M1002.87,325.05l-7.338,-19.258l-7.746,19.258l15.084,0Zm16.108,18.163l-15.629,-0l0,-2.538l5.483,0l-4.796,-12.337l-17.545,-0.067l-5.009,12.337l5.692,0l-0,2.605l-13.092,-0l0,-2.605l3.563,0l17.821,-44.071l2.47,0l17.134,44.071l3.908,0l0,2.605Z" style="fill:#fff;fill-rule:nonzero;"/><rect x="412.525" y="112.996" width="3.458" height="230.233" style="fill:#fff;fill-rule:nonzero;"/><rect x="1090.35" y="112.996" width="3.458" height="230.233" style="fill:#fff;fill-rule:nonzero;"/><path d="M546.383,260.242c-9.054,3.308 -14.704,4.475 -22.8,4.475c-22.487,-0 -38.466,-15.129 -38.466,-36.334c-0,-20.991 15.979,-36.654 37.4,-36.654c6.925,0 11.721,0.959 17.9,3.621l-0,-4.475l5.858,0l-0,19.075l-5.858,0l-0,-6.821c-6.071,-4.262 -9.484,-5.433 -15.134,-5.433c-14.808,-0 -25.146,12.358 -25.146,30.046c0,17.266 11.405,30.691 26.105,30.691c5.329,0 9.166,-1.175 14.175,-4.262l-0,-8.1l5.966,-0l0,14.171Z" style="fill:#fff;fill-rule:nonzero;"/><path d="M598.608,235.096l-10.121,-26.638l-10.762,26.638l20.883,-0Zm27.596,28.237l-25.996,0l0,-4.475l7.454,0l-6.604,-17.262l-25.891,-0l-6.93,17.262l8.53,0l-0,4.475l-22.063,0l0,-4.475l6.609,0l27.491,-68.087l6.5,-0l26.425,68.087l4.475,0l0,4.475Z" style="fill:#fff;fill-rule:nonzero;"/><path d="M670.971,263.333l-34.308,0l-0,-4.475l10.329,0l-0,-59.566l-18.434,-0l0,8.846l-5.858,-0l0,-18.117l5.858,-0l0,2.983l50.513,0l-0,-2.983l5.858,-0l0,18.117l-5.858,-0l-0,-8.846l-18.333,-0l-0,59.566l10.233,0l-0,4.475Z" style="fill:#fff;fill-rule:nonzero;"/><path d="M723.196,190.129l-7.458,0l12.679,-17.154l11.721,-0l-16.942,17.154Zm5.221,68.517c10.762,-0 20.245,-14.279 20.245,-30.475c0,-16.092 -9.483,-30.367 -20.245,-30.367c-10.659,0 -20.142,14.275 -20.142,30.367c0,16.196 9.483,30.475 20.142,30.475Zm-0,6.071c-19.609,-0 -35.163,-16.196 -35.163,-36.546c0,-20.354 15.554,-36.442 35.163,-36.442c19.604,0 35.266,16.088 35.266,36.442c0,20.35 -15.662,36.546 -35.266,36.546Z" style="fill:#fff;fill-rule:nonzero;"/><path d="M826.567,263.333l-50.3,0l-0,-4.475l8.1,0l-0,-61.379l-8.1,0l-0,-4.475l29.841,0l0,4.475l-7.991,0l-0,59.567l22.7,-0l-0,-7.883l5.75,-0l-0,14.17Z" style="fill:#fff;fill-rule:nonzero;"/><path d="M865.258,263.333l-29.837,0l-0,-4.475l8.096,0l-0,-61.379l-8.096,0l-0,-4.475l29.837,0l0,4.475l-7.995,0l-0,61.379l7.995,0l0,4.475Z" style="fill:#fff;fill-rule:nonzero;"/><path d="M938.892,260.242c-9.054,3.308 -14.705,4.475 -22.805,4.475c-22.483,-0 -38.466,-15.129 -38.466,-36.334c-0,-20.991 15.983,-36.654 37.4,-36.654c6.929,0 11.725,0.959 17.904,3.621l0,-4.475l5.858,0l0,19.075l-5.858,0l0,-6.821c-6.071,-4.262 -9.483,-5.433 -15.133,-5.433c-14.809,-0 -25.146,12.358 -25.146,30.046c-0,17.266 11.404,30.691 26.104,30.691c5.329,0 9.167,-1.175 14.175,-4.262l0,-8.1l5.967,-0l-0,14.171Z" style="fill:#fff;fill-rule:nonzero;"/><path d="M991.117,235.096l-10.121,-26.638l-10.767,26.638l20.888,-0Zm27.595,28.237l-25.995,0l-0,-4.475l7.454,0l-6.604,-17.262l-25.892,-0l-6.929,17.262l8.525,0l-0,4.475l-22.054,0l-0,-4.475l6.604,0l27.492,-68.087l6.5,-0l26.424,68.087l4.475,0l0,4.475Z" style="fill:#fff;fill-rule:nonzero;"/><rect x="1210.35" y="145.717" width="15.983" height="114.067" style="fill:#fff;fill-rule:nonzero;"/><path d="M1301.2,145.717l15.646,-0l-0,114.066l-16.821,0c-17.613,-44.975 -29.104,-74.808 -34.492,-89.504c0,1.238 0.225,3.817 0.675,7.742c0.896,9.754 1.346,20.579 1.346,32.467l0,49.295l-15.479,0l0,-114.066l16.996,-0c15.583,39.479 25.062,63.929 28.429,73.354c3.362,9.421 5.271,14.75 5.717,15.979c-0,-1.008 -0.305,-5.971 -0.921,-14.887c-0.621,-8.917 -0.984,-17.521 -1.096,-25.826l-0,-48.62Z" style="fill:#fff;fill-rule:nonzero;"/><path d="M1393.06,145.717l0,13.966l-21.704,0l0,100.1l-15.983,0l-0,-100.1l-21.7,0l-0,-13.966l59.387,-0Z" style="fill:#fff;fill-rule:nonzero;"/><path d="M1409.71,145.717l51.984,-0l-0,13.966l-36.171,0l-0,35.496l31.462,0l0,13.963l-31.462,-0l-0,36.846l36.171,-0l-0,13.795l-51.984,0l0,-114.066Z" style="fill:#fff;fill-rule:nonzero;"/><path d="M1498.54,159.513l-0,42.562l13.458,0c4.712,0 8.1,-1.062 10.179,-3.196c2.075,-2.129 3.112,-5.383 3.112,-9.758l0,-16.988c0,-8.416 -4.433,-12.62 -13.291,-12.62l-13.458,-0Zm-0,55.854l-0,44.416l-15.813,0l-0,-114.066l30.617,-0c8.971,-0 15.841,2.246 20.608,6.733c4.767,4.483 7.15,10.708 7.15,18.671l0,18.171c0,12.45 -4.767,20.471 -14.3,24.058l18.171,46.433l-17.496,0l-16.321,-44.416l-12.616,-0Z" style="fill:#fff;fill-rule:nonzero;"/><path d="M1614.95,145.717l15.646,-0l-0,114.066l-16.821,0c-17.612,-44.975 -29.104,-74.808 -34.492,-89.504c0,1.238 0.226,3.817 0.676,7.742c0.895,9.754 1.345,20.579 1.345,32.467l0,49.295l-15.479,0l0,-114.066l16.992,-0c15.587,39.479 25.066,63.929 28.433,73.354c3.363,9.421 5.271,14.75 5.721,15.979c-0,-1.008 -0.308,-5.971 -0.925,-14.887c-0.621,-8.917 -0.983,-17.521 -1.096,-25.826l0,-48.62Z" style="fill:#fff;fill-rule:nonzero;"/><path d="M1651.49,169.942c0,-7.959 2.609,-14.129 7.821,-18.504c5.217,-4.375 12.646,-6.559 22.292,-6.559c9.646,0 17.5,1.009 23.554,3.025l0,15.142c-6.054,-2.354 -13.404,-3.533 -22.037,-3.533c-10.43,-0 -15.646,3.87 -15.646,11.608l-0,6.562c-0,3.588 0.7,6.421 2.104,8.496c1.4,2.075 3.892,4.121 7.483,6.142l19.517,10.933c9.083,4.938 13.625,12.396 13.625,22.375l-0,9.421c-0,8.187 -2.858,14.496 -8.579,18.925c-5.721,4.433 -13.767,6.65 -24.142,6.65c-10.375,0 -18.704,-1.179 -24.983,-3.537l-0,-15.138c7.404,2.688 15.196,4.038 23.383,4.038c12.225,-0 18.342,-4.15 18.342,-12.45l-0,-5.721c-0,-3.367 -0.621,-5.971 -1.85,-7.825c-1.238,-1.85 -3.533,-3.671 -6.9,-5.467l-19.008,-10.429c-9.988,-5.383 -14.976,-13.4 -14.976,-24.059l0,-10.095Z" style="fill:#fff;fill-rule:nonzero;"/><rect x="1817.7" y="144.55" width="15.979" height="114.067" style="fill:#fff;fill-rule:nonzero;"/><path d="M1903.28,172.637c0,-8.637 -4.483,-12.954 -13.454,-12.954l-13.292,0l0,48.955l13.292,-0c8.971,-0 13.454,-4.375 13.454,-13.121l0,-22.88Zm-42.558,-26.92l30.612,-0c8.975,-0 15.846,2.246 20.613,6.733c4.766,4.483 7.15,10.763 7.15,18.842l-0,25.571c-0,8.075 -2.384,14.358 -7.15,18.841c-4.767,4.488 -11.638,6.729 -20.613,6.729l-14.8,0l0,37.35l-15.812,0l-0,-114.066Z" style="fill:#fff;fill-rule:nonzero;"/><path d="M1741.3,217.046l4.942,-24.667l32.133,0l-4.942,24.667l-32.133,-0Zm44.354,-60.983l-4.946,24.67l-32.133,0l4.946,-24.67l32.133,-0Zm-29.8,-11.646l4.946,-24.688l32.133,0l-4.945,24.688l-32.134,-0Zm44.359,-61.004l-4.942,24.67l-32.133,0l4.941,-24.67l32.134,-0Zm8.571,-42.759l-6.238,31.113l-32.133,-0l6.237,-31.113l-15.983,0l-43.913,219.129l15.984,0l6.229,-31.087l32.133,-0l-6.233,31.087l16.15,0l43.917,-219.129l-16.15,0Z" style="fill:#fff;fill-rule:nonzero;"/><path d="M1216.01,333.158c3.112,3.284 7.908,6.225 12.537,6.225c9.342,0 12.621,-7.15 12.621,-18.679c-0,-12.621 -4.963,-16.325 -11.109,-16.325c-5.633,0 -10.77,3.033 -14.049,5.388l-0,23.391Zm-6.563,10.096c0.421,-2.862 0.925,-7.908 0.925,-11.946l0,-44.679c0,-0.929 -0.254,-1.516 -1.096,-1.766l-5.133,-1.605l0.675,-3.529l11.192,0l-0,24.821c4.037,-2.442 8.916,-5.133 14.979,-5.133c9.504,-0 15.733,6.141 15.733,20.612c0,17.338 -7.067,24.234 -17.671,24.234c-4.967,-0 -9.341,-1.43 -13.379,-5.046l-0.171,0.087l-0.417,3.95l-5.637,0Z" style="fill:#fff;fill-rule:nonzero;"/><path d="M1257.23,361.092l0,-3.788l5.892,-0.671c1.008,-0.083 1.266,-0.587 1.766,-1.762l5.388,-12.454l-14.809,-36.184c-0.42,-1.012 -0.758,-1.175 -1.766,-1.433l-3.45,-0.837l0.837,-3.705l15.992,0l-0,3.705l-5.721,0.67l12.029,31.05l12.542,-31.05l-5.812,-0.67l0.845,-3.705l15.309,0l-0,3.705l-2.855,0.416c-1.095,0.171 -1.683,0.509 -2.104,1.434l-21.291,50.82l7.912,0.759l0,3.7l-20.704,-0Z" style="fill:#fff;fill-rule:nonzero;"/><path d="M1369.37,339.892c-4.379,3.025 -12.117,4.371 -19.859,4.371c-20.362,-0 -28.441,-13.292 -28.441,-31.971c-0,-17.754 9.846,-31.05 29.787,-31.05c7.571,-0 14.304,1.766 18.342,4.458l-0,12.288l-4.287,-0.25l-1.434,-7.913c-0.083,-0.675 -0.171,-1.179 -1.092,-1.513c-3.199,-1.183 -7.487,-2.104 -11.954,-2.104c-14.212,0 -23.475,9.338 -23.475,26.167c0,17.583 8.755,26.929 22.888,26.929c4.296,0 9.592,-0.425 13.129,-2.025c0.587,-0.25 0.921,-0.587 1.092,-1.429l1.345,-7.487l3.959,-0l-0,11.529Z" style="fill:#fff;fill-rule:nonzero;"/><path d="M1404.61,323.567l-11.021,1.008c-8.074,0.758 -10.266,3.113 -10.266,7.829c-0,5.046 2.525,7.15 6.9,7.15c5.804,0 11.275,-3.787 14.387,-7.908l0,-8.079Zm1.096,19.687l-0.758,-5.637l-0.254,-0.084c-4.459,4.125 -9.167,6.73 -15.567,6.73c-10.513,-0 -11.692,-7.234 -11.692,-11.192c0,-8.408 5.217,-11.946 15.142,-12.871l12.033,-1.092l0,-4.716c0,-7.067 -1.429,-10.179 -9.591,-10.179c-5.634,-0 -9.929,-0 -10.013,6.816l-5.383,-0.675c-0,-9.925 9.254,-10.937 15.479,-10.937c11.529,-0 15.146,3.366 15.146,14.808l-0,23.054c-0,1.346 0.087,1.517 1.346,1.684l4.379,0.591l-0,3.7l-10.267,0Z" style="fill:#fff;fill-rule:nonzero;"/><path d="M1448.35,341.908c-3.2,1.263 -6.817,2.355 -10.854,2.355c-7.321,-0 -10.859,-3.7 -10.859,-10.434l0,-28.016c0,-0.505 0,-0.842 -0.67,-0.842l-6.23,-0l0,-3.788c6.23,-0.841 7.659,-3.029 8.755,-11.358l3.787,-0l0,9.592c0,0.504 0,0.841 0.671,0.841l12.537,0l0,4.713l-13.208,-0l0,26.754c0,5.388 1.513,7.492 6.396,7.492c2.775,-0 5.633,-0.759 8.075,-1.684l1.6,4.375Z" style="fill:#fff;fill-rule:nonzero;"/><path d="M1485.7,321.633c-0,-11.529 -4.375,-17.254 -13.629,-17.254c-9.338,0 -14.554,5.809 -14.554,17.334c-0,11.529 4.795,17.92 14.133,17.92c9.254,0 14.05,-6.141 14.05,-18Zm-33.992,0c0,-13.125 6.567,-22.216 20.529,-22.216c13.884,-0 19.271,9.091 19.271,21.625c0,14.054 -6.225,23.221 -20.108,23.221c-13.971,-0 -19.692,-9.425 -19.692,-22.63Z" style="fill:#fff;fill-rule:nonzero;"/><path d="M1857.08,44.638l-3.387,16.879l-3.029,-0l3.358,-16.879l-5.6,-0l0.529,-2.692l14.271,-0l-0.529,2.692l-5.613,-0Z" style="fill:#fff;fill-rule:nonzero;"/><path d="M1867.38,46.933l-1.766,8.863c-0.055,0.262 -0.1,0.525 -0.13,0.787c-0.033,0.259 -0.041,0.492 -0.041,0.7c-0,0.654 0.137,1.163 0.42,1.513c0.284,0.354 0.75,0.533 1.4,0.533c0.934,0 1.767,-0.412 2.496,-1.233c0.43,-0.488 0.792,-1.025 1.084,-1.617c0.283,-0.587 0.487,-1.171 0.6,-1.75l1.571,-7.796l2.916,0l-2.441,12.146l1.879,0l-0.475,2.438l-2.242,-0c-0.654,-0 -1.167,-0.175 -1.529,-0.517c-0.367,-0.346 -0.55,-0.821 -0.55,-1.421c-0,-0.241 0.033,-0.521 0.087,-0.837l0.055,-0.338l-0.142,0c-0.542,1.121 -1.171,1.975 -1.875,2.563c-0.717,0.587 -1.588,0.887 -2.638,0.887c-1.195,0 -2.1,-0.35 -2.704,-1.037c-0.608,-0.696 -0.908,-1.659 -0.908,-2.888c-0,-0.321 0.017,-0.633 0.054,-0.954c0.033,-0.321 0.092,-0.663 0.162,-1.037l1.801,-9.005l2.916,0Z" style="fill:#fff;fill-rule:nonzero;"/><path d="M1892.73,59.354c1.067,0 1.925,-0.329 2.583,-0.991c0.65,-0.663 1.109,-1.642 1.371,-2.93l0.421,-2.05c0.037,-0.225 0.067,-0.47 0.096,-0.741c0.033,-0.271 0.046,-0.529 0.046,-0.771c-0,-0.821 -0.196,-1.492 -0.588,-2.008c-0.391,-0.509 -0.996,-0.771 -1.8,-0.771c-0.579,-0 -1.096,0.133 -1.554,0.391c-0.458,0.267 -0.863,0.605 -1.221,1.017c-0.392,0.446 -0.729,0.933 -0.991,1.454c-0.271,0.525 -0.475,1.113 -0.605,1.767l-0.533,2.662c-0.171,0.842 -0.021,1.55 0.446,2.121c0.466,0.571 1.246,0.85 2.329,0.85Zm-3.817,-12.421l2.921,0l-0.641,3.255l0.108,-0c0.596,-1.196 1.258,-2.096 1.975,-2.692c0.721,-0.6 1.641,-0.896 2.762,-0.896c1.346,0 2.388,0.483 3.113,1.458c0.729,0.971 1.096,2.271 1.096,3.896c-0,1.275 -0.163,2.504 -0.475,3.7c-0.321,1.196 -0.779,2.254 -1.392,3.167c-0.608,0.917 -1.338,1.654 -2.2,2.204c-0.858,0.55 -1.829,0.829 -2.917,0.829c-0.954,0 -1.775,-0.241 -2.471,-0.733c-0.687,-0.483 -1.108,-1.167 -1.258,-2.042l-0.142,0l-1.595,8.046l-2.917,0l4.033,-20.192Z" style="fill:#fff;fill-rule:nonzero;"/><path d="M1903.02,61.517l2.916,-14.584l2.913,0l-0.613,3.113l0.167,-0c0.162,-0.375 0.375,-0.742 0.629,-1.117c0.25,-0.375 0.559,-0.708 0.909,-1c0.358,-0.287 0.762,-0.525 1.225,-0.712c0.454,-0.188 0.975,-0.284 1.554,-0.284l0.812,0l-0.587,2.888l-0.984,-0c-1.291,-0 -2.291,0.312 -3,0.929c-0.708,0.617 -1.17,1.454 -1.375,2.521l-1.65,8.246l-2.916,-0Z" style="fill:#fff;fill-rule:nonzero;"/><path d="M1919.39,44.329c-0.538,0 -0.93,-0.116 -1.175,-0.337c-0.242,-0.225 -0.367,-0.504 -0.367,-0.842c-0,-0.187 0.05,-0.517 0.142,-0.979c0.095,-0.429 0.291,-0.792 0.587,-1.083c0.304,-0.288 0.779,-0.434 1.433,-0.434c0.542,0 0.934,0.113 1.18,0.338c0.241,0.225 0.362,0.504 0.362,0.841c-0,0.188 -0.046,0.513 -0.138,0.98c-0.095,0.429 -0.291,0.791 -0.591,1.083c-0.3,0.287 -0.775,0.433 -1.433,0.433Zm-2.325,17.188c-0.709,-0 -1.251,-0.184 -1.625,-0.55c-0.376,-0.359 -0.563,-0.834 -0.563,-1.413c-0,-0.187 0.029,-0.421 0.087,-0.7l2.384,-11.921l2.916,0l-2.441,12.146l1.879,0l-0.475,2.438l-2.162,-0Z" style="fill:#fff;fill-rule:nonzero;"/><path d="M1922.87,61.517l2.916,-14.584l2.917,0l-0.617,3.113l0.138,-0c0.542,-1.117 1.162,-1.975 1.867,-2.563c0.704,-0.591 1.591,-0.883 2.679,-0.883c1.062,0 1.875,0.3 2.437,0.908c0.559,0.609 0.879,1.459 0.95,2.538l0.142,-0c0.521,-1.1 1.158,-1.954 1.896,-2.55c0.733,-0.6 1.666,-0.896 2.787,-0.896c1.179,0 2.058,0.337 2.654,1.025c0.588,0.679 0.879,1.629 0.879,2.846c0,0.671 -0.083,1.4 -0.25,2.187l-1.291,6.421l1.766,0l-0.475,2.438l-2.22,-0c-0.634,-0 -1.129,-0.159 -1.496,-0.463c-0.367,-0.312 -0.546,-0.762 -0.546,-1.358c0,-0.246 0.025,-0.479 0.083,-0.704l1.263,-6.334c0.054,-0.283 0.1,-0.554 0.142,-0.812c0.037,-0.267 0.054,-0.509 0.054,-0.733c-0,-0.634 -0.146,-1.125 -0.434,-1.471c-0.291,-0.346 -0.745,-0.517 -1.362,-0.517c-0.858,0 -1.654,0.412 -2.384,1.233c-0.412,0.446 -0.758,0.971 -1.037,1.567c-0.279,0.6 -0.475,1.179 -0.587,1.742l-1.571,7.85l-2.917,-0l1.767,-8.834c0.054,-0.283 0.1,-0.554 0.141,-0.825c0.038,-0.275 0.055,-0.529 0.055,-0.77c-0,-0.617 -0.138,-1.1 -0.405,-1.446c-0.27,-0.346 -0.708,-0.517 -1.308,-0.517c-0.483,0 -0.933,0.108 -1.346,0.333c-0.408,0.221 -0.775,0.525 -1.091,0.9c-0.434,0.484 -0.792,1.017 -1.092,1.596c-0.3,0.579 -0.504,1.15 -0.617,1.713l-1.571,7.85l-2.916,-0Z" style="fill:#fff;fill-rule:nonzero;"/><path d="M1955.73,48.929c-1.012,0 -1.883,0.342 -2.625,1.025c-0.737,0.692 -1.217,1.617 -1.442,2.779l-0.141,0.738c1.329,-0.058 2.412,-0.154 3.254,-0.284c0.842,-0.133 1.496,-0.312 1.975,-0.533c0.475,-0.229 0.8,-0.504 0.971,-0.825c0.166,-0.317 0.25,-0.683 0.25,-1.1c-0,-0.354 -0.063,-0.65 -0.196,-0.883c-0.133,-0.238 -0.3,-0.425 -0.521,-0.567c-0.212,-0.142 -0.45,-0.237 -0.712,-0.283c-0.263,-0.046 -0.534,-0.067 -0.813,-0.067Zm-1.737,12.925c-1.892,0 -3.321,-0.541 -4.305,-1.612c-0.979,-1.079 -1.475,-2.596 -1.475,-4.559c0,-1.195 0.184,-2.341 0.55,-3.433c0.363,-1.096 0.88,-2.062 1.555,-2.9c0.67,-0.846 1.483,-1.512 2.437,-2.008c0.954,-0.496 2.021,-0.742 3.2,-0.742c0.579,0 1.163,0.075 1.75,0.225c0.592,0.15 1.117,0.383 1.583,0.704c0.467,0.317 0.846,0.729 1.138,1.234c0.287,0.508 0.433,1.12 0.433,1.833c0,1.554 -0.779,2.746 -2.341,3.571c-1.559,0.821 -4.004,1.275 -7.334,1.346c-0.054,0.375 -0.079,0.687 -0.079,0.929c0,0.896 0.246,1.616 0.742,2.158c0.492,0.542 1.275,0.813 2.341,0.813c0.805,-0 1.534,-0.175 2.188,-0.53c0.65,-0.358 1.275,-0.908 1.879,-1.658l1.846,1.533c-0.917,1.134 -1.879,1.934 -2.887,2.396c-1.009,0.467 -2.08,0.7 -3.221,0.7Z" style="fill:#fff;fill-rule:nonzero;"/><path d="M1963,61.517l2.917,-14.584l2.916,0l-0.616,3.113l0.166,-0c0.167,-0.375 0.375,-0.742 0.629,-1.117c0.254,-0.375 0.559,-0.708 0.909,-1c0.358,-0.287 0.762,-0.525 1.225,-0.712c0.458,-0.188 0.975,-0.284 1.554,-0.284l0.812,0l-0.587,2.888l-0.979,-0c-1.292,-0 -2.292,0.312 -3.005,0.929c-0.708,0.617 -1.166,1.454 -1.374,2.521l-1.65,8.246l-2.917,-0Z" style="fill:#fff;fill-rule:nonzero;"/><path d="M1988.59,59.354c1.071,0 1.926,-0.329 2.584,-0.991c0.654,-0.663 1.108,-1.642 1.375,-2.93l0.421,-2.05c0.033,-0.225 0.066,-0.47 0.096,-0.741c0.029,-0.271 0.045,-0.529 0.045,-0.771c0,-0.821 -0.2,-1.492 -0.591,-2.008c-0.392,-0.509 -0.996,-0.771 -1.796,-0.771c-0.579,-0 -1.096,0.133 -1.559,0.391c-0.454,0.267 -0.862,0.605 -1.216,1.017c-0.392,0.446 -0.725,0.933 -0.996,1.454c-0.271,0.525 -0.471,1.113 -0.604,1.767l-0.533,2.662c-0.167,0.842 -0.017,1.55 0.449,2.121c0.467,0.571 1.246,0.85 2.325,0.85Zm-3.808,-12.421l2.917,0l-0.646,3.255l0.108,-0c0.6,-1.196 1.263,-2.096 1.979,-2.692c0.721,-0.6 1.642,-0.896 2.759,-0.896c1.346,0 2.387,0.483 3.112,1.458c0.729,0.971 1.096,2.271 1.096,3.896c0,1.275 -0.158,2.504 -0.475,3.7c-0.317,1.196 -0.779,2.254 -1.392,3.167c-0.608,0.917 -1.337,1.654 -2.2,2.204c-0.858,0.55 -1.829,0.829 -2.916,0.829c-0.954,0 -1.775,-0.241 -2.463,-0.733c-0.696,-0.483 -1.112,-1.167 -1.262,-2.042l-0.142,0l-1.6,8.046l-2.916,0l4.041,-20.192Z" style="fill:#fff;fill-rule:nonzero;"/><path d="M2004.63,59.354c0.6,0 1.129,-0.125 1.588,-0.391c0.458,-0.259 0.87,-0.596 1.246,-1.009c0.804,-0.858 1.337,-1.941 1.599,-3.254l0.588,-2.942c0.054,-0.316 0.038,-0.633 -0.054,-0.954c-0.096,-0.316 -0.267,-0.604 -0.508,-0.854c-0.242,-0.25 -0.555,-0.454 -0.938,-0.617c-0.383,-0.158 -0.817,-0.241 -1.304,-0.241c-1.084,-0 -1.95,0.333 -2.608,1c-0.655,0.662 -1.109,1.637 -1.375,2.929l-0.421,2.046c-0.034,0.225 -0.067,0.479 -0.096,0.758c-0.025,0.279 -0.046,0.533 -0.046,0.758c-0,0.821 0.196,1.492 0.575,2c0.388,0.517 0.971,0.771 1.754,0.771Zm5.663,2.163c-0.65,-0 -1.171,-0.171 -1.55,-0.504c-0.384,-0.338 -0.575,-0.805 -0.575,-1.405c-0,-0.316 0.025,-0.591 0.083,-0.812l0.113,-0.529l-0.113,-0c-0.6,1.196 -1.263,2.087 -1.979,2.687c-0.721,0.596 -1.642,0.9 -2.758,0.9c-1.346,0 -2.388,-0.487 -3.113,-1.462c-0.729,-0.967 -1.096,-2.267 -1.096,-3.896c0,-1.271 0.159,-2.5 0.475,-3.704c0.317,-1.196 0.779,-2.25 1.392,-3.167c0.608,-0.912 1.337,-1.646 2.2,-2.2c0.858,-0.55 1.829,-0.825 2.917,-0.825c0.954,0 1.774,0.246 2.466,0.742c0.692,0.496 1.108,1.175 1.259,2.033l0.141,0l0.475,-2.442l2.917,0l-2.438,12.146l1.879,0l-0.475,2.438l-2.22,-0Z" style="fill:#fff;fill-rule:nonzero;"/><path d="M2021.28,61.854c-1.158,0 -2.237,-0.225 -3.237,-0.679c-1.004,-0.446 -1.8,-1.092 -2.4,-1.933l1.908,-1.742c0.467,0.608 1.004,1.079 1.613,1.412c0.604,0.334 1.329,0.501 2.175,0.501c0.929,-0 1.658,-0.205 2.17,-0.609c0.513,-0.408 0.771,-0.954 0.771,-1.637c0,-0.388 -0.12,-0.725 -0.362,-1.013c-0.246,-0.287 -0.721,-0.496 -1.433,-0.625l-1.259,-0.225c-1.179,-0.204 -2.125,-0.6 -2.837,-1.179c-0.705,-0.579 -1.063,-1.458 -1.063,-2.637c0,-0.638 0.117,-1.251 0.354,-1.842c0.23,-0.592 0.584,-1.108 1.046,-1.558c0.467,-0.451 1.059,-0.813 1.767,-1.08c0.712,-0.275 1.546,-0.408 2.496,-0.408c2.17,0 3.854,0.742 5.05,2.217l-1.909,1.746c-0.337,-0.442 -0.775,-0.809 -1.32,-1.096c-0.538,-0.284 -1.205,-0.429 -1.988,-0.429c-0.896,-0 -1.567,0.195 -2.004,0.583c-0.438,0.387 -0.663,0.887 -0.663,1.496c0,0.408 0.13,0.75 0.38,1.029c0.258,0.275 0.725,0.479 1.42,0.608l1.259,0.196c1.216,0.208 2.166,0.608 2.862,1.208c0.688,0.596 1.038,1.488 1.038,2.671c-0,0.729 -0.138,1.396 -0.409,2.009c-0.27,0.604 -0.658,1.133 -1.162,1.583c-0.504,0.45 -1.121,0.8 -1.838,1.054c-0.72,0.25 -1.529,0.379 -2.425,0.379Z" style="fill:#fff;fill-rule:nonzero;"/><path d="M2036.64,59.413c0.921,-0 1.716,-0.338 2.404,-1.017c0.679,-0.675 1.154,-1.658 1.412,-2.958l0.475,-2.338c0.042,-0.15 0.071,-0.321 0.088,-0.508c0.016,-0.192 0.025,-0.388 0.025,-0.592c-0,-0.904 -0.238,-1.621 -0.717,-2.158c-0.471,-0.534 -1.179,-0.804 -2.116,-0.804c-0.913,-0 -1.713,0.337 -2.396,1.016c-0.68,0.675 -1.154,1.663 -1.413,2.958l-0.479,2.342c-0.038,0.167 -0.067,0.342 -0.083,0.521c-0.017,0.175 -0.03,0.375 -0.03,0.579c0,0.904 0.238,1.621 0.717,2.154c0.475,0.538 1.183,0.805 2.113,0.805Zm-0.221,2.441c-1.646,0 -2.971,-0.516 -3.979,-1.546c-1.009,-1.025 -1.517,-2.52 -1.517,-4.483c-0,-1.25 0.187,-2.442 0.562,-3.563c0.376,-1.12 0.888,-2.104 1.555,-2.941c0.662,-0.846 1.454,-1.504 2.371,-1.996c0.916,-0.483 1.924,-0.725 3.029,-0.725c1.641,0 2.971,0.512 3.979,1.542c1.008,1.029 1.516,2.525 1.516,4.487c0,1.271 -0.187,2.459 -0.562,3.575c-0.375,1.113 -0.896,2.088 -1.558,2.929c-0.659,0.838 -1.454,1.505 -2.367,1.988c-0.917,0.492 -1.925,0.733 -3.029,0.733Z" style="fill:#fff;fill-rule:nonzero;"/><path d="M1849.01,76.967c-1.008,-0 -1.879,0.341 -2.62,1.029c-0.738,0.687 -1.221,1.612 -1.442,2.779l-0.142,0.733c1.329,-0.054 2.413,-0.15 3.255,-0.283c0.841,-0.133 1.5,-0.308 1.979,-0.533c0.475,-0.229 0.791,-0.504 0.966,-0.821c0.163,-0.321 0.25,-0.688 0.25,-1.1c0,-0.358 -0.066,-0.654 -0.196,-0.888c-0.133,-0.237 -0.304,-0.425 -0.52,-0.566c-0.217,-0.138 -0.45,-0.234 -0.717,-0.279c-0.258,-0.046 -0.529,-0.071 -0.813,-0.071Zm-1.737,12.925c-1.888,-0 -3.321,-0.538 -4.3,-1.613c-0.983,-1.075 -1.475,-2.596 -1.475,-4.558c0,-1.196 0.183,-2.342 0.546,-3.429c0.367,-1.096 0.879,-2.067 1.558,-2.904c0.667,-0.846 1.479,-1.513 2.434,-2.009c0.958,-0.492 2.025,-0.737 3.204,-0.737c0.579,-0 1.158,0.07 1.754,0.221c0.587,0.15 1.108,0.383 1.583,0.704c0.458,0.321 0.838,0.729 1.133,1.237c0.288,0.504 0.434,1.117 0.434,1.829c-0,1.555 -0.784,2.746 -2.338,3.575c-1.562,0.821 -4.012,1.271 -7.337,1.346c-0.054,0.371 -0.079,0.684 -0.079,0.925c-0,0.9 0.246,1.621 0.741,2.158c0.492,0.542 1.275,0.813 2.338,0.813c0.808,-0 1.537,-0.175 2.191,-0.529c0.651,-0.354 1.276,-0.908 1.88,-1.658l1.841,1.533c-0.912,1.133 -1.875,1.937 -2.883,2.396c-1.008,0.466 -2.079,0.7 -3.225,0.7Z" style="fill:#fff;fill-rule:nonzero;"/><path d="M1856.28,89.554l2.917,-14.579l2.912,0l-0.612,3.113l0.137,-0c0.542,-1.121 1.175,-1.98 1.905,-2.567c0.729,-0.588 1.641,-0.879 2.716,-0.879c1.217,-0 2.134,0.341 2.733,1.033c0.609,0.696 0.913,1.654 0.913,2.892c-0,0.312 -0.012,0.629 -0.054,0.937c-0.038,0.308 -0.092,0.65 -0.163,1.021l-1.325,6.592l1.771,-0l-0.479,2.437l-2.213,0c-0.62,0 -1.108,-0.158 -1.47,-0.475c-0.363,-0.321 -0.55,-0.775 -0.55,-1.375l-0,-0.296c-0,-0.083 0.021,-0.208 0.054,-0.379l1.267,-6.304c0.112,-0.562 0.166,-1.079 0.166,-1.546c0,-0.65 -0.146,-1.154 -0.45,-1.5c-0.296,-0.341 -0.787,-0.516 -1.454,-0.516c-0.971,-0 -1.829,0.412 -2.554,1.233c-0.413,0.446 -0.763,0.967 -1.067,1.554c-0.296,0.592 -0.5,1.175 -0.616,1.754l-1.567,7.85l-2.917,0Z" style="fill:#fff;fill-rule:nonzero;"/><path d="M1888.58,76.967c-1.012,-0 -1.883,0.341 -2.625,1.029c-0.737,0.687 -1.216,1.612 -1.441,2.779l-0.142,0.733c1.329,-0.054 2.412,-0.15 3.254,-0.283c0.842,-0.133 1.5,-0.308 1.979,-0.533c0.475,-0.229 0.792,-0.504 0.967,-0.821c0.162,-0.321 0.25,-0.688 0.25,-1.1c-0,-0.358 -0.067,-0.654 -0.196,-0.888c-0.133,-0.237 -0.304,-0.425 -0.521,-0.566c-0.212,-0.138 -0.45,-0.234 -0.717,-0.279c-0.258,-0.046 -0.533,-0.071 -0.808,-0.071Zm-1.742,12.925c-1.887,-0 -3.32,-0.538 -4.299,-1.613c-0.98,-1.075 -1.475,-2.596 -1.475,-4.558c-0,-1.196 0.183,-2.342 0.55,-3.429c0.362,-1.096 0.879,-2.067 1.554,-2.904c0.671,-0.846 1.479,-1.513 2.433,-2.009c0.954,-0.492 2.025,-0.737 3.2,-0.737c0.583,-0 1.162,0.07 1.758,0.221c0.588,0.15 1.109,0.383 1.584,0.704c0.462,0.321 0.841,0.729 1.133,1.237c0.288,0.504 0.433,1.117 0.433,1.829c0,1.555 -0.779,2.746 -2.346,3.575c-1.554,0.821 -4.004,1.271 -7.329,1.346c-0.054,0.371 -0.083,0.684 -0.083,0.925c0,0.9 0.25,1.621 0.746,2.158c0.491,0.542 1.275,0.813 2.337,0.813c0.809,-0 1.538,-0.175 2.192,-0.529c0.65,-0.354 1.275,-0.908 1.875,-1.658l1.854,1.533c-0.921,1.133 -1.883,1.937 -2.896,2.396c-1.008,0.466 -2.075,0.7 -3.221,0.7Z" style="fill:#fff;fill-rule:nonzero;"/><path d="M1898.45,89.554c-0.708,0 -1.25,-0.183 -1.625,-0.546c-0.371,-0.362 -0.558,-0.837 -0.558,-1.416c-0,-0.188 0.025,-0.421 0.079,-0.7l3.621,-18.084l2.916,0l-3.675,18.309l2.021,-0l-0.479,2.437l-2.3,0Z" style="fill:#fff;fill-rule:nonzero;"/><path d="M1911.71,89.554l2.916,-14.579l2.917,0l-0.617,3.113l0.138,-0c0.541,-1.121 1.162,-1.98 1.866,-2.567c0.705,-0.588 1.592,-0.879 2.68,-0.879c1.062,-0 1.875,0.3 2.437,0.908c0.558,0.604 0.879,1.454 0.954,2.538l0.142,-0c0.516,-1.1 1.154,-1.955 1.892,-2.555c0.737,-0.595 1.666,-0.891 2.787,-0.891c1.179,-0 2.058,0.337 2.654,1.021c0.588,0.679 0.879,1.629 0.879,2.845c0,0.671 -0.083,1.405 -0.25,2.188l-1.291,6.421l1.766,-0l-0.475,2.437l-2.216,0c-0.638,0 -1.134,-0.154 -1.5,-0.462c-0.363,-0.309 -0.546,-0.763 -0.546,-1.359c-0,-0.241 0.025,-0.479 0.083,-0.704l1.263,-6.333c0.054,-0.283 0.1,-0.554 0.141,-0.813c0.038,-0.262 0.055,-0.508 0.055,-0.729c-0,-0.633 -0.146,-1.129 -0.434,-1.475c-0.291,-0.341 -0.746,-0.516 -1.358,-0.516c-0.863,-0 -1.658,0.412 -2.388,1.233c-0.412,0.446 -0.758,0.971 -1.037,1.571c-0.279,0.595 -0.475,1.175 -0.588,1.737l-1.57,7.85l-2.917,0l1.767,-8.829c0.054,-0.283 0.099,-0.558 0.141,-0.829c0.038,-0.271 0.054,-0.529 0.054,-0.771c0,-0.617 -0.137,-1.1 -0.404,-1.446c-0.271,-0.341 -0.708,-0.516 -1.308,-0.516c-0.483,-0 -0.934,0.112 -1.346,0.333c-0.408,0.225 -0.775,0.525 -1.087,0.9c-0.434,0.483 -0.796,1.017 -1.096,1.596c-0.3,0.579 -0.505,1.15 -0.617,1.712l-1.571,7.85l-2.916,0Z" style="fill:#fff;fill-rule:nonzero;"/><path d="M1942.3,74.975l-1.767,8.863c-0.054,0.258 -0.099,0.525 -0.129,0.783c-0.025,0.258 -0.041,0.492 -0.041,0.704c-0,0.65 0.141,1.158 0.42,1.508c0.284,0.359 0.75,0.534 1.4,0.534c0.938,-0 1.767,-0.409 2.501,-1.229c0.429,-0.492 0.787,-1.03 1.079,-1.617c0.287,-0.588 0.487,-1.175 0.604,-1.754l1.566,-7.792l2.917,0l-2.441,12.142l1.883,-0l-0.475,2.437l-2.246,0c-0.654,0 -1.163,-0.175 -1.529,-0.516c-0.367,-0.346 -0.55,-0.821 -0.55,-1.417c-0,-0.246 0.033,-0.521 0.087,-0.842l0.054,-0.337l-0.141,-0c-0.538,1.12 -1.167,1.975 -1.875,2.566c-0.708,0.588 -1.588,0.884 -2.638,0.884c-1.195,-0 -2.095,-0.346 -2.704,-1.038c-0.608,-0.691 -0.908,-1.654 -0.908,-2.887c-0,-0.321 0.017,-0.634 0.054,-0.955c0.038,-0.32 0.092,-0.662 0.171,-1.033l1.791,-9.004l2.917,0Z" style="fill:#fff;fill-rule:nonzero;"/><path d="M1953.47,89.554l2.916,-14.579l2.917,0l-0.617,3.113l0.138,-0c0.542,-1.121 1.175,-1.98 1.908,-2.567c0.729,-0.588 1.638,-0.879 2.717,-0.879c1.216,-0 2.129,0.341 2.733,1.033c0.608,0.696 0.913,1.654 0.913,2.892c-0,0.312 -0.017,0.629 -0.055,0.937c-0.041,0.308 -0.095,0.65 -0.166,1.021l-1.321,6.592l1.767,-0l-0.475,2.437l-2.217,0c-0.617,0 -1.104,-0.158 -1.471,-0.475c-0.362,-0.321 -0.546,-0.775 -0.546,-1.375l0,-0.296c0,-0.083 0.017,-0.208 0.054,-0.379l1.263,-6.304c0.113,-0.562 0.167,-1.079 0.167,-1.546c-0,-0.65 -0.146,-1.154 -0.45,-1.5c-0.296,-0.341 -0.784,-0.516 -1.455,-0.516c-0.97,-0 -1.825,0.412 -2.55,1.233c-0.416,0.446 -0.766,0.967 -1.07,1.554c-0.296,0.592 -0.5,1.175 -0.613,1.754l-1.571,7.85l-2.916,0Z" style="fill:#fff;fill-rule:nonzero;"/><path d="M1976.18,87.396c0.579,-0 1.092,-0.138 1.542,-0.409c0.45,-0.266 0.858,-0.599 1.233,-0.991c0.821,-0.883 1.354,-1.954 1.596,-3.229l0.537,-2.659c0.167,-0.845 0.017,-1.55 -0.449,-2.116c-0.471,-0.571 -1.255,-0.859 -2.359,-0.859c-1.046,0 -1.896,0.334 -2.55,0.996c-0.654,0.663 -1.108,1.642 -1.375,2.934l-0.421,2.041c-0.033,0.225 -0.066,0.475 -0.095,0.746c-0.025,0.267 -0.046,0.529 -0.046,0.771c-0,0.821 0.196,1.491 0.591,2.004c0.392,0.517 0.992,0.771 1.796,0.771Zm5.604,2.158c-0.654,0 -1.171,-0.171 -1.55,-0.504c-0.383,-0.337 -0.575,-0.8 -0.575,-1.404c0,-0.313 0.025,-0.588 0.08,-0.813l0.116,-0.529l-0.116,0c-0.596,1.196 -1.259,2.092 -1.975,2.688c-0.721,0.6 -1.642,0.9 -2.763,0.9c-1.346,-0 -2.383,-0.484 -3.108,-1.459c-0.734,-0.97 -1.096,-2.27 -1.096,-3.9c-0,-1.266 0.158,-2.5 0.475,-3.7c0.317,-1.196 0.779,-2.25 1.392,-3.166c0.604,-0.913 1.337,-1.65 2.199,-2.2c0.855,-0.554 1.83,-0.825 2.913,-0.825c0.954,-0 1.779,0.245 2.471,0.737c0.687,0.496 1.108,1.179 1.258,2.034l0.142,-0l1.712,-8.605l2.917,0l-3.675,18.309l1.875,-0l-0.475,2.437l-2.217,0Z" style="fill:#fff;fill-rule:nonzero;"/><path d="M1993.78,87.45c0.917,-0 1.713,-0.337 2.4,-1.012c0.68,-0.675 1.155,-1.663 1.413,-2.963l0.475,-2.338c0.041,-0.149 0.071,-0.316 0.087,-0.504c0.017,-0.191 0.029,-0.387 0.029,-0.596c0,-0.904 -0.237,-1.62 -0.716,-2.158c-0.475,-0.533 -1.183,-0.804 -2.121,-0.804c-0.913,0 -1.708,0.338 -2.396,1.021c-0.679,0.675 -1.154,1.658 -1.412,2.954l-0.48,2.342c-0.037,0.171 -0.066,0.341 -0.083,0.52c-0.017,0.18 -0.029,0.376 -0.029,0.58c-0,0.904 0.238,1.62 0.717,2.154c0.475,0.537 1.183,0.804 2.116,0.804Zm-0.225,2.442c-1.641,-0 -2.97,-0.517 -3.979,-1.542c-1.008,-1.029 -1.516,-2.525 -1.516,-4.488c-0,-1.249 0.187,-2.441 0.562,-3.558c0.375,-1.125 0.892,-2.104 1.554,-2.946c0.663,-0.841 1.454,-1.504 2.371,-1.991c0.917,-0.484 1.925,-0.725 3.029,-0.725c1.642,-0 2.971,0.508 3.979,1.541c1.009,1.025 1.517,2.521 1.517,4.484c-0,1.271 -0.187,2.462 -0.563,3.575c-0.374,1.112 -0.891,2.091 -1.554,2.929c-0.662,0.842 -1.458,1.508 -2.37,1.992c-0.917,0.487 -1.926,0.729 -3.03,0.729Z" style="fill:#fff;fill-rule:nonzero;"/><path d="M1838.23,117.592c-0.708,-0 -1.25,-0.179 -1.625,-0.546c-0.375,-0.363 -0.562,-0.838 -0.562,-1.417c-0,-0.187 0.029,-0.416 0.083,-0.696l3.617,-18.087l2.916,-0l-3.671,18.308l2.021,0l-0.479,2.438l-2.3,-0Z" style="fill:#fff;fill-rule:nonzero;"/><path d="M1849.77,115.433c0.596,0 1.129,-0.125 1.592,-0.391c0.458,-0.259 0.87,-0.596 1.241,-1.009c0.809,-0.858 1.342,-1.941 1.604,-3.254l0.588,-2.941c0.054,-0.317 0.037,-0.638 -0.054,-0.955c-0.1,-0.316 -0.267,-0.604 -0.509,-0.854c-0.241,-0.25 -0.554,-0.458 -0.937,-0.616c-0.388,-0.159 -0.821,-0.242 -1.304,-0.242c-1.084,-0 -1.95,0.333 -2.613,1c-0.65,0.662 -1.104,1.637 -1.371,2.929l-0.42,2.046c-0.034,0.221 -0.067,0.479 -0.096,0.758c-0.025,0.275 -0.042,0.534 -0.042,0.754c-0,0.821 0.192,1.492 0.575,2.005c0.379,0.516 0.967,0.77 1.746,0.77Zm5.666,2.159c-0.654,-0 -1.174,-0.167 -1.554,-0.5c-0.379,-0.338 -0.575,-0.804 -0.575,-1.405c0,-0.316 0.034,-0.591 0.088,-0.812l0.108,-0.529l-0.108,-0c-0.6,1.192 -1.263,2.087 -1.979,2.687c-0.721,0.596 -1.646,0.896 -2.763,0.896c-1.346,0 -2.387,-0.483 -3.108,-1.458c-0.734,-0.967 -1.096,-2.267 -1.096,-3.896c0,-1.271 0.158,-2.504 0.471,-3.704c0.321,-1.196 0.783,-2.25 1.396,-3.167c0.608,-0.912 1.337,-1.646 2.195,-2.2c0.863,-0.55 1.834,-0.825 2.921,-0.825c0.954,0 1.775,0.246 2.467,0.738c0.688,0.5 1.108,1.179 1.263,2.037l0.137,0l0.471,-2.442l2.921,0l-2.442,12.142l1.875,0l-0.467,2.438l-2.221,-0Z" style="fill:#fff;fill-rule:nonzero;"/><path d="M1867.98,115.433c1.067,0 1.925,-0.333 2.583,-0.991c0.654,-0.663 1.109,-1.642 1.371,-2.934l0.421,-2.045c0.033,-0.225 0.067,-0.471 0.096,-0.742c0.033,-0.275 0.046,-0.529 0.046,-0.771c-0,-0.821 -0.196,-1.492 -0.588,-2.008c-0.391,-0.513 -0.996,-0.771 -1.8,-0.771c-0.579,-0 -1.087,0.137 -1.541,0.412c-0.446,0.267 -0.859,0.6 -1.23,0.992c-0.396,0.429 -0.733,0.908 -0.995,1.442c-0.271,0.537 -0.476,1.129 -0.605,1.783l-0.533,2.663c-0.167,0.841 -0.021,1.549 0.446,2.116c0.466,0.571 1.246,0.854 2.329,0.854Zm-2.579,-18.587l2.917,-0l-1.876,9.421l0.109,-0c0.596,-1.196 1.258,-2.096 1.975,-2.692c0.725,-0.6 1.646,-0.896 2.762,-0.896c1.346,0 2.388,0.484 3.109,1.454c0.733,0.975 1.095,2.275 1.095,3.9c0,1.271 -0.154,2.504 -0.47,3.7c-0.321,1.196 -0.779,2.255 -1.396,3.167c-0.608,0.917 -1.334,1.654 -2.196,2.204c-0.858,0.55 -1.829,0.825 -2.917,0.825c-0.954,0 -1.775,-0.241 -2.462,-0.729c-0.696,-0.483 -1.117,-1.167 -1.267,-2.046l-0.142,0l-0.47,2.438l-2.917,-0l4.146,-20.746Z" style="fill:#fff;fill-rule:nonzero;"/><path d="M1884.4,115.488c0.913,-0 1.717,-0.338 2.4,-1.013c0.679,-0.675 1.15,-1.658 1.417,-2.958l0.471,-2.338c0.045,-0.15 0.066,-0.321 0.087,-0.508c0.021,-0.192 0.029,-0.388 0.029,-0.592c0,-0.904 -0.237,-1.621 -0.716,-2.158c-0.475,-0.538 -1.184,-0.804 -2.117,-0.804c-0.917,-0 -1.712,0.337 -2.396,1.016c-0.679,0.675 -1.158,1.663 -1.417,2.959l-0.479,2.341c-0.033,0.167 -0.066,0.342 -0.079,0.521c-0.021,0.175 -0.029,0.371 -0.029,0.579c-0,0.905 0.238,1.617 0.717,2.155c0.475,0.537 1.183,0.8 2.112,0.8Zm-0.225,2.441c-1.641,0 -2.975,-0.512 -3.983,-1.542c-1.009,-1.024 -1.508,-2.524 -1.508,-4.483c-0,-1.254 0.187,-2.441 0.554,-3.562c0.379,-1.121 0.896,-2.104 1.562,-2.942c0.663,-0.846 1.45,-1.508 2.367,-1.996c0.921,-0.483 1.929,-0.725 3.033,-0.725c1.642,0 2.967,0.513 3.975,1.542c1.009,1.029 1.517,2.525 1.517,4.487c-0,1.267 -0.188,2.459 -0.563,3.571c-0.37,1.117 -0.891,2.092 -1.554,2.934c-0.662,0.837 -1.454,1.504 -2.366,1.987c-0.917,0.488 -1.93,0.729 -3.034,0.729Z" style="fill:#fff;fill-rule:nonzero;"/><path d="M1894.47,117.592l2.916,-14.58l2.917,0l-0.617,3.113l0.171,0c0.163,-0.375 0.371,-0.746 0.629,-1.117c0.25,-0.375 0.555,-0.708 0.909,-1c0.354,-0.287 0.762,-0.525 1.221,-0.712c0.458,-0.188 0.979,-0.284 1.558,-0.284l0.813,0l-0.592,2.888l-0.979,0c-1.292,0 -2.292,0.313 -3.005,0.929c-0.708,0.613 -1.166,1.454 -1.37,2.521l-1.655,8.242l-2.916,-0Z" style="fill:#fff;fill-rule:nonzero;"/><path d="M1911.41,115.433c0.596,0 1.125,-0.125 1.588,-0.391c0.458,-0.259 0.871,-0.596 1.246,-1.009c0.804,-0.858 1.337,-1.941 1.596,-3.254l0.591,-2.941c0.054,-0.317 0.033,-0.638 -0.058,-0.955c-0.096,-0.316 -0.263,-0.604 -0.504,-0.854c-0.242,-0.25 -0.559,-0.458 -0.942,-0.616c-0.383,-0.159 -0.817,-0.242 -1.3,-0.242c-1.087,-0 -1.954,0.333 -2.608,1c-0.655,0.662 -1.113,1.637 -1.375,2.929l-0.421,2.046c-0.038,0.221 -0.067,0.479 -0.096,0.758c-0.025,0.275 -0.046,0.534 -0.046,0.754c0,0.821 0.192,1.492 0.575,2.005c0.383,0.516 0.967,0.77 1.754,0.77Zm5.663,2.159c-0.654,-0 -1.171,-0.167 -1.55,-0.5c-0.384,-0.338 -0.575,-0.804 -0.575,-1.405c-0,-0.316 0.025,-0.591 0.079,-0.812l0.117,-0.529l-0.117,-0c-0.596,1.192 -1.258,2.087 -1.975,2.687c-0.721,0.596 -1.642,0.896 -2.763,0.896c-1.345,0 -2.383,-0.483 -3.108,-1.458c-0.733,-0.967 -1.096,-2.267 -1.096,-3.896c0,-1.271 0.159,-2.504 0.471,-3.704c0.321,-1.196 0.783,-2.25 1.396,-3.167c0.604,-0.912 1.337,-1.646 2.196,-2.2c0.858,-0.55 1.833,-0.825 2.917,-0.825c0.954,0 1.779,0.246 2.47,0.738c0.688,0.5 1.109,1.179 1.259,2.037l0.141,0l0.475,-2.442l2.917,0l-2.437,12.142l1.874,0l-0.474,2.438l-2.217,-0Z" style="fill:#fff;fill-rule:nonzero;"/><path d="M1925.54,117.592c-0.709,-0 -1.251,-0.179 -1.625,-0.546c-0.376,-0.363 -0.563,-0.838 -0.563,-1.417c-0,-0.187 0.029,-0.416 0.083,-0.696l3.617,-18.087l2.917,-0l-3.671,18.308l2.021,0l-0.479,2.438l-2.3,-0Z" style="fill:#fff;fill-rule:nonzero;"/></svg>