<svg width="36" height="36" viewBox="0 0 36 36" fill="none" xmlns="http://www.w3.org/2000/svg">
<g clip-path="url(#clip0_436_1147)">
<path d="M15.0362 29.8177H20.931C20.9346 30.2144 20.8595 30.6078 20.7101 30.9747C20.5206 31.4167 20.2291 31.8067 19.86 32.1121C19.4909 32.4175 19.0548 32.6295 18.588 32.7305C18.3944 32.772 18.1968 32.7914 17.999 32.7882C17.2167 32.7869 16.4666 32.4741 15.9118 31.9178C15.357 31.3616 15.0423 30.6068 15.0362 29.8177ZM7.25375 28.5649C7.04712 28.5656 6.84496 28.5042 6.67295 28.3888C6.50094 28.2733 6.36685 28.1088 6.28771 27.9162C6.20857 27.7237 6.18797 27.5118 6.22851 27.3074C6.26904 27.103 6.3689 26.9154 6.51539 26.7683L8.30766 24.9599C8.85124 24.4119 9.15691 23.6687 9.15751 22.8935V16.672C9.15751 12.0909 11.5602 7.4665 15.7876 6.45258V5.44375C15.7873 5.13858 15.8491 4.83659 15.9692 4.5565C16.0892 4.27641 16.2651 4.02419 16.4858 3.81548C16.7065 3.60677 16.9673 3.44602 17.2522 3.34319C17.537 3.24036 17.8397 3.19765 18.1416 3.21771C18.7105 3.26687 19.2398 3.53137 19.6233 3.95808C20.0068 4.38479 20.2161 4.94209 20.209 5.51802V6.45173C24.4234 7.46607 26.8421 12.107 26.8421 16.6712V22.8956C26.8416 23.6704 27.1462 24.4138 27.689 24.962L29.4842 26.7683C29.6299 26.9154 29.7291 27.1028 29.7693 27.3068C29.8094 27.5108 29.7887 27.7222 29.7097 27.9143C29.6307 28.1064 29.497 28.2706 29.3255 28.386C29.154 28.5014 28.9524 28.5629 28.7463 28.5628L7.25375 28.5649Z" fill="white"/>
</g>
<defs>
<clipPath id="clip0_436_1147">
<rect width="24" height="30" fill="white" transform="translate(6 3)"/>
</clipPath>
</defs>
</svg>
