<svg width="28" height="32" viewBox="0 0 28 32" fill="none" xmlns="http://www.w3.org/2000/svg">
<path d="M26.2496 6.96961C26.576 7.29601 26.8576 7.74081 27.0912 8.30081C27.3248 8.86081 27.44 9.37281 27.44 9.84001V30C27.44 30.4672 27.2768 30.864 26.9504 31.1904C26.624 31.5168 26.2272 31.68 25.76 31.68H2.24C1.7728 31.68 1.376 31.5168 1.0496 31.1904C0.723198 30.864 0.559998 30.4672 0.559998 30V2.00001C0.559998 1.53281 0.723198 1.13601 1.0496 0.809607C1.376 0.483207 1.7728 0.320007 2.24 0.320007H17.92C18.3872 0.320007 18.8992 0.435207 19.4592 0.668807C20.0192 0.902407 20.464 1.18081 20.7904 1.51041L26.2496 6.96961ZM18.48 2.70081V9.28001H25.0592C24.944 8.94081 24.8128 8.70401 24.6752 8.56321L19.1968 3.08481C19.056 2.94401 18.8192 2.81601 18.48 2.70081ZM25.2 29.44V11.52H17.92C17.4528 11.52 17.056 11.3568 16.7296 11.0304C16.4032 10.704 16.24 10.3072 16.24 9.84001V2.56001H2.8V29.44H25.2ZM16.2048 19.0624C16.5888 19.3664 17.0784 19.6928 17.6736 20.0416C18.3616 19.9584 19.0432 19.92 19.7216 19.92C21.4368 19.92 22.4704 20.2048 22.8192 20.7776C23.0048 21.0336 23.0176 21.3376 22.8544 21.6864C22.8544 21.6992 22.848 21.7088 22.8384 21.7216C22.8256 21.7344 22.816 21.744 22.8032 21.7568V21.7728C22.7328 22.2176 22.32 22.4384 21.5616 22.4384C21.0016 22.4384 20.3296 22.3232 19.5488 22.0896C18.768 21.856 18.0096 21.5456 17.2736 21.1616C14.6944 21.4432 12.4096 21.9264 10.4128 22.6144C8.6272 25.6704 7.216 27.2 6.176 27.2C6 27.2 5.8368 27.1584 5.6864 27.0784L5.2672 26.8672C5.2544 26.8544 5.2192 26.8256 5.1616 26.7808C5.0464 26.6656 5.0112 26.4544 5.056 26.1504C5.1616 25.6832 5.488 25.1488 6.0352 24.5504C6.5824 23.9488 7.3536 23.3856 8.3456 22.8608C8.5088 22.7552 8.6432 22.7904 8.7488 22.9664C8.7712 22.9888 8.784 23.0144 8.784 23.0368C9.392 22.0448 10.016 20.896 10.656 19.5904C11.4496 18.0032 12.0576 16.4768 12.4768 15.0048C12.1952 14.048 12.0192 13.1168 11.9424 12.2144C11.8656 11.3088 11.904 10.5664 12.0576 9.98401C12.1856 9.51681 12.432 9.28321 12.7936 9.28321H13.1616H13.1776C13.4464 9.28321 13.6512 9.36961 13.7888 9.54561C14 9.79201 14.0512 10.1888 13.9456 10.736C13.9232 10.8064 13.8976 10.8512 13.8752 10.8768C13.888 10.912 13.8912 10.96 13.8912 11.0176V11.5424C13.8688 12.976 13.7856 14.096 13.6448 14.9024C14.2912 16.8096 15.1424 18.1984 16.2048 19.0624ZM6.1248 26.256C6.7328 25.9744 7.5296 25.0528 8.5216 23.4912C7.9264 23.9552 7.4176 24.448 6.992 24.96C6.5664 25.472 6.2752 25.904 6.1248 26.256ZM13.0912 10.1536C12.9152 10.6432 12.9056 11.4144 13.056 12.464C13.0688 12.3808 13.1072 12.1248 13.1776 11.6928C13.1776 11.6576 13.2192 11.408 13.2992 10.9408C13.312 10.8928 13.3344 10.848 13.3696 10.8C13.3568 10.7872 13.3536 10.7776 13.3536 10.7648C13.3536 10.752 13.3504 10.7456 13.344 10.7392C13.3376 10.7328 13.3344 10.7232 13.3344 10.7136C13.3216 10.4576 13.248 10.2464 13.1072 10.0832C13.1072 10.096 13.1008 10.1056 13.0912 10.1184V10.1536ZM10.9216 21.7216C12.496 21.0912 14.1536 20.6176 15.8912 20.304C15.8688 20.2912 15.792 20.2368 15.664 20.1376C15.536 20.0384 15.4432 19.9584 15.3856 19.9008C14.4992 19.12 13.7568 18.0928 13.1616 16.8192C12.848 17.824 12.3616 18.9728 11.7088 20.2656C11.3568 20.9248 11.0944 21.408 10.9216 21.7216ZM22.224 21.4432C21.9424 21.1616 21.1264 21.024 19.7728 21.024C20.6592 21.3504 21.3824 21.5136 21.9424 21.5136C22.1056 21.5136 22.2112 21.5072 22.256 21.4976C22.2592 21.4848 22.2496 21.4656 22.224 21.4432Z" fill="#808080"/>
</svg>
