<svg width="126" height="126" viewBox="0 0 126 126" fill="none" xmlns="http://www.w3.org/2000/svg">
<path d="M80.4019 68.0802C88.2225 62.8121 93.366 53.9008 93.366 43.7744C93.366 27.3681 79.786 14 63.1194 14C46.4525 14 33.0762 27.3681 33.0762 43.5709C33.0762 53.6974 38.2222 62.6111 46.0401 67.8765C28.3453 74.7646 16 91.387 16 111.035H24.4363C24.4363 91.5904 39.4564 75.5731 58.5918 73.3453C58.7978 73.3453 63.9414 72.9411 68.2626 73.3453H68.6749C87.4007 75.9801 101.802 91.7786 101.802 111.02H110.445C110.239 91.5752 97.8932 74.7648 80.4019 68.0802ZM63.1194 65.8504C50.5676 65.8504 40.4874 55.9273 40.4874 43.5711C40.4874 31.2148 50.5676 21.2918 63.1194 21.2918C75.6711 21.2918 85.7513 31.2148 85.7513 43.5711C85.7513 55.9273 75.6711 65.8504 63.1194 65.8504Z" fill="#00AAAD"/>
</svg>
