<svg width="28" height="28" viewBox="0 0 28 28" fill="none" xmlns="http://www.w3.org/2000/svg">
<path fill-rule="evenodd" clip-rule="evenodd" d="M8.43962 3.84807H10.6411C10.7704 2.80583 11.6263 2 12.6644 2C13.6959 2 14.5475 2.79504 14.685 3.82649L16.9174 3.84807C17.042 3.84807 17.1418 3.94657 17.1418 4.06899V6.50056C17.1419 6.52956 17.1362 6.55831 17.125 6.58514C17.1137 6.61197 17.0972 6.63635 17.0764 6.65688C17.0555 6.67742 17.0307 6.69369 17.0035 6.70478C16.9762 6.71587 16.9469 6.72154 16.9174 6.72148H8.442C8.31933 6.72148 8.21718 6.62298 8.21718 6.50056V4.06899C8.21669 4.04004 8.22208 4.01129 8.23306 3.98442C8.24403 3.95755 8.26036 3.9331 8.28108 3.91252C8.3018 3.89194 8.3265 3.87563 8.35373 3.86456C8.38095 3.8535 8.41015 3.84789 8.43962 3.84807ZM19.0344 16.2414C21.7776 16.2414 24 18.4262 24 21.1204C24 23.8161 21.7761 26 19.0344 26C16.2912 26 14.0692 23.8152 14.0692 21.1204C14.0692 18.4248 16.2926 16.2414 19.0344 16.2414ZM18.2654 18.703H19.0745C19.222 18.703 19.3437 18.8226 19.3437 18.9675V21.1411H21.0511C21.1995 21.1411 21.3212 21.2607 21.3212 21.4066V22.2011C21.3212 22.3475 21.1995 22.4666 21.0511 22.4666H17.9947V18.9675C17.9947 18.8226 18.1165 18.703 18.2654 18.703ZM10.326 14.5973C9.98568 14.5973 9.70883 14.3258 9.70883 13.9913C9.70883 13.6569 9.98568 13.3848 10.326 13.3848H17.1432C17.4835 13.3848 17.7599 13.6569 17.7599 13.9913C17.7599 14.3258 17.4835 14.5973 17.1432 14.5973H10.326ZM8.27208 13.314C8.65298 13.314 8.96134 13.6175 8.96134 13.9918C8.96134 14.3661 8.65298 14.6686 8.27208 14.6686C7.89165 14.6686 7.58282 14.3661 7.58282 13.9918C7.58282 13.6175 7.89165 13.314 8.27208 13.314ZM8.27208 17.0017C8.65298 17.0017 8.96134 17.3052 8.96134 17.6795C8.96134 18.0533 8.65298 18.3563 8.27208 18.3563C7.89165 18.3563 7.58282 18.0533 7.58282 17.6795C7.58282 17.3052 7.89165 17.0017 8.27208 17.0017ZM10.3265 18.2855C9.98616 18.2855 9.70931 18.0134 9.70931 17.679C9.70931 17.3446 9.98616 17.0725 10.3265 17.0725H14.1909C13.8691 17.4439 13.5926 17.851 13.3671 18.2855H10.3265ZM8.27208 9.62726C8.65298 9.62726 8.96134 9.93027 8.96134 10.3041C8.96134 10.6784 8.65298 10.9814 8.27208 10.9814C7.89165 10.9814 7.58282 10.6784 7.58282 10.3041C7.58282 9.93027 7.89165 9.62726 8.27208 9.62726ZM10.326 10.9101C9.98568 10.9101 9.70883 10.6385 9.70883 10.3041C9.70883 9.96967 9.98568 9.69762 10.326 9.69762H17.1432C17.4835 9.69762 17.7599 9.96967 17.7599 10.3041C17.7599 10.6385 17.4835 10.9101 17.1432 10.9101H10.326ZM5.99189 4.78054H7.13413V5.92362H5.99189C5.7642 5.92362 5.55656 6.01603 5.40716 6.16284C5.25728 6.31012 5.16372 6.51369 5.16372 6.73696V21.537C5.16372 21.7593 5.25728 21.9633 5.40716 22.1106C5.55752 22.2584 5.76563 22.3508 5.99189 22.3508H12.799C12.8797 22.7467 12.9981 23.1294 13.1508 23.4943H5.99189C5.44535 23.4943 4.94654 23.2734 4.5852 22.9183C4.2253 22.5647 4 22.0745 4 21.537V6.73696C4 6.19849 4.22434 5.70927 4.58473 5.35513C4.94511 5.001 5.44344 4.78054 5.99189 4.78054ZM20.1943 14.9754V6.73696C20.1943 6.51322 20.1007 6.30965 19.9513 6.1619C19.7961 6.00945 19.5856 5.92376 19.3661 5.92362H18.2243V4.78054H19.3661C19.9122 4.78054 20.4095 5.00147 20.7699 5.35513C21.1332 5.71208 21.358 6.2013 21.358 6.73696V15.3023C20.9862 15.1583 20.5967 15.0481 20.1943 14.9754ZM12.641 2.94561C13.2277 2.94561 13.7036 3.41279 13.7036 3.99019C13.7036 4.56665 13.2277 5.0343 12.641 5.0343C12.0539 5.0343 11.5785 4.56665 11.5785 3.99019C11.5785 3.41279 12.0539 2.94561 12.641 2.94561Z" fill="white"/>
</svg>
