<svg width="24" height="24" viewBox="0 0 24 24" fill="none" xmlns="http://www.w3.org/2000/svg">
<path d="M9.039 8.14068L11.1 6.07016V14.7033C11.1 14.9421 11.1948 15.171 11.3636 15.3399C11.5324 15.5087 11.7613 15.6035 12 15.6035C12.2387 15.6035 12.4676 15.5087 12.6364 15.3399C12.8052 15.171 12.9 14.9421 12.9 14.7033V6.07016L14.961 8.14068C15.0447 8.22505 15.1442 8.29202 15.2539 8.33773C15.3636 8.38343 15.4812 8.40696 15.6 8.40696C15.7188 8.40696 15.8364 8.38343 15.9461 8.33773C16.0558 8.29202 16.1553 8.22505 16.239 8.14068C16.3234 8.05699 16.3903 7.95742 16.436 7.84772C16.4817 7.73802 16.5052 7.62036 16.5052 7.50152C16.5052 7.38268 16.4817 7.26501 16.436 7.15531C16.3903 7.04561 16.3234 6.94604 16.239 6.86236L12.639 3.26146C12.5534 3.1795 12.4525 3.11526 12.342 3.07241C12.1229 2.98237 11.8771 2.98237 11.658 3.07241C11.5475 3.11526 11.4466 3.1795 11.361 3.26146L7.761 6.86236C7.67708 6.94629 7.61052 7.04594 7.56511 7.15561C7.51969 7.26527 7.49632 7.38281 7.49632 7.50152C7.49632 7.62022 7.51969 7.73776 7.56511 7.84743C7.61052 7.95709 7.67708 8.05674 7.761 8.14068C7.84491 8.22461 7.94454 8.29119 8.05417 8.33662C8.16381 8.38204 8.28133 8.40542 8.4 8.40542C8.51867 8.40542 8.63618 8.38204 8.74582 8.33662C8.85546 8.29119 8.95508 8.22461 9.039 8.14068ZM20.1 12.0026C19.8613 12.0026 19.6324 12.0975 19.4636 12.2663C19.2948 12.4351 19.2 12.6641 19.2 12.9029V18.3042C19.2 18.543 19.1052 18.7719 18.9364 18.9408C18.7676 19.1096 18.5387 19.2044 18.3 19.2044H5.7C5.4613 19.2044 5.23239 19.1096 5.0636 18.9408C4.89482 18.7719 4.8 18.543 4.8 18.3042V12.9029C4.8 12.6641 4.70518 12.4351 4.5364 12.2663C4.36761 12.0975 4.13869 12.0026 3.9 12.0026C3.66131 12.0026 3.43239 12.0975 3.2636 12.2663C3.09482 12.4351 3 12.6641 3 12.9029V18.3042C3 19.0205 3.28446 19.7074 3.79081 20.2139C4.29716 20.7203 4.98392 21.0049 5.7 21.0049H18.3C19.0161 21.0049 19.7028 20.7203 20.2092 20.2139C20.7155 19.7074 21 19.0205 21 18.3042V12.9029C21 12.7846 20.9767 12.6676 20.9315 12.5584C20.8863 12.4491 20.82 12.3499 20.7364 12.2663C20.6528 12.1827 20.5536 12.1164 20.4444 12.0712C20.3352 12.0259 20.2182 12.0026 20.1 12.0026Z" fill="white"/>
</svg>
