<svg width="48" height="48" viewBox="0 0 48 48" fill="none" xmlns="http://www.w3.org/2000/svg">
<mask id="mask0_254_1413" style="mask-type:luminance" maskUnits="userSpaceOnUse" x="0" y="0" width="48" height="40">
<path d="M48 0H0V39.84H48V0Z" fill="white"/>
</mask>
<g mask="url(#mask0_254_1413)">
<path d="M24 46.3996C36.3712 46.3996 46.4 36.3708 46.4 23.9996C46.4 11.6284 36.3712 1.59961 24 1.59961C11.6288 1.59961 1.59998 11.6284 1.59998 23.9996C1.59998 36.3708 11.6288 46.3996 24 46.3996Z" fill="#00315B"/>
</g>
<path d="M24 27.6002C29.0811 27.6002 33.2 23.4812 33.2 18.4002C33.2 13.3192 29.0811 9.2002 24 9.2002C18.919 9.2002 14.8 13.3192 14.8 18.4002C14.8 23.4812 18.919 27.6002 24 27.6002Z" fill="white"/>
<mask id="mask1_254_1413" style="mask-type:luminance" maskUnits="userSpaceOnUse" x="1" y="1" width="46" height="46">
<path d="M24 46.3996C36.3712 46.3996 46.4 36.3708 46.4 23.9996C46.4 11.6284 36.3712 1.59961 24 1.59961C11.6288 1.59961 1.59998 11.6284 1.59998 23.9996C1.59998 36.3708 11.6288 46.3996 24 46.3996Z" fill="white"/>
</mask>
<g mask="url(#mask1_254_1413)">
<path d="M24 60.3996C33.0574 60.3996 40.4 53.0571 40.4 43.9996C40.4 34.9421 33.0574 27.5996 24 27.5996C14.9425 27.5996 7.59998 34.9421 7.59998 43.9996C7.59998 53.0571 14.9425 60.3996 24 60.3996Z" fill="white"/>
</g>
</svg>
