<svg width="128" height="128" viewBox="0 0 128 128" fill="none" xmlns="http://www.w3.org/2000/svg">
<path d="M111.968 34.1598C111.809 32.5982 111.157 31.1276 110.108 29.9606C109.058 28.7936 107.664 27.9907 106.128 27.6678C99.7378 26.6632 93.4262 25.2103 87.24 23.3198C81.1819 20.8354 75.5015 17.5152 70.364 13.4558C69.0503 12.5102 67.4726 12.0015 65.854 12.0015C64.2354 12.0015 62.6577 12.5102 61.344 13.4558C56.4807 17.9537 50.6699 21.3027 44.34 23.2558C38.4788 25.6793 32.2873 27.2096 25.972 27.7958C24.4093 28.0483 22.9816 28.8319 21.9294 30.0145C20.8772 31.1972 20.265 32.7064 20.196 34.2878C20.196 34.2878 20 50.5798 20 64.9198C20 90.8798 50.632 116 65.952 116C81.268 116 107.232 98.2798 111.384 65.3118C112.424 45.8398 111.704 34.2238 111.704 34.2238L111.968 34.1558V34.1598ZM95.288 54.2118L63.288 84.3918C61.848 85.7638 59.648 85.9798 57.968 84.9118L57.128 84.1958L39.472 65.8318C38.6801 64.9715 38.2623 63.8317 38.3107 62.6634C38.3591 61.495 38.8696 60.3938 39.73 59.6018C40.5904 58.8099 41.7301 58.3922 42.8984 58.4405C44.0668 58.4889 45.1681 58.9995 45.96 59.8598L60.5 75.1118L89.316 47.8518C89.7423 47.4597 90.2416 47.1554 90.7855 46.9562C91.3294 46.7571 91.9072 46.667 92.4858 46.6911C93.0645 46.7153 93.6328 46.8532 94.1582 47.0969C94.6836 47.3407 95.1559 47.6855 95.548 48.1118C95.9401 48.5381 96.2445 49.0374 96.4436 49.5813C96.6428 50.1252 96.7328 50.703 96.7087 51.2817C96.6845 51.8604 96.5467 52.4286 96.3029 52.954C96.0591 53.4794 95.7143 53.9517 95.288 54.3438V54.2118Z" fill="#008080"/>
</svg>
