<svg class="svg-icon" style="width: 1em; height: 1em;vertical-align: middle;fill: currentColor;overflow: hidden;" viewBox="0 0 1024 1024" version="1.1" xmlns="http://www.w3.org/2000/svg"><path d="M371.626667 328.96L469.333333 230.826667V640a42.666667 42.666667 0 0 0 85.333334 0V230.826667l97.706666 98.133333a42.666667 42.666667 0 0 0 60.586667 0 42.666667 42.666667 0 0 0 0-60.586667l-170.666667-170.666666a42.666667 42.666667 0 0 0-14.08-8.96 42.666667 42.666667 0 0 0-32.426666 0 42.666667 42.666667 0 0 0-14.08 8.96l-170.666667 170.666666a42.666667 42.666667 0 1 0 60.586667 60.586667zM896 512a42.666667 42.666667 0 0 0-42.666667 42.666667v256a42.666667 42.666667 0 0 1-42.666666 42.666666H213.333333a42.666667 42.666667 0 0 1-42.666666-42.666666v-256a42.666667 42.666667 0 0 0-85.333334 0v256a128 128 0 0 0 128 128h597.333334a128 128 0 0 0 128-128v-256a42.666667 42.666667 0 0 0-42.666667-42.666667z"  /></svg>